<?xml version="1.0" encoding="utf-8"?>
<!-- Generator: Adobe Illustrator 19.0.0, SVG Export Plug-In . SVG Version: 6.00 Build 0)  -->
<svg version="1.1" id="Layer_1" xmlns="http://www.w3.org/2000/svg" xmlns:xlink="http://www.w3.org/1999/xlink" x="0px" y="0px"
	 viewBox="0 0 1080 1920" style="enable-background:new 0 0 1080 1920;" xml:space="preserve">
<style type="text/css">
	.st0{clip-path:url(#XMLID_27_);fill:#1D68FF;}
	.st1{opacity:0.79;clip-path:url(#XMLID_27_);fill:#FF5CDC;}
	.st2{opacity:0.4;clip-path:url(#XMLID_27_);fill:#FF5CDC;}
	.st3{clip-path:url(#XMLID_27_);fill:#FF5CDC;}
	.st4{opacity:0.36;clip-path:url(#XMLID_27_);fill:url(#XMLID_28_);}
	.st5{opacity:0.48;clip-path:url(#XMLID_27_);}
	.st6{opacity:0.1428;fill:#E24DE2;}
	.st7{opacity:0.31;}
	.st8{opacity:0.1428;fill:#FFFFFF;}
	.st9{opacity:0.46;}
	.st10{clip-path:url(#XMLID_27_);}
	.st11{opacity:0.26;fill:#D04CD3;}
	.st12{opacity:0.47;fill:#C34AC6;}
	.st13{opacity:0.59;fill:#CA41CE;}
	.st14{fill:#F45DD7;stroke:#E24DE2;stroke-width:10;stroke-miterlimit:10;}
	.st15{opacity:0.44;fill:#F45DD7;stroke:#E24DE2;stroke-width:10;stroke-miterlimit:10;}
	.st16{fill:#0067BC;}
	.st17{opacity:0.47;fill:#FF5CDC;}
	.st18{fill:#006AD3;}
	.st19{opacity:0.58;fill:#D04CD3;}
	.st20{opacity:0.62;fill:#0067BC;}
	.st21{fill:#FFFFFF;}
	.st22{opacity:0.12;}
	.st23{opacity:0.3;}
	.st24{fill:#F45DD7;}
	.st25{fill:#E24DE2;}
	.st26{opacity:0.44;}
	.st27{opacity:0.32;clip-path:url(#XMLID_27_);}
	.st28{opacity:0.38;fill:none;stroke:#F45DD7;stroke-width:4;stroke-miterlimit:10;}
	.st29{opacity:0.58;fill:none;stroke:#F45DD7;stroke-width:4;stroke-miterlimit:10;}
	.st30{fill:none;stroke:#F45DD7;stroke-width:4;stroke-miterlimit:10;}
	.st31{fill:#3F3F41;stroke:#3F3F41;stroke-width:2;stroke-miterlimit:10;}
	.st32{fill:#57585A;}
	.st33{fill:none;stroke:#57585A;stroke-width:4;stroke-miterlimit:10;}
</style>
<g id="XMLID_23_">
	<defs>
		<rect id="XMLID_509_" x="98.7" y="179" width="872.5" height="1551"/>
	</defs>
	<clipPath id="XMLID_27_">
		<use xlink:href="#XMLID_509_"  style="overflow:visible;"/>
	</clipPath>
	<rect id="XMLID_25_" x="98.7" y="179" class="st0" width="872.5" height="1551"/>
	<rect id="XMLID_24_" x="98.7" y="179" class="st1" width="872.5" height="730.4"/>
	<rect id="XMLID_22_" x="98.7" y="909.4" class="st2" width="872.5" height="820.6"/>
	<path id="XMLID_371_" class="st3" d="M486.3,622.3l78.3,46.1l90.8,24.3l68.6,8.1l-54.5-25.4l-34.7-23c0,0-29.2-21.4-29.6-22.2
		c-0.3-0.8-47.2-10.5-51.6-12.1c-4.4-1.6-31.8-26.2-31.8-26.2"/>
	<linearGradient id="XMLID_28_" gradientUnits="userSpaceOnUse" x1="534.95" y1="179.0029" x2="534.95" y2="909.4086">
		<stop  offset="0" style="stop-color:#1D68FF"/>
		<stop  offset="1" style="stop-color:#0067BC"/>
	</linearGradient>
	<rect id="XMLID_484_" x="98.7" y="179" class="st4" width="872.5" height="730.4"/>
	<g id="XMLID_21_" class="st5">
		<g id="XMLID_8_">
			<g id="XMLID_218_">
				<g id="XMLID_219_">
					<path id="XMLID_228_" class="st6" d="M733.1,247.6c11,5.4,22.5,9.7,34.4,12.8c11.9,3.9,23.8,7.4,35.9,10.7
						c18.5,5,37,9.5,55.7,13.6c41,9,82.4,16.1,123.9,21.7c41.8,5.6,83.8,9.5,125.9,11.7c45.4,2.4,90.9,2.7,136.4,1.5
						c-0.4-3-2-5.5-4.6-7.4c-7.4-7.5-15-14.8-22.8-21.9c-7.7-7.2-15.6-14.2-23.6-21c-2.1-2.5-4.7-3.8-7.7-4
						c-40.7-0.4-81.4-1.9-122-5.1c-40.6-3.3-81-8.1-121.2-14.5c-37-5.9-73.7-13.2-110.2-21.8c-18.1-4.3-36-9-53.9-14.1
						c-11.6-3.3-23.2-7-34.6-11.1c-10.3-3.8-20.3-8-30.2-12.7c0.7,0.4,1.4,0.8,2.1,1.2c-6.2-3.7-12.3-7.4-18.5-11.1
						c-0.7,2.9-0.2,5.8,1.6,8.5c4.1,9.6,8.5,19.2,13.2,28.6c4.5,9.5,9.3,18.8,14.3,28C728.4,244.1,730.3,246.3,733.1,247.6z"/>
					<path id="XMLID_227_" class="st6" d="M731.6,277.2c11.4-0.2,22.3,2.2,32.7,7.2c11.9,3.8,24,7.3,36.1,10.5
						c18.5,4.9,37,9.4,55.7,13.5c40.9,8.9,82.2,16,123.7,21.4c41.7,5.5,83.6,9.3,125.6,11.5c45.3,2.3,90.6,2.5,135.9,1.3
						c-1.8-4.6-4.8-8.6-8.8-11.7c-12.7-13-25.7-25.9-38.8-38.5c-13-12.8-26.2-25.3-39.6-37.6c-3.3-3.9-7.3-6.8-12-8.5
						c-42.9-1.9-85.7-5-128.4-10.2c-39.5-4.8-78.9-11.2-118-19c-38.9-7.8-77.6-17-115.7-27.9c-17.3-5-34.5-10.4-51.4-16.4
						c-10.8-3.8-21.3-8.2-31.6-13.1c-8-5.6-16.9-8.5-26.5-8.9c0.2,5.1,1.6,9.8,4.4,14.3c7.6,16.9,15.5,33.6,23.7,50.2
						c8,16.7,16.3,33.3,24.8,49.7C724.9,269.8,727.8,273.9,731.6,277.2z"/>
					<path id="XMLID_226_" class="st6" d="M722.8,233.2c6.3,8,13.9,13.6,22.9,16.7c5.7,2,11.4,3.8,17.2,5.2
						c-0.6-0.2-1.3-0.4-1.9-0.6c11.9,3.9,23.9,7.5,36,10.7c6.1,1.6,12.3,3.2,18.4,4.8c13,3.3,26.2,6.4,39.3,9.2
						c41.1,9,82.5,16,124.2,21.5c41.9,5.5,84,9.3,126.1,11.5c45.5,2.3,91,2.5,136.6,1.3c0.1-2.3-0.8-4.2-2.8-5.7
						c-5.2-5.4-10.6-10.6-16.1-15.6c-5.5-5.1-11.1-10-17-14.7c-1.7-1.9-3.7-2.7-5.9-2.3c-38,0.1-76-0.6-114-3
						c-38-2.4-75.7-6.3-113.4-11.2c0.7,0.1,1.3,0.2,2,0.3c-6.9-1-13.9-2-20.8-2.9c0.7,0.1,1.3,0.2,2,0.3c-6.9-1.1-13.8-2.1-20.7-3.2
						c0.7,0.1,1.3,0.2,2,0.3c-6.9-1.1-13.8-2.3-20.7-3.4c0.7,0.1,1.3,0.2,2,0.3c-6.9-1.2-13.7-2.5-20.6-3.7c0.7,0.1,1.3,0.2,2,0.4
						c-6.9-1.3-13.7-2.6-20.6-3.9c0.7,0.1,1.3,0.3,2,0.4c-6.8-1.4-13.7-2.8-20.5-4.2c0.6,0.1,1.3,0.3,1.9,0.4
						c-6.8-1.5-13.6-3-20.4-4.5c0.6,0.1,1.3,0.3,1.9,0.4c-24.4-5.7-48.7-11.5-72.7-18.7c-11.5-3.3-22.9-7.2-34.1-11.5
						c-15-4.6-27.2-13.5-36.6-26.7c-1.7-1.5-2.5-1.1-2.4,1.2c1,4.8,2.7,9.3,5,13.6c3.9,8.4,7.9,16.8,12.1,25
						C717.1,225.3,719.6,229.5,722.8,233.2z"/>
					<path id="XMLID_225_" class="st6" d="M721.7,251.6c11.1,4.5,22.4,8.4,33.9,11.7c11.9,3.9,23.8,7.4,35.8,10.7
						c18.4,5,37,9.5,55.6,13.7c40.9,9,82.3,16.2,123.8,21.7c41.8,5.6,83.7,9.5,125.8,11.8c45.4,2.5,90.8,2.7,136.2,1.6
						c-0.5-3.1-2.2-5.7-4.9-7.7c-7.8-7.9-15.9-15.6-24.1-23.2c-8.1-7.6-16.4-15.1-24.9-22.3c-2.2-2.6-4.9-4-8.1-4.3
						c-44-0.8-87.8-2.8-131.6-7c-40.6-3.9-81-9.4-121.1-16.4c-40-7-79.7-15.5-119-25.8c-17.8-4.7-35.6-9.8-53.1-15.5
						c-11.1-3.6-22.1-7.7-32.8-12.4c-10.2-4.3-20.1-9.3-29.6-15c-0.6,3.2,0,6.3,1.9,9.2c4.6,10.5,9.4,21,14.5,31.3
						c4.9,10.4,10.1,20.6,15.6,30.7C716.7,247.7,718.7,250.1,721.7,251.6z"/>
					<path id="XMLID_224_" class="st6" d="M721.4,227.2c10.4,13.7,23.8,22,40.1,24.9c11.9,3.7,23.9,7.2,36,10.4
						c18.6,4.9,37.2,9.4,56,13.5c41.1,8.9,82.7,15.9,124.4,21.3c42,5.4,84.1,9.2,126.4,11.3c45.6,2.3,91.2,2.3,136.8,1
						c1.7,0.3,2.3-0.3,1.8-2c-1.6-3.1-3.8-5.7-6.6-7.9c-4.7-4.5-9.5-8.9-14.5-13.2c-2.4-2.5-5.3-4.5-8.5-5.8
						c-44.7,0.7-89.3,0-133.9-2.8c-41.4-2.6-82.7-6.9-123.7-12.8c-40.9-5.9-81.6-13.3-121.8-22.6c-18.4-4.2-36.7-8.9-54.9-14
						c-11.6-3.3-23.1-6.8-34.5-10.7c-17.1-5.1-30.4-15.7-40.1-31.8c-1.5-1.1-2.3-0.7-2.4,1.2c0.5,3.8,1.7,7.4,3.7,10.8
						c3,6.6,6.1,13.1,9.5,19.5C716.7,221.2,718.7,224.4,721.4,227.2z"/>
					<path id="XMLID_223_" class="st6" d="M726.2,265.5c11.4,1.5,22.5,4.4,33.1,8.8c11.9,3.8,23.9,7.4,35.9,10.6
						c18.4,4.9,37,9.5,55.6,13.6c40.9,9,82.1,16.1,123.6,21.6c41.7,5.5,83.5,9.4,125.5,11.7c45.3,2.4,90.5,2.7,135.9,1.5
						c-1.3-4.1-3.7-7.4-7.2-10.1c-10.7-11-21.7-21.8-32.8-32.4c-11-10.7-22.2-21.2-33.6-31.6c-2.8-3.4-6.3-5.7-10.4-6.8
						c-43.3-1.5-86.5-4.3-129.6-9.1c-39.9-4.5-79.6-10.5-119.1-18.1c-39.3-7.5-78.4-16.4-116.9-27.2c-17.5-4.9-34.9-10.1-52.1-16.1
						c-10.9-3.7-21.6-8-32.1-12.8c-8.6-5.1-17.9-8.6-27.6-10.6c-0.2,4.3,1,8.4,3.4,12.2c6.4,14.3,13.1,28.5,20,42.6
						c6.8,14.1,13.8,28.2,21.1,42.1C720.2,259.5,722.7,262.9,726.2,265.5z"/>
					<path id="XMLID_222_" class="st6" d="M724.8,218.5c8.5,8.7,17.5,17,26.8,24.8c11.5,6,23.7,10.2,36.4,12.6
						c18.6,4.8,37.1,9.7,55.8,14c44.2,10,88.9,17.8,133.7,23.7c45.1,5.9,90.6,10,136.1,11.9c19.5,0.8,39,1.4,58.6,1.6
						c26.1,0.2,52.1-0.3,78.1-1.1c5.2-0.2-1.7-7.3-2.2-7.9c-3.1-3.3-6.3-6.5-9.7-9.5c-1.6-1.9-3.6-3.2-6-3.9
						c-41.5,1.1-82.9,1-124.3-0.9c-41.4-1.9-82.8-5.4-123.9-10.5c-37.9-4.7-75.7-10.9-113.1-18.5c-18.6-3.7-37.1-8-55.5-12.5
						c-12.3-3.1-24.6-6.3-36.9-9.5c-13-1.8-25-6.4-36-13.8c0.6,0.5,1.2,1,1.8,1.5c-9.7-9.9-19.4-19.8-29.1-29.7
						c-0.7-0.7-1.3-1.3-2-2c-0.5-0.1-1.1-0.1-1.6-0.2c-0.3,0.5-0.6,0.9-0.8,1.4c0,1.9,0.4,3.7,1.3,5.3c1.7,4.5,3.8,8.8,6,13.1
						c0.9,2,2,3.9,3.2,5.8C722.1,215.9,723.3,217.4,724.8,218.5z"/>
					<path id="XMLID_221_" class="st6" d="M728,228.8c10.5,13,23.7,20.9,39.6,23.8c11.9,3.8,23.9,7.3,35.9,10.5
						c18.5,4.9,37.2,9.4,55.9,13.5c41.1,8.9,82.6,15.9,124.3,21.4c41.9,5.4,84,9.2,126.2,11.4c45.5,2.3,91.1,2.4,136.6,1.1
						c1.9,0.5,2.5-0.2,1.8-2c-2-3.5-4.6-6.5-7.8-9c-5.5-5.3-11-10.4-16.8-15.3c-2.8-2.9-6-5.2-9.7-6.9c-44.4,0.6-88.8-0.2-133.2-3.1
						c-41.2-2.7-82.2-7-123-12.9c-40.7-5.9-81.1-13.3-121.2-22.6c-18.3-4.2-36.5-8.9-54.6-14c-11.5-3.3-22.9-6.9-34.1-10.9
						c-16.4-5.2-29.5-15.3-39.2-30.4c-1.6-1.2-2.4-0.8-2.4,1.2c0.7,4.2,2.1,8.2,4.2,11.9c3.3,7.3,6.9,14.6,10.6,21.8
						C722.9,222,725.1,225.6,728,228.8z"/>
					<path id="XMLID_220_" class="st6" d="M719.1,240.6c6.8,4.9,14,9,21.5,12.5c11.5,3.1,22.8,6.6,34.1,10.4
						c18.2,5.5,36.7,10.1,55.2,14.5c43.9,10.3,88.4,18.4,133.1,24.6c45,6.3,90.3,10.7,135.6,13c19.5,1,38.9,1.7,58.4,2.1
						c26,0.4,52,0.1,78-0.5c-0.1-2.6-1.3-4.8-3.7-6.5c-6.2-6.4-12.6-12.6-19.2-18.5c-6.5-6.1-13.2-12-20.1-17.6
						c-1.9-2.2-4.1-3.2-6.8-3.1c-37.9-0.2-75.8-1.4-113.6-4.1c-40.9-2.9-81.8-7.5-122.3-13.7c-37.4-5.7-74.5-12.7-111.3-21.1
						c-18.3-4.2-36.5-8.7-54.6-13.7c-8.9-2.4-17.8-5-26.7-7.8c-11.4-3.5-22.6-7.5-33.6-12c0.7,0.3,1.4,0.6,2.1,0.9
						c-5.4-2.3-10.8-4.6-16.2-6.9c0.7,0.3,1.3,0.6,2,0.9c-6.1-4.6-12.2-9.3-18.4-13.9c-1.9-1.8-2.7-1.4-2.4,1.2
						c1.3,5.5,3.4,10.8,6.1,15.8c4.5,9.8,9.2,19.5,14.1,29.2C712.8,231.3,715.7,236.1,719.1,240.6z"/>
				</g>
			</g>
		</g>
		<g id="XMLID_6_">
			<g id="XMLID_206_">
				<g id="XMLID_207_">
					<path id="XMLID_216_" class="st6" d="M719.3,183.6c2.6,3.3,5.1,6.6,7.7,9.9c3,1.4,5.9,2.9,8.9,4.3c3.5,1.7,7,3.4,10.5,5.1
						c3.9,1.5,7.8,3,11.7,4.5c16.9,5.8,34.8,9.2,52.5,11.8c17.5,2.6,35.1,4.2,52.7,5.8c4.1,0.4,8.2,0.8,12.3,1.1
						c7.1,1.1,14.3,2.2,21.4,3.2c17.4,2.6,34.8,5.3,52.2,7.9c54.3,7.9,108.8,14.5,163.4,19.3c57.3,5,114.6,7.7,172.1,8.6
						c-0.4-3-1.8-5.5-4.5-7.5c-7.3-7.6-14.7-15.1-22.4-22.3c-7.5-7.4-15.3-14.5-23.2-21.4c-2.1-2.5-4.6-3.9-7.6-4.1
						c-52.6-2.2-105-5.8-157.4-11.5c-52.7-5.7-105.1-13.2-157.3-22.4c-26.3-4.6-52.4-10.2-78.7-14.9c-14.5-2.6-28.9-5.1-43.2-8.7
						c-13.6-3.5-27.3-7.7-39.9-14.1c-5.6-2.7-10.8-6-15.7-9.8c-3.9-3.2-7.6-6.6-11.2-10.2c0.5,0.6,1,1.3,1.4,1.9
						c-1.8-3.8-3.7-7.6-5.5-11.3c-0.5-0.7-0.9-1.3-1.4-2c-0.4,0.7-0.9,1.4-1.3,2c-0.3,2-0.6,4-0.9,6c-0.3,7.1-0.3,14.3-0.2,21.4
						c0.1,11,0.2,22,0.8,33c-0.1,3.1,0.2,6.2,0.8,9.3C717.3,180.6,717.9,182.2,719.3,183.6z"/>
					<path id="XMLID_215_" class="st6" d="M715.8,215.1c2.6,0.5,5.3,1,7.9,1.5c3.2,1.9,6.3,3.9,9.5,5.8c3.7,1.7,7.3,3.4,11,5.2
						c4,1.4,8,2.9,12,4.3c17.1,5.5,35,8.7,52.7,11.2c17.3,2.4,34.7,3.9,52,5.5c4.1,0.4,8.1,0.8,12.2,1.1c7.1,1.1,14.2,2.2,21.2,3.3
						c17.3,2.7,34.6,5.3,51.9,7.9c54.1,7.9,108.4,14.5,162.9,19.2c57.1,4.9,114.4,7.6,171.7,8.4c-1.8-4.7-4.6-8.7-8.6-11.9
						c-12.5-13.3-25.3-26.4-38.2-39.3c-12.8-13-25.9-25.8-39.1-38.5c-3.2-4-7.2-6.9-11.9-8.7c-51.7-3.5-103.2-8.4-154.5-15.5
						c-54.3-7.5-108.6-16.9-162-29.6c-12.3-2.9-24.5-6.1-36.7-9.6c-10.6-3-21.3-5.6-31.7-9.2c-11.7-4-23.2-8.6-34.2-14.2
						c-9.9-5.1-19.4-11-27.8-18.4c-3.8-3.3-7.3-6.9-10.5-10.8c-1.4-1.8-2.9-3.6-4.5-5.3c-1.5-2.8-4-4-7.4-3.8
						c-2,4.7-2.7,9.6-2.1,14.9c-0.2,18.7-0.2,37.3,0.2,56c0.2,18.7,0.7,37.3,1.4,56C712.8,205.5,713.7,210.4,715.8,215.1z"/>
					<path id="XMLID_214_" class="st6" d="M711.6,168.7c2.6,6.3,5.2,12.5,7.8,18.8c0.5,0.5,0.9,0.9,1.4,1.4c2.9,1.5,5.8,3,8.7,4.6
						c3.5,1.6,7,3.3,10.5,4.9c18.5,8,38.4,12.2,58.2,15.3c17.8,2.8,35.8,4.5,53.8,6c4.2,0.4,8.5,0.7,12.7,1.1
						c5.7,0.4,11.4,1.1,17,2.1c17.6,2.5,35.1,5.2,52.7,7.7c54.5,7.8,109.1,14.6,164,19.5c60.7,5.4,121.5,8.3,182.5,9.2
						c0.2-2.3-0.7-4.2-2.7-5.8c-3.6-3.9-7.3-7.7-11.1-11.3c-4.7-4.6-9.5-9.2-14.4-13.6c-3.2-3.4-6.8-6.2-10.9-8.4
						c-7.3-0.2-14.6-0.5-21.9-0.7c0.7,0,1.3,0,2,0.1c-7.3-0.3-14.6-0.6-21.9-0.9c0.7,0,1.3,0.1,2,0.1c-7.3-0.4-14.6-0.7-21.9-1.1
						c0.7,0,1.3,0.1,2,0.1c-7.3-0.4-14.6-0.9-21.9-1.3c0.7,0,1.3,0.1,2,0.1c-7.3-0.5-14.6-1-21.9-1.5c0.7,0,1.3,0.1,2,0.1
						c-7.3-0.6-14.6-1.1-21.8-1.7c0.7,0.1,1.3,0.1,2,0.2c-7.3-0.6-14.6-1.2-21.8-1.9c0.7,0.1,1.3,0.1,2,0.2
						c-7.3-0.7-14.6-1.4-21.8-2c0.7,0.1,1.3,0.1,2,0.2c-7.3-0.7-14.6-1.5-21.8-2.2c0.7,0.1,1.3,0.1,2,0.2
						c-7.3-0.8-14.6-1.6-21.8-2.4c0.7,0.1,1.3,0.2,2,0.2c-7.3-0.9-14.6-1.7-21.8-2.6c0.7,0.1,1.3,0.2,2,0.2
						c-7.3-0.9-14.6-1.9-21.9-2.8c0.7,0.1,1.3,0.2,2,0.3c-30.7-4.1-61.4-8.6-91.9-13.6c-16.7-2.7-33.4-5.8-50.1-8.6
						c-12.6-2.1-25.2-3.9-37.9-5.7c-17.8-2.6-35.5-5.6-52.8-10.6c-7.4-2.1-14.7-4.7-21.7-7.6c-4.9-2-9.6-4.4-14-7.3
						c-4-2.3-7.8-4.9-11.3-7.8c0.5,0.4,1,0.8,1.5,1.3c-8.2-7-12.1-16.4-11.8-28.2c-0.9-2-1.8-2-2.7,0c-1.1,4.7-1.5,9.4-1.2,14.2
						c-0.1,9.1,0.1,18.2,0.4,27.4C709.8,159.3,710.3,164,711.6,168.7z"/>
					<path id="XMLID_213_" class="st6" d="M708.2,188.6c2.6,2.4,5.1,4.8,7.7,7.2c3,1.6,6,3.3,9,4.9c7.1,3.7,14.5,6.9,22.2,9.5
						c16.8,5.8,34.5,9.2,52.1,11.8c17.3,2.6,34.8,4.3,52.3,6c4.1,0.4,8.2,0.8,12.3,1.2c7.1,1.1,14.2,2.2,21.3,3.3
						c17.3,2.7,34.7,5.4,52.1,7.9c54.2,7.9,108.6,14.6,163.2,19.4c57.2,5,114.5,7.7,171.9,8.7c-0.5-3.2-2.1-5.8-4.8-7.8
						c-7.7-8.1-15.6-16-23.7-23.7c-8-7.8-16.2-15.4-24.6-22.8c-2.2-2.6-4.8-4.1-8-4.5c-52.6-2.5-105.2-6.5-157.5-12.6
						c-56-6.5-111.8-15-167.2-25.7c-13.1-2.5-26.1-5.3-39.1-8.1c-11.6-2.5-23.2-4.9-34.9-7.5c-14.2-3.1-28.4-6.7-42.2-11.5
						c-12.9-4.5-25.4-9.9-36.8-17.5c-4.9-3.3-9.4-6.9-13.6-11c-1.8-1.7-3.6-3.5-5.2-5.4c-3.1-3.1-5.7-6.7-7.7-10.7
						c-1.9,2.7-2.6,5.8-2.2,9.3c-0.3,11.7-0.4,23.4-0.1,35.1c0.1,11.7,0.5,23.4,1.1,35.1C705.4,182.8,706.2,185.9,708.2,188.6z"/>
					<path id="XMLID_212_" class="st6" d="M709.4,163c2.7,7.4,5.4,14.9,8.1,22.3c0.5,0.3,0.9,0.7,1.4,1c5.3,3.7,8.3,5.2,14,7.6
						c7.8,3.3,15.6,6.3,23.7,8.6c8.9,2.6,17.9,4.6,27,6.3c20.5,3.8,41.3,5.8,62.1,7.4c8,0.6,16,1.1,23.9,1.8c7.2,1,14.4,2,21.6,3
						c10.5,1.5,21.1,3.1,31.6,4.6c58.1,8.3,116.4,15.6,174.8,20.8c60.8,5.3,121.7,8.1,182.7,9c1.7,0.4,2.3-0.3,1.9-2
						c-1.5-3.1-3.7-5.8-6.4-8c-4.6-4.6-9.3-9.1-14.2-13.5c-2.4-2.6-5.2-4.6-8.3-6c-40-1-79.9-2.6-119.8-5.5
						c-36.7-2.7-73.4-6.2-109.9-10.6c-37.1-4.4-74.1-9.4-111-15.2c-6.8-1.1-13.6-2.1-20.4-3.2c-13.7-2.3-27.5-4.4-41.3-6.2
						c-12.7-1.4-25.4-2.7-38.1-4.3c0.6,0.1,1.1,0.2,1.7,0.2c-4.7-0.7-9.5-1.4-14.2-2.1c0.6,0.1,1.1,0.2,1.7,0.3
						c-4.8-0.8-9.5-1.7-14.3-2.5c0.6,0.1,1.1,0.2,1.7,0.3c-4.7-1-9.4-2-14.2-3.1c0.5,0.1,1.1,0.3,1.6,0.4c-4.6-1.2-9.2-2.4-13.9-3.7
						c0.5,0.2,1.1,0.3,1.6,0.5c-4.4-1.4-8.9-2.9-13.3-4.3c0.5,0.2,1.1,0.4,1.6,0.6c-4.1-1.7-8.3-3.4-12.4-5c0.5,0.2,1,0.4,1.6,0.7
						c-6.4-3.1-12.7-6.4-18.8-10c0.5,0.3,1,0.6,1.5,0.9c-1.9-2-3.9-4.1-5.8-6.1c0.4,1,0.7,2,1.1,3.1c-2.5-9.4-4.9-18.7-7.4-28.1
						c-0.3-1.2-0.7-2.4-1-3.6c-0.5-0.4-0.9-0.8-1.4-1.2c-0.4,0.4-0.9,0.8-1.3,1.2c-0.8,2.4-1.2,4.9-1.1,7.4
						c-0.3,6.6-0.2,13.2,0,19.8c0,3,0.1,6.1,0.4,9.1C708.1,158.2,708.5,160.6,709.4,163z"/>
					<path id="XMLID_211_" class="st6" d="M712.1,203.6c2.6,1,5.2,2,7.8,3c3.1,1.8,6.2,3.7,9.3,5.5c7.2,3.8,14.9,6.9,22.6,9.4
						c16.9,5.5,34.6,8.8,52.1,11.3c17.2,2.5,34.5,4,51.7,5.7c4,0.4,8.1,0.8,12.1,1.2c7.1,1.1,14.1,2.2,21.2,3.3
						c17.3,2.7,34.6,5.4,51.9,7.9c54.1,8,108.3,14.6,162.8,19.4c57.1,5,114.3,7.7,171.6,8.6c-1.2-4.1-3.6-7.5-7.1-10.3
						c-10.6-11.2-21.3-22.3-32.3-33.1c-10.9-11-21.9-21.7-33.1-32.3c-2.8-3.5-6.2-5.8-10.3-7c-52-3.2-103.9-7.8-155.6-14.5
						c-55-7.1-109.8-16.2-163.9-28.2c-12.6-2.8-25.1-5.8-37.6-9.1c-11-2.8-22-5.4-32.9-8.6c-12.6-3.7-25-8-37-13.3
						c-11-4.9-21.6-10.7-31-18.1c-4.2-3.3-8.1-6.9-11.6-10.9c-1.6-1.8-3.2-3.6-4.8-5.4c-1.9-2.7-4.5-4.6-7.6-5.8
						c-2,3.9-2.7,8.2-2.1,12.7c-0.3,16-0.2,32,0.1,47.9c0.1,16,0.6,31.9,1.3,47.9C709.2,195.5,710,199.7,712.1,203.6z"/>
					<path id="XMLID_210_" class="st6" d="M711.8,151.3c2.8,11.2,5.6,22.4,8.4,33.5c0.3,0.6,0.7,1.2,1,1.8
						c3.7,6.2,11.1,7.2,17.1,8.3c8.7,1.7,17.2,4.3,25.8,6.7c11.6,3.2,23.3,5.6,35.2,7.3c16.1,2.3,32.3,3.7,48.5,4.9
						c8.4,0.6,16.8,1.2,25.2,1.7c5.7,0.3,11.4,0.9,17.1,1.9c10.7,1.5,21.4,2.9,32,4.5c58.2,8.1,116.4,15.5,174.9,20.6
						c30.4,2.7,60.9,4.9,91.4,6.4c33.8,1.7,67.6,2.5,101.4,2.9c5.2,0.1-1.5-7.4-1.9-7.9c-3-3.4-6.1-6.6-9.3-9.7
						c-1.6-2-3.5-3.3-5.9-4.1c-39.9-0.6-79.8-2-119.7-4.5c-40-2.6-80-6.1-119.8-10.7c-40.5-4.6-80.8-10-121.1-15.9
						c-6.9-1-13.7-2-20.6-3c-8.9-1.7-17.8-2.8-26.8-3.4c-15-1.1-29.9-2.4-44.9-3.9c0.5,0.1,1,0.1,1.5,0.2
						c-7.2-0.8-14.3-1.7-21.4-2.8c-6.7-0.9-13.3-2.1-19.9-3.5c0.5,0.1,1,0.2,1.5,0.3c-4.8-1.2-9.6-2.5-14.4-3.7
						c0.5,0.1,1,0.3,1.4,0.4c-6.7-2.5-13.6-4.6-20.5-6.3c-5.5-2-11.2-2.5-17-1.8c0.5,0.2,0.9,0.3,1.4,0.5c-3-2.7-6-5.4-9-8.2
						c0.3,0.6,0.7,1.2,1,1.8c-2.7-13.1-5.5-26.3-8.2-39.4c-0.1-1.7-0.9-2.8-2.3-3.2c-1.5,0.5-2.2,1.6-2.2,3.3
						c-0.4,4.1-0.6,8.2-0.4,12.4C711,143.1,711.3,147.2,711.8,151.3z"/>
					<path id="XMLID_209_" class="st6" d="M716.5,166.2c-0.4,10,2.7,17.4,9.4,22.1c6.3,3.2,12.7,6.1,19.2,8.9
						c12.4,5,25.2,8.6,38.3,11.3c30.9,6.4,62.6,8.1,94.1,10.5c-0.6-0.1-1.2-0.2-1.8-0.2c35,4.9,70,10.2,105.1,14.8
						c34,4.5,68.1,8.5,102.3,11.8c30.4,2.9,60.9,5.3,91.4,7.1c37.1,2.2,74.3,3.3,111.5,3.8c1.9,0.5,2.5-0.1,1.9-2
						c-1.9-3.5-4.5-6.5-7.6-9.1c-5.3-5.3-10.8-10.5-16.4-15.6c-2.7-3-5.9-5.3-9.5-7.1c-53.1-1.4-106.1-4.2-159.1-9
						c-46.7-4.3-93.2-9.9-139.6-16.5c-13.5-1.9-26.9-3.9-40.3-6c-13.4-2.1-26.9-4.3-40.3-6.4c-6.9-1-13.9-2-20.8-3
						c-4.4-0.6-8.9-1.1-13.4-1.4c-16.2-1.7-32.4-3.6-48.5-6.6c-8.1-1.5-16.1-3.4-24-5.6c-7.5-2.1-14.7-4.7-21.8-7.9
						c0.5,0.3,1.1,0.5,1.6,0.8c-3.6-1.9-7.3-3.7-10.9-5.6c0.5,0.3,1,0.6,1.5,0.9c-3-1.8-6.1-3.6-9.1-5.4c0.5,0.3,1,0.6,1.5,0.9
						c-1.9-1.7-3.8-3.3-5.7-5c0.4,1.1,0.7,2.2,1.1,3.3c-2.7-10-5.3-20-8-29.9c-0.9-1.7-1.8-1.7-2.7,0c-1.1,3.8-1.5,7.8-1.2,11.8
						c-0.1,7.6,0,15.1,0.3,22.7C714.7,158.5,715.2,162.4,716.5,166.2z"/>
					<path id="XMLID_208_" class="st6" d="M707.3,177.1c2.5,4.1,5.1,8.2,7.6,12.4c0.5,0.6,1,1.2,1.4,1.8c2.9,1.3,5.9,2.6,8.8,3.9
						c3.5,1.8,7,3.5,10.5,5.3c3.9,1.5,7.8,3,11.7,4.5c6.3,2.2,12.6,4,19.1,5.4c8.8,2.2,17.7,3.9,26.7,5.4
						c17.6,2.9,35.4,4.7,53.2,6.3c4.2,0.4,8.4,0.8,12.6,1.2c5.7,0.4,11.3,1.1,16.9,2.2c17.5,2.6,35,5.4,52.6,7.9
						c54.4,8,109,14.9,163.7,19.8c60.7,5.5,121.4,8.5,182.3,9.5c-0.1-2.6-1.3-4.8-3.5-6.6c-6.1-6.5-12.4-12.8-18.9-18.9
						c-6.4-6.2-13-12.2-19.7-18c-1.8-2.2-4.1-3.3-6.7-3.2c-52.9-2.1-105.7-5.6-158.4-11.3C1014,199,961,191.5,908.4,182.4
						c-26.7-4.6-53.3-10.2-80-14.9c-15.1-2.7-30.2-5.3-45-9.2c-14.4-3.7-28.8-8.4-42-15.2c-5.9-2.9-11.4-6.4-16.6-10.5
						c-4-3.4-7.9-6.9-11.6-10.6c0.5,0.6,1,1.2,1.4,1.8c-1.9-4.6-3.7-9.1-5.6-13.7c-0.9-2.5-1.8-2.4-2.7,0
						c-1.1,5.6-1.5,11.3-1.2,17.1c0,11,0.1,21.9,0.5,32.8C705.4,165.9,706,171.5,707.3,177.1z"/>
				</g>
			</g>
		</g>
		<g id="XMLID_3_">
			<g id="XMLID_194_">
				<g id="XMLID_195_">
					<path id="XMLID_204_" class="st6" d="M454.4,171.8c0.5,4.2,1.3,8.4,2.6,12.4c0.7,2.9,2.8,4.8,6.4,5.6c3.6,3.2,7.4,6.3,11.4,9.1
						c4.3,3.4,8.8,6.4,13.6,9c17,9.6,35.2,16.9,53.6,23.4c7,2.4,13.9,4.7,20.9,7c6.5,2.6,13.1,5.2,19.6,7.8
						c18.6,7.3,37.6,14.1,56.6,20.4c33.7,11.1,67.7,20.7,102.3,28.5c135.9,30.9,275.7,36.2,414.6,35.4c-0.4-3-1.9-5.5-4.5-7.4
						c-7.3-7.5-14.9-14.9-22.6-22c-7.6-7.3-15.5-14.3-23.5-21.1c-2.1-2.5-4.7-3.8-7.7-4c-58.7-1.1-117.4-3.4-175.9-9.2
						c-58.7-5.7-117.4-14.5-174.8-28.3c-28.8-6.9-57.4-14.8-85.5-24.3c-25.8-8.7-51.2-18.5-76.5-28.7c-9-3.7-18-7.2-27.1-10.7
						c-6.6-2.6-13.2-5.2-19.8-7.8c-6.7-3-13.3-6.5-19.7-10.1c-6.1-3.6-12.2-7.4-17.7-11.9c-2-1.7-3.9-3.5-5.9-5.2
						c-3.4-3.2-6.3-6.7-8.9-10.6c0.4,0.7,0.8,1.4,1.2,2c-1.4-2.4-2.7-4.8-4.1-7.2c0.3,0.7,0.7,1.4,1,2.1c-1-2.2-2.1-4.4-3.1-6.6
						c0.3,0.7,0.6,1.4,0.8,2.2c-0.8-2.1-1.6-4.3-2.4-6.4c0.2,0.7,0.5,1.5,0.7,2.2c0-3.6,0-7.3-0.1-10.9c0-2.7-0.8-3-2.5-0.9
						c-3.1,5.2-5.5,10.6-7.3,16.4c-4,10.8-7.8,21.6-11.4,32.5C456.7,160,455.2,165.8,454.4,171.8z"/>
					<path id="XMLID_203_" class="st6" d="M449.3,205.4c3.9,0.2,7,2,9.1,5.2c3.3,3.6,6.9,6.9,10.7,10c7.5,5.7,15.7,10.4,24.1,14.7
						c19,9.7,39.1,16.9,59.3,23.6c6.7,1.9,13.2,4.3,19.5,7.3c9.2,4,18.6,7.7,28,11.2c15.3,5.8,30.8,11.2,46.4,16.2
						c33.5,10.8,67.5,20,101.9,27.4c67.1,14.4,135.3,23.1,203.7,27.7c66.6,4.5,133.4,5.4,200.1,4.9c-1.8-4.6-4.7-8.6-8.8-11.8
						c-12.7-13.1-25.6-25.9-38.7-38.6c-13-12.8-26.1-25.4-39.5-37.7c-3.3-4-7.3-6.8-12-8.5c-63.1-2.9-126.1-7.9-188.6-17.6
						c-61.6-9.6-122.8-23.5-181.6-44.1c-26.5-9.3-52.4-19.7-77.9-31.4c-15.4-7.1-30.6-14.8-45.6-22.6c-5.1-2.7-10.2-5.4-15.4-8.1
						c-7.8-3.1-14.6-7.4-20.5-13.1c-7.3-6.7-13.9-14.1-18.5-23c-2.1-4.1-3.6-8.7-4.4-13.3c-0.2-1.4-0.5-2.9-0.7-4.3
						c-0.3-2.7-1.8-4.4-4.5-4.9c-3.5,3.6-5.8,7.9-7,13c-6.5,17.1-12.8,34.3-18.8,51.6c-6.1,17.2-12,34.6-17.6,52
						C449.7,195.5,448.8,200.4,449.3,205.4z"/>
					<path id="XMLID_202_" class="st6" d="M449.1,159.9c0.1,16.7-3.5,16.7,6.4,25.5c3.8,2.9,7.6,5.8,11.4,8.6
						c4.3,3.4,8.9,6.5,13.7,9.1c17.4,9.9,35.9,17.2,54.8,23.7c7.1,2.4,14.3,4.7,21.4,7c6.7,2.6,13.4,5.1,20.1,7.7
						c18.8,7.1,37.8,14,57,20.2c33.8,11,68.1,20.5,102.8,28.2c136.3,30.4,276.5,35.4,415.6,34.3c0.1-2.3-0.8-4.2-2.8-5.7
						c-5.1-5.4-10.5-10.7-16-15.7c-5.4-5.2-11-10.1-16.8-14.8c-1.7-1.9-3.6-2.7-5.9-2.4c-113.4-0.9-227.5-6.5-338.8-29.2
						c-26.8-5.5-53.3-11.7-79.6-19.1c-26.6-7.5-52.9-16.2-78.8-25.8c-15.1-5.6-30-11.7-45.1-17.3c-13.3-5-26.8-9.4-39.7-15.1
						c-6.1-2.7-12.2-5.6-18.1-8.7c-4.4-2.3-8.7-4.8-12.8-7.6c-4-2.5-7.9-5.2-11.5-8.3c0.5,0.4,1,0.9,1.5,1.3
						c-2.6-2.4-5.2-4.8-7.9-7.1c0.5,0.5,0.9,0.9,1.4,1.4c-2.2-2.4-4.4-4.9-6.5-7.3c0.4,0.5,0.8,1,1.2,1.5c-1.7-2.4-3.4-4.8-5.1-7.2
						c0.4,0.5,0.7,1.1,1.1,1.6c-1.3-2.1-2.6-4.1-3.9-6.2c0.3,0.6,0.7,1.1,1,1.7c-0.4-2-0.9-4.1-1.3-6.1c-0.1,1.5-0.3,3-0.4,4.5
						c0.9-8.3,1.8-16.5,2.8-24.8c-0.2-2.2-1-2.5-2.5-0.9c-2.7,4-4.7,8.3-6.1,13c-3.2,8.6-6.3,17.2-9.1,25.9
						C450.6,150.4,449.5,155.1,449.1,159.9z"/>
					<path id="XMLID_201_" class="st6" d="M443.4,180c1,4.4,3.2,7.7,6.7,10.1c3.4,3,6.8,5.9,10.3,8.8c7.2,5.5,14.9,10.3,23,14.6
						c18.6,9.9,38.5,17.3,58.4,24.1c6.8,2,13.4,4.5,19.8,7.3c9.5,3.9,19,7.7,28.6,11.1c15.4,5.7,31,11.2,46.6,16.3
						c33.5,10.9,67.6,20.2,102,27.7c67.2,14.6,135.5,23.6,204.1,28.3c66.8,4.6,133.6,5.7,200.6,5.3c-0.5-3.1-2.1-5.7-4.9-7.7
						c-7.8-8-15.8-15.7-24-23.3c-8.1-7.7-16.3-15.1-24.8-22.4c-2.2-2.6-4.9-4.1-8-4.4c-58.8-1.4-117.6-4.3-176.2-10.7
						c-58.8-6.4-117.4-16-174.6-30.9c-28.7-7.5-57.1-15.9-85-26c-25.6-9.3-50.8-19.7-75.7-30.5c-8.8-3.9-17.7-7.7-26.6-11.4
						c-6.4-2.8-12.7-5.6-19.1-8.4c-6.3-3.3-12.3-7.4-18-11.5c-5.5-4-10.8-8.3-15.4-13.2c-1.6-1.9-3.2-3.7-4.9-5.6
						c-2.8-3.4-5.1-7.1-7-11.1c0.4,0.8,0.7,1.7,1.1,2.5c-1.1-2.6-2.1-5.2-3.2-7.8c0.3,0.8,0.6,1.7,0.9,2.5
						c-1.2-3.8-2.4-7.6-3.7-11.4c0.2,0.9,0.4,1.8,0.6,2.6c-0.4-2.4-0.9-4.8-1.3-7.2c-0.2-0.9-0.3-1.8-0.5-2.7
						c-0.7,0.6-1.4,1.2-2.1,1.8c-1.1,2.1-2.2,4.2-3.2,6.3c-3.1,7.8-6.1,15.6-8.8,23.5c-4.4,12.1-8.6,24.3-12.5,36.5
						c-1.3,3.4-2.3,6.9-2.9,10.5C442.8,175.9,442.7,177.9,443.4,180z"/>
					<path id="XMLID_200_" class="st6" d="M446.1,154.4c-0.2,6.9-0.5,13.7-0.7,20.6c0.3,0.5,0.6,1,0.9,1.4c1.6,2.3,3.4,4.6,5.2,6.8
						c2.4,1.7,4.9,3.3,7.3,5c4.3,3.4,8.8,6.5,13.5,9.3c5,3.2,10.2,6.1,15.5,8.7c11.1,5.5,22.7,10.2,34.3,14.4
						c7.5,2.7,15.1,5.1,22.6,7.5c6.6,1.9,13.1,4.1,19.4,6.7c9.9,3.7,19.8,7.3,29.7,10.9c37.1,13.4,74.7,25.4,113,34.7
						c73.8,18,149.1,28.9,224.9,34.4c73.3,5.4,146.7,6.3,220.1,5.6c1.7,0.3,2.3-0.3,1.8-2c-1.6-3.1-3.8-5.7-6.5-7.9
						c-4.6-4.6-9.4-9-14.3-13.3c-2.4-2.6-5.2-4.5-8.4-5.9c-62.8,0-125.7-1.2-188.4-5.9c-63.8-4.8-127.6-12.7-190.2-26.5
						c-30.3-6.7-60.4-14.4-90-23.6c-15.1-4.7-30-9.8-44.8-15.3c-15.5-5.7-30.9-11.7-46.4-17.3c-22.6-8.2-45.4-15.4-66.5-27.1
						c-7.4-4.1-15-8.7-21.4-14.3c-5.9-5.2-11.1-11-16.3-16.8c0.4,0.4,0.7,0.9,1.1,1.3c-0.5-2.3-1-4.5-1.5-6.8c0,1.1-0.1,2.2-0.1,3.3
						c1-8.4,2.1-16.9,3.1-25.3c0.1-1.3,0.2-2.5,0.3-3.8c-0.3-0.5-0.6-1.1-0.9-1.6c-0.6,0.2-1.1,0.5-1.7,0.7c-1.6,2-2.8,4.2-3.6,6.7
						c-2.6,6.2-4.8,12.6-7,18.9C448.5,143.3,446.2,148.8,446.1,154.4z"/>
					<path id="XMLID_199_" class="st6" d="M446.7,194.3c3.1,1.9,5.9,4.1,8.3,6.8c3.3,3.4,6.8,6.6,10.6,9.5
						c7.4,5.6,15.4,10.3,23.6,14.5c18.7,9.6,38.6,16.8,58.5,23.5c6.7,1.9,13.1,4.4,19.4,7.3c9.3,4,18.6,7.7,28.1,11.2
						c15.3,5.7,30.7,11.2,46.3,16.3c33.4,10.9,67.3,20.1,101.6,27.5c67,14.5,135,23.3,203.4,28c66.6,4.6,133.3,5.6,200,5.2
						c-1.3-4.1-3.7-7.4-7.2-10.2c-10.7-11-21.6-21.9-32.7-32.5c-11-10.8-22.1-21.3-33.5-31.7c-2.8-3.4-6.3-5.7-10.4-6.9
						c-63.7-2.5-127.3-6.9-190.5-15.9c-62.6-9-125-22.2-185.1-42.1c-27.2-9-53.9-19.3-80.2-30.7c-16-7-31.8-14.6-47.5-22.3
						c-5.4-2.7-10.9-5.3-16.3-8c-8.3-3.1-15.8-7.5-22.5-13c-8.7-6.9-16.8-14.6-22.8-24.1c-2.8-4.4-4.9-9.4-6.1-14.4
						c-0.3-1.5-0.7-3-1-4.5c-0.7-2.7-2-5-4.1-6.8c-3.2,3-5.3,6.7-6.3,11.1c-5.7,14.8-11.1,29.6-16.3,44.6
						c-5.3,14.9-10.4,29.9-15.2,45C446.7,185.7,446.1,189.9,446.7,194.3z"/>
					<path id="XMLID_198_" class="st6" d="M449.6,142.3c-0.9,7.2-9.5,35,2.6,43.7c2.9,1.5,5.9,3.1,8.8,4.6c7.7,3,15.2,6.4,22.5,10.2
						c5.8,3.1,11.7,5.9,17.7,8.4c5.8,2.7,11.8,5.1,17.9,7.1c15.1,5.4,30.6,9.7,46,14.2c-0.5-0.1-1-0.3-1.4-0.4
						c25.3,9.8,50.6,19.5,76.5,27.8c25,8,50.3,15.1,75.9,21.2c49.5,11.9,99.8,20.2,150.3,26c97.8,11.3,196.3,12.8,294.6,11.6
						c5.3-0.1-1.8-7.4-2.2-7.9c-3.1-3.3-6.3-6.5-9.7-9.5c-1.6-1.9-3.7-3.2-6-3.9c-62.7,0.5-125.4-0.2-188-4.1
						c-63.8-3.9-127.7-10.9-190.5-23.3c-30.7-6-61.1-13.2-91.1-21.9c-15.4-4.5-30.7-9.3-45.9-14.5c-15.4-5.2-30.5-11.1-45.6-17
						c-8.1-3.7-16.4-6.8-24.9-9.3c-5.4-1.7-10.8-3.4-16.2-5.2c-9.1-3-18.2-6.1-27.1-9.9c-3.7-1.4-7.2-3.1-10.6-5
						c-5.4-2.7-10.7-5.6-15.9-8.7c-3.7-1.8-7.4-3.6-11.1-5.4c-6.2-1.5-12.3-3.4-18.3-5.8c0.5,0.9,1.1,1.8,1.6,2.8
						c-1-5.7-2-11.3-2.9-17c0.1,0.8,0.2,1.5,0.2,2.3c1.8-11.1,3.6-22.1,5.5-33.2c0.5-1.6,0.2-2.9-1.1-3.9c-1.6,0-2.7,0.8-3.3,2.4
						c-1.8,3.8-3.4,7.6-4.7,11.6C451.7,134.2,450.6,138.2,449.6,142.3z"/>
					<path id="XMLID_197_" class="st6" d="M453.1,156.8c-4.1,8.4-4,15.7,0.3,21.8c1.8,2.1,3.6,4.2,5.3,6.2
						c5.4,3.7,10.6,7.4,15.8,11.3c4.8,3.3,9.9,6.2,15.1,8.8c23.1,12.1,47.9,20,72.7,27.5c-0.6-0.2-1.1-0.4-1.7-0.6
						c38.3,14.1,76.6,28.3,115.9,39.4c42.8,12.1,86.3,21.8,130.2,28.9c55.6,9,111.6,14.5,167.8,17.7c60.8,3.5,121.8,3.9,182.7,3.3
						c1.9,0.5,2.5-0.2,1.8-2c-2-3.5-4.6-6.5-7.7-9c-5.4-5.3-11-10.4-16.6-15.4c-2.8-2.9-6-5.3-9.6-7c-98.6-0.1-197.4-3.6-295.2-18
						c-48.2-7.1-96.1-16.9-143-30.1c-23.9-6.7-47.6-14.3-71-22.8c-9.3-3.4-18.5-6.9-27.8-10.3c-13.8-5.1-27.7-9.8-41.7-14.6
						c0.6,0.2,1.1,0.4,1.7,0.6c-3.7-1.3-7.5-2.7-11.2-4c0.6,0.2,1.1,0.4,1.7,0.6c-3.8-1.5-7.6-2.9-11.4-4.4c0.5,0.2,1.1,0.4,1.6,0.7
						c-3.8-1.6-7.6-3.2-11.4-4.8c0.5,0.2,1.1,0.5,1.6,0.7c-3.7-1.8-7.5-3.5-11.2-5.3c0.5,0.3,1,0.5,1.6,0.8
						c-3.6-1.9-7.2-3.9-10.8-5.8c0.5,0.3,1,0.6,1.5,0.9c-3.4-2.1-6.7-4.2-10.1-6.3c0.5,0.3,1,0.6,1.5,1c-3-2.2-6-4.4-9-6.6
						c0.5,0.4,0.9,0.7,1.4,1.1c-3.2-2.5-6.2-5.3-8.9-8.3c-2.4-2.6-4.8-5.2-7.2-7.8c0.4,0.5,0.7,0.9,1.1,1.4
						c-0.5-2.1-1.1-4.2-1.6-6.3c0,1.2-0.1,2.3-0.1,3.5c1-8.2,2-16.4,3-24.6c0.1-1.3,0.2-2.6,0.4-3.9c-0.3-0.5-0.6-1.1-0.9-1.6
						c-0.6,0.2-1.1,0.5-1.7,0.7c-1.6,2.1-2.9,4.3-3.7,6.9c-2.7,6.4-4.9,12.9-7.1,19.4c-1.1,3-2,6-2.9,9.1
						C453.6,151.7,453.1,154.2,453.1,156.8z"/>
					<path id="XMLID_196_" class="st6" d="M443.7,168.6c0.1,4.6,0.9,9,2.4,13.2c0.7,2.9,2.9,4.6,6.6,5.2c3.6,3.3,7.4,6.4,11.3,9.2
						c4.2,3.4,8.8,6.4,13.6,9c17,9.7,35.2,17,53.6,23.6c7,2.4,14,4.8,21,7.1c6.6,2.6,13.2,5.2,19.8,7.8
						c18.7,7.2,37.7,14.1,56.7,20.4c33.7,11.1,67.8,20.7,102.4,28.5c136,30.8,275.9,36.1,414.8,35.2c-0.1-2.6-1.3-4.8-3.6-6.5
						c-6.2-6.4-12.5-12.6-19.1-18.6c-6.5-6.1-13.1-12-19.9-17.7c-1.9-2.2-4.1-3.2-6.7-3.1c-116-1.8-232.4-9.2-345.8-35.1
						c-26.4-6-52.6-13-78.4-21.1c-29.2-9.1-57.9-19.9-86.2-31.4c-15.5-6.3-31-12.5-46.6-18.7c-5-1.7-9.7-3.7-14.3-6.1
						c-4.2-2-8.4-4.2-12.4-6.6c-5.4-3.1-10.6-6.4-15.6-10.1c-3.6-2.5-6.9-5.3-10.1-8.4c-3-2.6-5.8-5.6-8.3-8.7
						c0.4,0.6,0.9,1.2,1.3,1.8c-1.8-2.6-3.6-5.1-5.4-7.7c0.4,0.6,0.8,1.3,1.2,1.9c-1.4-2.6-2.8-5.1-4.2-7.7c0.3,0.7,0.7,1.4,1,2
						c-1.1-2.3-2.1-4.6-3.2-6.9c0.3,0.7,0.6,1.4,0.9,2.1c-0.8-2.2-1.6-4.3-2.4-6.5c0.2,0.7,0.5,1.5,0.7,2.2
						c0.1-3.9,0.1-7.8,0.2-11.6c0-2.7-0.9-3-2.5-0.9c-3,5-5.4,10.3-7.1,15.9c-3.9,10.4-7.6,20.9-11.1,31.5
						C445.9,157.2,444.4,162.8,443.7,168.6z"/>
				</g>
			</g>
		</g>
		<g id="XMLID_4_">
			<g id="XMLID_182_">
				<g id="XMLID_183_">
					<path id="XMLID_192_" class="st6" d="M609.3,218.3c2.9,4.1,5.7,8.2,8.6,12.3c3.4,2.4,6.7,4.9,10.1,7.3
						c7.9,5.6,15.9,10.8,24.5,15.3c9.1,4.8,18.6,9,28.2,12.8c9.9,3.9,20,7.3,30.2,10.3c20.6,6.1,41.6,10.2,62.7,13.7
						c13,2.2,26.1,4.2,39.2,5.7c16.3,1.9,32.7,3.1,49.1,4c25.3,1.4,50.7,2.2,76,3.3c27.2,1.2,54.3,3.4,81.4,5.1
						c27.2,1.7,54.5,3,81.8,3.2c13.8,0.1,27.5-0.1,41.2-0.6c6.9-0.2,13.9-0.5,20.8-1.1c10.5-0.6,20.9-1.5,31.3-2.7
						c-0.6-3-2.2-5.4-4.9-7.2c-7.7-7.2-15.7-14.1-23.8-20.9c-8-6.9-16.2-13.5-24.6-20c-2.2-2.4-4.8-3.6-7.9-3.7
						c-13.2,0.7-26.4,1.2-39.7,1.3c-13.2,0.1-26.4-0.1-39.6-0.5c-26.4-0.8-52.9-2.6-79.2-4.8c-26.4-2.2-52.7-5.1-79.1-7.4
						c-23.3-2-46.6-3.7-69.8-6.5c-23-2.8-45.7-6.6-68.2-12.2c-18.6-4.6-37.3-9.6-55.3-16.4c-16.5-6.2-32.7-13.6-47.6-22.9
						c-7.1-4.3-13.7-9.2-20.1-14.5c-5.4-4.7-10.4-9.8-15-15.2c0.4,0.7,0.9,1.3,1.3,2c-2.1-4.6-4.3-9.3-6.4-13.9
						c-0.4-0.7-0.8-1.4-1.2-2.1c-0.5,0.6-1,1.3-1.5,1.9c-0.4,2-0.8,4-1.3,5.9c-0.8,7.1-1.3,14.1-1.7,21.2
						c-0.7,10.9-1.3,21.9-1.5,32.8c-0.3,3.1-0.2,6.2,0.2,9.2C607.5,215.2,608,216.9,609.3,218.3z"/>
					<path id="XMLID_191_" class="st6" d="M605.3,250c3.1,1.3,6.2,2.6,9.4,4c3.5,2.9,7,5.7,10.5,8.6c4,2.7,7.9,5.3,11.9,8
						c4.3,2.4,8.7,4.9,13,7.3c18.6,9.7,38.5,16.9,58.6,22.7c20.5,5.9,41.4,10,62.4,13.3c13,2.1,26.1,4.1,39.2,5.5
						c16.2,1.8,32.5,2.9,48.8,3.8c25.1,1.4,50.3,2.1,75.4,3.2c27.1,1.2,54.1,3.5,81.1,5.2c27.2,1.7,54.4,3,81.6,3.1
						c13.7,0.1,27.4-0.2,41.1-0.7c6.9-0.2,13.8-0.6,20.7-1.2c10.4-0.6,20.8-1.6,31.2-2.8c-2-4.5-5.1-8.3-9.2-11.3
						c-13.2-12.5-26.5-24.7-40.1-36.8c-13.5-12.2-27.1-24.1-40.9-35.9c-3.4-3.8-7.5-6.4-12.3-7.9c-25.9,0-51.7-0.6-77.5-2.3
						c-25.9-1.7-51.8-4.1-77.6-7c-25.6-2.9-51.1-6.7-76.5-10.5c-24.3-3.7-48.5-7.7-72.4-13.4c-10.3-2.5-20.4-5.3-30.5-8.5
						c-9.8-3.1-19.3-6.7-28.9-10.4c-15-5.9-29.6-12.7-43.6-20.8c-13-7.5-25.3-16-36.6-25.9c-5.4-4.7-10.4-9.7-15-15.2
						c-2.2-2.5-4.3-5.1-6.3-7.8c-2.1-3.9-5.4-6.3-9.9-7.2c-2.3,4.5-3.3,9.4-3.1,14.7c-1.5,18.6-2.7,37.2-3.6,55.8
						c-1.1,18.6-1.9,37.2-2.4,55.8C603,240.2,603.5,245.2,605.3,250z"/>
					<path id="XMLID_190_" class="st6" d="M602,203.5c2.7,7,5.4,14.1,8.1,21.1c0.4,0.5,0.9,1,1.3,1.5c3.3,2.5,6.6,4.9,10,7.4
						c3.9,2.6,7.8,5.3,11.7,7.9c4.3,2.5,8.6,4.9,13,7.4c6.9,3.7,14,6.9,21.2,9.8c9.9,4.1,19.9,7.7,30.2,10.9
						c20.7,6.5,41.8,11.2,63.2,14.7c12.5,2,25,4.1,37.5,5.6c16.5,2.1,33,3.5,49.6,4.5c25.6,1.5,51.3,2.1,77,3
						c26.9,1,53.7,2.9,80.5,4.6c30.7,1.9,61.4,3.5,92.2,3.7c13.8,0.1,27.5-0.1,41.3-0.7c6.9-0.2,13.9-0.6,20.8-1.1
						c10.5-0.6,21-1.6,31.4-2.8c0-2.3-1-4.2-3.1-5.6c-5.4-5.2-11.1-10.2-16.9-14.9c-5.7-4.9-11.6-9.5-17.7-14
						c-1.8-1.8-3.8-2.5-6.1-2.1c-13.4,1-26.8,1.7-40.3,2c-13.4,0.3-26.7,0.3-40.1,0c0.7,0,1.3,0,2,0.1c-7.3-0.2-14.7-0.4-22-0.6
						c0.7,0,1.3,0.1,2,0.1c-7.3-0.3-14.7-0.7-22-1c0.7,0,1.3,0.1,2,0.1c-7.3-0.4-14.7-0.8-22-1.3c0.7,0,1.3,0.1,2,0.1
						c-7.3-0.5-14.7-1-22-1.5c0.7,0,1.3,0.1,2,0.1c-7.4-0.5-14.7-1.1-22.1-1.6c0.7,0.1,1.3,0.1,2,0.2c-7.4-0.6-14.7-1.2-22.1-1.8
						c0.7,0.1,1.3,0.1,2,0.2c-19.9-1.7-39.8-3.3-59.8-4.5c-12-0.7-24-1.5-36-2.4c-18.2-1.3-36.5-2.9-54.6-5.6
						c-14.9-2.2-29.6-5-44.3-8.3c-12.3-2.8-24.7-5.5-36.8-9.1c-11.6-3.5-22.9-7.4-34.1-11.9c-10.9-4.4-21.6-9.4-31.8-15.3
						c-3.9-2.4-7.7-4.7-11.6-7.1c-7-4.6-13.6-9.8-19.7-15.6c0.5,0.5,0.9,0.9,1.4,1.4c-9.7-8.3-14.2-19.3-13.5-33
						c-0.8-2.1-1.7-2.1-2.7-0.1c-1.4,4.6-2.2,9.3-2.2,14.1c-0.7,9.1-1.2,18.2-1.5,27.3C600.8,194,601,198.8,602,203.5z"/>
					<path id="XMLID_189_" class="st6" d="M598.1,223.5c2.9,3.2,5.9,6.3,8.8,9.5c3.4,2.6,6.7,5.2,10.1,7.9
						c7.7,5.7,15.9,10.8,24.4,15.3c18.4,9.8,38.2,17.1,58.1,23.1c20.5,6.1,41.3,10.3,62.4,13.8c13,2.2,26,4.3,39.1,5.8
						c16.3,1.9,32.6,3.1,48.9,4.1c25.2,1.5,50.5,2.3,75.8,3.4c27.1,1.2,54.2,3.5,81.3,5.2c27.2,1.7,54.5,3,81.7,3.3
						c13.7,0.1,27.5-0.1,41.2-0.6c6.9-0.2,13.8-0.5,20.7-1.1c10.5-0.6,20.9-1.5,31.3-2.7c-0.7-3.1-2.4-5.6-5.3-7.5
						c-8.2-7.6-16.5-14.9-25-22c-8.4-7.3-17-14.3-25.8-21.1c-2.3-2.5-5-3.8-8.2-4c-13.3,0.4-26.5,0.9-39.8,0.8
						c-13.2,0-26.5-0.3-39.7-0.9c-26.5-1.1-52.9-3-79.3-5.4c-26.4-2.3-52.8-5.5-79.1-8.2c-26.2-2.7-52.4-5.2-78.4-9.4
						c-11.5-1.9-22.9-4-34.2-6.6c-11.1-2.6-22-5.6-32.8-8.9c-17.7-5.4-35.1-11.3-52-19.1c-15.7-7.2-30.7-15.6-44.6-26
						c-6.4-4.8-12.4-9.9-17.9-15.6c-2.6-2.5-4.9-5.1-7.1-7.9c-3.8-4.3-7.1-9-9.7-14.2c-2.1,2.6-3,5.7-2.8,9.2
						c-1.1,11.7-2,23.4-2.5,35.1c-0.7,11.7-1.2,23.5-1.3,35.2C595.7,217.6,596.3,220.7,598.1,223.5z"/>
					<path id="XMLID_188_" class="st6" d="M599.6,197.8c2.7,8.2,5.4,16.5,8.1,24.7c1.8,1.5,3.7,3,5.6,4.4c5.6,4.5,9.4,6.9,16,11.2
						c4.7,3,9.7,5.8,14.6,8.3c11.8,6.1,24.1,11.1,36.6,15.5c23.2,8.2,47.3,14.1,71.6,18.3c24.6,4.2,49.4,7.6,74.3,9.5
						c22.9,1.7,45.9,2.5,68.9,3.2c15.7,0.5,31.4,0.7,47,1.5c13.9,0.7,27.7,1.6,41.6,2.5c34.2,2.1,68.4,4.4,102.6,4.8
						c13.8,0.1,27.5,0.1,41.3-0.3c10.4-0.3,20.8-0.8,31.2-1.6c10.5-0.6,21-1.6,31.5-2.9c1.7,0.3,2.3-0.4,1.7-2.1
						c-1.8-3-4.1-5.5-7-7.6c-4.9-4.3-10-8.5-15.2-12.6c-2.6-2.4-5.5-4.3-8.8-5.4c-20.3,1.6-40.5,2.9-60.9,3.1
						c-13.4,0.1-26.9,0-40.3-0.3c-37-0.9-74-3.7-110.8-6.4c-16.1-1.2-32.2-2.1-48.3-2.9c-15.3-0.7-30.7-1.3-46-2.2
						c-15.6-0.9-31.3-2-46.9-3.7c-6.2-0.8-12.5-1.6-18.7-2.3c-12.8-1.9-25.5-4.1-38.1-6.8c0.6,0.1,1.1,0.2,1.7,0.3
						c-5.5-1.1-11-2.2-16.4-3.3c0.5,0.1,1.1,0.3,1.6,0.4c-5.5-1.3-10.9-2.6-16.4-3.9c0.5,0.1,1.1,0.3,1.6,0.4
						c-5.4-1.5-10.9-3-16.3-4.5c0.5,0.2,1.1,0.3,1.6,0.5c-5.4-1.7-10.7-3.5-16.1-5.2c0.5,0.2,1.1,0.4,1.6,0.6
						c-5.3-1.9-10.5-3.9-15.8-5.8c0.5,0.2,1,0.4,1.6,0.6c-5.1-2.2-10.2-4.3-15.3-6.5c0.5,0.2,1,0.5,1.5,0.7
						c-4.9-2.4-9.8-4.8-14.7-7.2c0.5,0.3,1,0.5,1.5,0.8c-4.7-2.6-9.3-5.2-14-7.9c0.5,0.3,1,0.6,1.5,0.8c-5.8-3.4-11.2-7.2-16.5-11.4
						c-4.8-3.2-9-7.2-12.4-11.9c0.3,1,0.6,2.1,0.9,3.1c-2.5-11.3-5.1-22.7-7.6-34c-0.8-1.7-1.7-1.7-2.7-0.1c-1.4,3.5-2.1,7.2-2,11
						c-0.6,7.1-1,14.3-1.2,21.4C598.4,190.5,598.6,194.2,599.6,197.8z"/>
					<path id="XMLID_187_" class="st6" d="M601.8,238.5c3.1,1.8,6.1,3.7,9.2,5.5c3.5,2.8,6.9,5.6,10.4,8.4c3.9,2.6,7.9,5.3,11.8,7.9
						c4.3,2.4,8.6,4.8,12.9,7.3c18.4,9.6,38.2,16.9,58.1,22.7c20.4,5.9,41.1,10,62,13.4c13,2.1,25.9,4.1,39,5.6
						c16.2,1.8,32.4,3,48.6,3.9c25.1,1.4,50.2,2.2,75.3,3.4c27,1.3,54,3.5,81.1,5.3c27.2,1.7,54.3,3,81.6,3.2
						c13.7,0.1,27.4-0.1,41.1-0.7c6.9-0.2,13.8-0.6,20.7-1.1c10.4-0.6,20.8-1.5,31.2-2.7c-1.4-4-4-7.3-7.6-9.8
						c-11.1-10.5-22.4-20.8-33.9-30.9c-11.4-10.2-23-20.2-34.7-30c-3-3.3-6.5-5.4-10.6-6.4c-13,0.2-26.1,0.3-39.1,0
						c-13-0.3-26.1-0.8-39.1-1.5c-26.1-1.4-52.2-3.7-78.3-6.4c-25.9-2.7-51.7-6.3-77.5-9.7c-25-3.3-49.9-6.8-74.6-12
						c-10.7-2.3-21.3-4.8-31.8-7.8c-10.2-2.9-20.3-6.3-30.3-9.9c-16-5.7-31.6-12.3-46.6-20.3c-13.9-7.4-27.2-15.9-39.4-26
						c-5.8-4.7-11.1-9.8-16.1-15.3c-2.4-2.5-4.6-5.1-6.7-7.9c-2.6-3.8-5.9-6.9-10-9.2c-2.2,3.8-3.2,8-3,12.6
						c-1.4,15.9-2.4,31.9-3.2,47.8c-0.9,15.9-1.6,31.9-2,47.9C599.5,230.2,600,234.4,601.8,238.5z"/>
					<path id="XMLID_186_" class="st6" d="M602.2,186c-0.3,14.2,2.5,27.3,8.5,39.4c7.9,5.3,16.3,9.7,25.1,13.3
						c-0.5-0.2-0.9-0.4-1.4-0.6c4.6,2.5,9.2,5,13.8,7.5c4.8,2.3,9.7,4.5,14.5,6.8c8.3,3.7,15.5,6.1,23.8,8.9
						c10.6,3.6,21.3,6.6,32.1,9.3c13.3,3.3,26.7,6,40.2,8.2c5.5,0.8,10.9,1.6,16.4,2.4c6.8,1,13.6,2,20.4,2.9
						c16.7,2.1,33.5,3.3,50.3,4.2c25.9,1.4,51.9,1.8,77.8,2.4c16.3,0.4,32.6,1,48.8,1.9c13.8,0.8,27.5,1.6,41.3,2.4
						c27.3,1.6,54.6,2.9,81.9,3.3c17.2,0.2,34.4-0.1,51.6-1c7-0.2,13.9-0.7,20.8-1.3c10.5-0.7,21-1.7,31.4-3.1
						c5.2-0.6-2-7.2-2.6-7.8c-3.3-3.2-6.7-6.3-10.3-9.2c-1.8-1.9-3.8-3.1-6.3-3.7c-13.5,1.5-27.1,2.6-40.6,3.3
						c-13.5,0.7-26.9,1.1-40.4,1.1c-26.8,0.1-53.6-1-80.4-2.5c-27-1.5-54-3.6-81.1-4.8c-24.2-1.1-48.5-1.4-72.8-2.3
						c-25.3-1-50.7-2.4-75.8-5.8c-11.6-1.8-23.3-3.6-34.9-5.5c-10.4-1.8-20.7-4-30.9-6.5c-20.3-5-40.6-11.3-59.6-20
						c-9.2-4.4-18.1-9.2-26.9-14.5c-4.5-2.2-9.2-3.9-14-5.2c0.4,0.2,0.9,0.4,1.3,0.6c-3.4-1.9-6.7-3.8-10.1-5.6
						c0.3,0.6,0.6,1.2,0.9,1.8c-2.4-14.8-4.7-29.7-7.1-44.5c0-1.7-0.7-2.8-2.1-3.4c-1.5,0.4-2.3,1.5-2.5,3.1
						c-0.7,4.1-1.1,8.2-1.3,12.3C602,177.8,601.9,181.9,602.2,186z"/>
					<path id="XMLID_185_" class="st6" d="M606.6,200.9c9.1,26.4,2.3,20.2,19.4,31.6c3.9,2.6,7.9,5.2,11.8,7.8
						c4.4,2.4,8.7,4.9,13.1,7.3c7,3.6,14.1,6.9,21.5,9.7c7.4,3.2,15,6,22.7,8.4c13,4.2,26.2,7.7,39.5,10.6
						c13.3,2.9,26.6,5.2,40.1,7.2c6.6,1,13.2,2,19.8,3c9.9,1.4,19.9,2.4,29.8,3.2c35.6,3.1,71.4,3.8,107.1,4.8c-0.6,0-1.2,0-1.8-0.1
						c47.4,1.7,94.6,6,142,7.5c20.6,0.6,41.2,0.8,61.7,0.2c13.9-0.4,27.8-1.2,41.6-2.3c7-0.7,14-1.4,21-2.1c1.9,0.4,2.5-0.3,1.7-2.1
						c-2.2-3.4-5-6.3-8.2-8.7c-5.7-5-11.6-9.9-17.6-14.6c-3-2.8-6.3-5-10-6.5c-13.4,1.2-26.9,2-40.3,2.5
						c-13.4,0.4-26.8,0.6-40.2,0.4c-20-0.3-40.1-1-60.1-2.2c-20.1-1.1-40.2-2.5-60.3-4c-13.4-1.1-26.7-2-40.1-2.8
						c-12.6-0.6-25.1-1.2-37.7-1.7c0.6,0,1.2,0.1,1.8,0.1c-25.1-1.3-50.3-2.5-75.3-5.3c-20.7-2.3-40.9-6.2-61.3-10.2
						c-17-3.4-33.8-7.6-50.1-13.2c-9.3-3.1-18.4-6.7-27.4-10.7c-8.7-3.9-17.1-8.2-25.2-13.1c0.5,0.3,1,0.6,1.5,0.9
						c-4.2-2.8-8.5-5.6-12.7-8.4c0.5,0.3,1,0.7,1.4,1c-6.1-4.2-11.8-8.9-17.1-14.1c0.3,1.1,0.6,2.2,0.9,3.3
						c-2.5-11-5.1-22.1-7.6-33.1c-0.8-1.7-1.7-1.8-2.7-0.1c-1.4,3.7-2.1,7.6-2,11.6c-0.6,7.5-1,15-1.2,22.6
						C605.4,193.1,605.6,197,606.6,200.9z"/>
					<path id="XMLID_184_" class="st6" d="M597.4,212c2.8,4.8,5.6,9.6,8.4,14.3c0.4,0.6,0.9,1.2,1.3,1.8c3.4,2.4,6.7,4.7,10.1,7.1
						c3.9,2.7,7.7,5.4,11.6,8.1c4.3,2.5,8.6,4.9,12.8,7.4c6.8,3.7,13.8,6.9,21,9.8c9.8,4.1,19.7,7.8,29.8,11
						c20.5,6.5,41.4,11.3,62.6,14.9c12.4,2.1,24.8,4.2,37.3,5.8c16.4,2.1,32.8,3.7,49.3,4.7c25.5,1.6,51.1,2.4,76.7,3.4
						c26.8,1.1,53.6,3.1,80.4,4.8c30.7,2,61.3,3.6,92.1,3.8c13.8,0.1,27.5-0.1,41.3-0.6c6.9-0.2,13.9-0.5,20.8-1.1
						c10.5-0.6,20.9-1.5,31.4-2.7c-0.2-2.6-1.6-4.7-3.9-6.3c-6.5-6.1-13.2-12-20-17.6c-6.8-5.8-13.7-11.4-20.8-16.7
						c-2-2.1-4.3-3-6.9-2.8c-13.4,0.8-26.7,1.3-40.1,1.4c-13.3,0.1-26.6,0-40-0.4c-26.6-0.8-53.2-2.5-79.8-4.6
						c-26.6-2.1-53.2-5-79.8-7.2c-23.7-2-47.5-3.6-71.2-6.4c-23.7-2.8-47.1-6.7-70.3-12.5c-19.3-4.8-38.6-10.1-57.2-17.2
						c-17.1-6.6-33.8-14.4-49.3-24.2c-7.3-4.5-14.1-9.6-20.6-15.2c-5.4-4.9-10.5-10.1-15.4-15.6c0.4,0.6,0.9,1.2,1.3,1.8
						c-2.1-5.3-4.2-10.6-6.3-15.9c-0.8-2.5-1.7-2.6-2.7-0.1c-1.5,5.6-2.3,11.2-2.3,17c-0.8,11-1.4,21.9-1.8,32.9
						C596.4,200.6,596.5,206.4,597.4,212z"/>
				</g>
			</g>
		</g>
		<g id="XMLID_5_">
			<g id="XMLID_170_">
				<g id="XMLID_171_">
					<path id="XMLID_180_" class="st6" d="M763.7,239.5c11.2,5.5,22.8,9.9,34.9,13c12.1,3.9,24.3,7.4,36.6,10.6
						c18.9,4.9,37.9,9.3,57,13.1c42,8.5,84.5,14.7,127.1,18.9c42.9,4.3,86,6.6,129.1,6.8c19.9,0.1,39.8-0.2,59.8-0.9
						c26.6-0.9,53.1-2.9,79.6-5.2c-0.6-3-2.2-5.4-5-7.1c-7.8-7.1-15.8-14-23.9-20.7c-8.1-6.8-16.3-13.4-24.7-19.8
						c-2.2-2.4-4.9-3.6-7.9-3.6c-22.3,1.1-44.5,1.9-66.8,2c-19.1,0.1-38.2-0.2-57.3-0.9c-41.3-1.6-82.6-5-123.6-10.3
						c-37.7-4.9-75.2-11.5-112.4-19.7c-18.4-4.1-36.7-8.7-54.8-13.7c-11.8-3.3-23.5-7-35.1-11.1c-10.4-3.8-20.6-8.1-30.6-12.8
						c0.7,0.4,1.4,0.8,2.1,1.2c-6.2-3.8-12.4-7.5-18.6-11.3c-0.7,2.9-0.2,5.8,1.5,8.5c4.1,9.7,8.5,19.2,13.1,28.6
						c4.5,9.5,9.2,18.9,14.2,28.1C759,236.1,760.9,238.2,763.7,239.5z"/>
					<path id="XMLID_179_" class="st6" d="M762.2,269.2c11.6-0.1,22.7,2.4,33.2,7.3c12.2,3.8,24.4,7.3,36.8,10.5
						c18.9,4.8,37.9,9.2,56.9,13c41.9,8.4,84.3,14.5,126.8,18.6c42.8,4.2,85.7,6.4,128.7,6.6c19.9,0.1,39.7-0.3,59.5-1
						c26.5-1,52.9-3,79.2-5.4c-2-4.5-5.1-8.3-9.3-11.2c-13.3-12.3-26.7-24.4-40.4-36.3c-13.5-12-27.3-23.8-41.2-35.4
						c-3.5-3.8-7.6-6.4-12.3-7.8c-24.9,0.2-49.7,0.1-74.6-1c-18.6-0.8-37.2-2-55.8-3.5c-40.2-3.4-80.2-8.7-119.9-15.7
						c-39.5-7-78.8-15.7-117.5-26.5c-17.5-4.9-35-10.3-52.1-16.4c-10.9-3.8-21.6-8.2-32-13.3c-8.1-5.6-17.1-8.7-26.9-9.1
						c0.1,5.1,1.6,9.8,4.3,14.3c7.6,16.9,15.4,33.7,23.5,50.4c7.9,16.7,16.1,33.3,24.6,49.8C755.5,261.8,758.4,265.9,762.2,269.2z"
						/>
					<path id="XMLID_178_" class="st6" d="M753.4,225.1c6.4,8.1,14.1,13.7,23.1,16.8c5.7,2.1,11.6,3.8,17.5,5.3
						c-0.6-0.2-1.3-0.4-1.9-0.6c12.9,4,25.5,7.7,38.6,11.2c18.9,4.9,38,9.2,57.1,13c42.1,8.4,84.7,14.5,127.4,18.7
						c43,4.2,86.2,6.4,129.4,6.6c20,0.1,39.9-0.3,59.9-1.1c26.6-1,53.2-3,79.7-5.4c0-2.3-1.1-4.2-3.2-5.6
						c-5.5-5.2-11.2-10.1-17-14.8c-5.8-4.9-11.7-9.5-17.8-13.9c-1.8-1.8-3.8-2.5-6.1-2c-25.8,1.6-51.5,2.9-77.3,3.2
						c-29,0.4-58.1-0.2-87-1.7c-25.8-1.3-51.5-3.4-77.1-6.2c-28.8-3.2-57.4-7.4-86-12.2c0.7,0.1,1.3,0.2,2,0.4
						c-7-1.3-13.9-2.6-20.9-3.9c0.7,0.1,1.3,0.3,2,0.4c-6.9-1.4-13.9-2.8-20.8-4.2c0.6,0.1,1.3,0.3,1.9,0.4
						c-6.9-1.5-13.8-3-20.7-4.5c0.6,0.1,1.3,0.3,1.9,0.4c-6.9-1.6-13.7-3.2-20.6-4.8c0.6,0.2,1.3,0.3,1.9,0.5
						c-18.2-4.6-36.7-9.1-54.5-15.2c-5.6-2-11.2-4-16.8-6c-15.1-4.7-27.4-13.7-36.9-27c-1.7-1.5-2.5-1.1-2.4,1.2
						c1,4.8,2.6,9.3,5,13.6c3.8,8.4,7.8,16.8,12,25C747.8,217.2,750.3,221.4,753.4,225.1z"/>
					<path id="XMLID_177_" class="st6" d="M752.2,243.6c11.2,4.6,22.7,8.6,34.4,11.9c12.1,3.9,24.2,7.5,36.5,10.7
						c18.8,4.9,37.8,9.3,56.9,13.2c42,8.5,84.4,14.7,126.9,19c42.8,4.3,85.9,6.6,128.9,6.9c19.9,0.1,39.8-0.2,59.7-0.9
						c26.5-0.9,53-2.9,79.4-5.2c-0.7-3.1-2.5-5.6-5.3-7.4c-8.2-7.5-16.6-14.8-25.2-21.8c-8.5-7.2-17.1-14.1-25.9-20.9
						c-2.3-2.5-5.1-3.8-8.2-3.9c-25.5,1-51,1.7-76.6,1.3c-19.1-0.3-38.3-0.9-57.4-1.9c-41.4-2.3-82.6-6.5-123.6-12.5
						c-40.8-6.1-81.3-13.9-121.3-23.9c-18.1-4.6-36.2-9.6-54-15.3c-11.3-3.6-22.4-7.8-33.3-12.5c-10.3-4.3-20.3-9.4-29.9-15.3
						c-0.6,3.2,0,6.3,1.9,9.2c4.5,10.6,9.3,21,14.3,31.3c4.9,10.4,10,20.7,15.4,30.8C747.3,239.6,749.4,242,752.2,243.6z"/>
					<path id="XMLID_176_" class="st6" d="M752,219.1c10.6,13.8,24.1,22.2,40.5,25.2c12.1,3.7,24.4,7.2,36.7,10.4
						c19,4.8,38.1,9.1,57.3,12.9c42.2,8.4,84.9,14.4,127.7,18.5c43.1,4.1,86.4,6.2,129.7,6.3c20,0,40-0.4,60-1.2
						c26.7-1,53.3-3.2,79.8-5.6c1.7,0.2,2.3-0.5,1.7-2.1c-1.8-3-4.1-5.5-7-7.6c-5-4.3-10-8.5-15.3-12.5c-2.6-2.4-5.5-4.2-8.8-5.4
						c-25.9,2-51.9,3.6-77.9,4.3c-19.5,0.5-39,0.6-58.5,0.2c-42.3-0.7-84.5-3.5-126.5-8.1c-41.8-4.7-83.5-11.3-124.6-20.1
						c-18.8-4-37.5-8.5-56-13.6c-11.8-3.2-23.5-6.8-35.1-10.7c-17.2-5.1-30.7-15.8-40.4-32c-1.5-1.1-2.3-0.7-2.4,1.2
						c0.5,3.8,1.7,7.4,3.6,10.8c3,6.6,6.1,13.1,9.4,19.6C747.3,213.1,749.4,216.3,752,219.1z"/>
					<path id="XMLID_175_" class="st6" d="M756.8,257.5c11.6,1.6,22.8,4.5,33.6,8.9c12.1,3.9,24.3,7.4,36.6,10.6
						c18.8,4.9,37.8,9.2,56.9,13.1c41.9,8.4,84.2,14.6,126.7,18.8c42.7,4.3,85.6,6.5,128.6,6.8c19.8,0.1,39.7-0.2,59.5-0.9
						c26.5-0.9,52.8-2.9,79.2-5.2c-1.5-4-4-7.2-7.7-9.7c-11.2-10.4-22.6-20.6-34.1-30.6c-11.5-10.1-23.1-20-34.9-29.7
						c-3-3.3-6.5-5.3-10.7-6.3c-25.1,0.5-50.2,0.6-75.3-0.2c-18.8-0.6-37.6-1.6-56.4-3c-40.6-3-81.1-7.9-121.2-14.6
						c-40-6.7-79.7-15.1-118.9-25.6c-17.8-4.8-35.4-10-52.8-15.9c-11.1-3.7-21.9-8.1-32.5-13c-8.8-5.1-18.1-8.7-28-10.8
						c-0.2,4.3,0.9,8.4,3.3,12.2c6.3,14.3,12.9,28.6,19.8,42.7c6.7,14.2,13.7,28.2,20.9,42.2C750.8,251.5,753.3,254.9,756.8,257.5z"
						/>
					<path id="XMLID_174_" class="st6" d="M755.4,210.4c8.6,8.7,17.6,17.1,27,25c11.7,6.1,24.1,10.3,37.1,12.7
						c19,4.8,37.9,9.5,57.1,13.6c45.3,9.5,91.2,16.3,137.2,20.8c46.3,4.5,93,6.8,139.5,6.6c20-0.1,40-0.6,59.9-1.5
						c26.6-1.2,53.2-3.4,79.7-6c5.2-0.5-2.2-7.3-2.7-7.8c-3.3-3.2-6.8-6.2-10.4-9.1c-1.8-1.9-3.9-3.1-6.3-3.7
						c-22.7,2-45.3,3.7-68,4.8c-19.5,0.9-39,1.4-58.5,1.4c-42.3,0.1-84.5-1.7-126.6-5.5c-38.8-3.5-77.4-8.8-115.8-15.7
						c-19-3.4-37.9-7.4-56.8-11.8c-12.6-3-25.1-6.2-37.6-9.3c-13.3-1.7-25.5-6.4-36.6-13.9c0.6,0.5,1.2,1,1.8,1.5
						c-9.8-9.9-19.5-19.9-29.3-29.8c-0.7-0.7-1.3-1.3-2-2c-0.5-0.1-1.1-0.1-1.6-0.2c-0.3,0.5-0.6,0.9-0.8,1.4c0,1.9,0.4,3.7,1.3,5.3
						c1.7,4.5,3.8,8.8,6,13.1c0.9,2,2,3.9,3.1,5.8C752.7,207.8,753.9,209.3,755.4,210.4z"/>
					<path id="XMLID_173_" class="st6" d="M758.6,220.7c10.6,13.1,24,21.1,40.1,24c12.1,3.8,24.3,7.3,36.6,10.4
						c19,4.8,38,9.1,57.2,13c42.1,8.4,84.7,14.4,127.5,18.6c43,4.1,86.2,6.3,129.5,6.4c20,0,39.9-0.4,59.9-1.1
						c26.6-1,53.2-3.1,79.7-5.5c1.9,0.4,2.5-0.3,1.7-2.1c-2.2-3.4-5-6.3-8.3-8.7c-5.8-5-11.7-9.9-17.7-14.6c-3-2.8-6.4-5-10.1-6.5
						c-25.8,1.9-51.6,3.5-77.4,4c-19.4,0.4-38.8,0.5-58.2,0.1c-42-0.8-83.9-3.6-125.7-8.3c-41.6-4.7-82.9-11.3-123.9-20.1
						c-18.7-4-37.2-8.5-55.7-13.6c-11.7-3.2-23.3-6.9-34.7-10.9c-16.6-5.2-29.7-15.4-39.6-30.7c-1.6-1.2-2.4-0.9-2.4,1.2
						c0.7,4.2,2.1,8.2,4.2,11.9c3.3,7.3,6.8,14.6,10.5,21.8C753.5,213.9,755.8,217.5,758.6,220.7z"/>
					<path id="XMLID_172_" class="st6" d="M749.8,232.5c6.9,4.9,14.1,9.1,21.7,12.6c11.6,3.2,23.2,6.7,34.7,10.4
						c18.6,5.4,37.5,10,56.3,14.2c45,9.9,90.7,17.1,136.5,22c46.2,4.9,92.6,7.6,139.1,7.8c19.9,0.1,39.9-0.2,59.8-0.9
						c26.6-1,53.1-2.9,79.6-5.3c-0.3-2.6-1.6-4.7-4-6.3c-6.5-6-13.2-11.9-20.2-17.5c-6.8-5.7-13.8-11.3-20.9-16.6
						c-2-2.1-4.3-3-6.9-2.7c-22.5,1.2-44.9,2.1-67.5,2.2c-19.3,0.2-38.6-0.1-57.8-0.7c-41.7-1.4-83.4-4.8-124.8-10.1
						c-38.1-4.9-76-11.5-113.5-19.7c-18.6-4-37-8.7-55.4-13.7c-12-3.3-23.8-6.9-35.5-11c-10.4-3.8-20.7-8-30.9-12.5
						c0.7,0.3,1.3,0.6,2,1c-6.2-4.7-12.3-9.4-18.5-14c-1.9-1.8-2.7-1.4-2.4,1.2c1.3,5.5,3.3,10.8,6,15.8c4.5,9.8,9.2,19.6,14,29.2
						C743.4,223.2,746.3,228,749.8,232.5z"/>
				</g>
			</g>
		</g>
		<g id="XMLID_7_">
			<g id="XMLID_158_">
				<g id="XMLID_159_">
					<path id="XMLID_168_" class="st6" d="M349.3,222.1c9.1,2.9,18.3,5.1,27.6,6.7c6,1.1,12,2.3,17.9,3.5c15.5,3.1,31.1,6,46.7,8.6
						c31.8,5.4,63.8,10,95.9,13.1c29.5,2.9,59,4.8,88.6,5.2c16.7,0.2,33.4,0.1,50.1-0.7c20.4-0.9,40.6-2.8,60.9-5.1
						c-0.6-3-2.2-5.4-4.9-7.2c-7.8-7.2-15.7-14.1-23.8-20.8c-8-6.9-16.2-13.5-24.6-19.9c-2.2-2.4-4.9-3.6-7.9-3.6
						c-16,0.9-32,1.6-48.1,1.7c-12.8,0.1-25.6-0.1-38.3-0.5c-31.8-1.1-63.5-3.8-95.2-7.6c-28.3-3.4-56.6-7.6-84.7-12.5
						c-12.4-2.2-24.7-4.5-37-7c-9-1.7-17.8-3.8-26.6-6.2c-8-2-16-4.3-23.8-6.9c0.8,0.3,1.5,0.6,2.3,0.9c-6.7-2.8-13.5-5.6-20.2-8.5
						c-0.3,3,0.7,5.8,2.8,8.3c5.6,9,11.3,17.9,17.4,26.7c5.9,8.8,12,17.5,18.4,26C344.2,219.3,346.4,221.2,349.3,222.1z"/>
					<path id="XMLID_167_" class="st6" d="M348.2,250.9c8.4-1.7,16.6-1.2,24.6,1.3c6.1,1.3,12.3,2.6,18.4,3.8
						c15.6,3.1,31.1,5.9,46.8,8.5c31.8,5.3,63.7,9.9,95.8,13c29.4,2.8,58.9,4.7,88.5,5c16.7,0.2,33.3,0,50-0.8
						c20.3-1,40.5-3,60.6-5.3c-2-4.5-5.1-8.3-9.2-11.3c-13.2-12.4-26.6-24.7-40.2-36.7c-13.5-12.1-27.1-24.1-41-35.8
						c-3.5-3.8-7.6-6.4-12.3-7.9c-15.6,0.1-31.2,0-46.8-0.6c-15.6-0.6-31.2-1.5-46.7-2.7c-31.2-2.5-62.3-6.2-93.3-10.8
						c-27.9-4.2-55.7-8.8-83.4-14.4c-15-3-30-6.1-44.7-10.1c-5.6-1.7-11.1-3.3-16.7-5c-9-4.6-18.5-6.4-28.5-5.5
						c0.9,4.9,2.9,9.4,6.3,13.4c9.9,15.4,20,30.7,30.3,45.8c10.2,15.2,20.7,30.3,31.3,45.2C340.6,244.7,343.9,248.3,348.2,250.9z"/>
					<path id="XMLID_166_" class="st6" d="M338.4,208.4c7.5,7,15.9,11.4,25.2,13.2c5.3,1.1,10.6,2.1,16,2.9c9.2,2,18.5,3.8,27.8,5.5
						c9.4,1.8,18.8,3.4,28.2,5c29,4.8,58,9,87.3,12.2c29.7,3.2,59.6,5.6,89.4,6.2c20.1,0.4,40.1,0.4,60.2-0.6
						c6.8-0.4,13.5-0.8,20.3-1.2c13.6-1,27.2-2.3,40.8-4c0-2.3-1-4.2-3.1-5.6c-5.5-5.2-11.1-10.1-17-14.9
						c-5.7-4.9-11.6-9.5-17.7-13.9c-1.8-1.8-3.8-2.5-6.1-2c-19.5,1.4-39,2.7-58.6,2.9c-19.4,0.2-38.8-0.4-58.2-1.2
						c0.7,0,1.3,0.1,2,0.1c-7.1-0.4-14.2-0.9-21.3-1.3c0.7,0,1.3,0.1,2,0.1c-7.1-0.6-14.1-1.1-21.2-1.7c0.7,0.1,1.3,0.1,2,0.2
						c-38.2-3.6-76.2-8.4-114-14.8c-18.6-3.1-37.3-6.2-55.8-10.4c-5.8-1.4-11.7-2.8-17.5-4.1c-15.5-2.8-29-9.9-40.4-21.4
						c-1.9-1.2-2.7-0.7-2.2,1.5c1.7,4.6,4,8.9,7,12.8c5.1,7.9,10.3,15.6,15.7,23.2C331.6,201.4,334.7,205.1,338.4,208.4z"/>
					<path id="XMLID_165_" class="st6" d="M337.6,225.9c9,2.4,18,4.4,27.1,6c6,1.1,11.9,2.3,17.9,3.5c15.5,3.2,31,6,46.6,8.7
						c31.8,5.4,63.7,10,95.8,13.2c29.4,2.9,59,4.8,88.5,5.3c16.7,0.3,33.4,0.1,50-0.6c20.3-0.9,40.6-2.8,60.8-5
						c-0.7-3.1-2.4-5.6-5.3-7.4c-8.2-7.5-16.5-14.8-25.1-21.9c-8.4-7.2-17.1-14.2-25.9-21c-2.3-2.5-5.1-3.8-8.2-3.9
						c-16.1,0.7-32.2,1.2-48.3,1.1c-16-0.1-32-0.5-48-1.4c-31.8-1.7-63.6-4.9-95.1-9.1c-28.3-3.8-56.4-8.2-84.5-13.4
						c-15.2-2.8-30.5-5.7-45.6-9.5c-5.7-1.5-11.4-3.1-17.1-4.6c-11-3-21.8-6.8-32.3-11.3c-0.2,3.2,0.9,6.2,3.2,8.8
						c6,9.7,12.2,19.2,18.6,28.6c6.3,9.5,12.9,18.8,19.6,27.9C332.2,222.8,334.5,224.8,337.6,225.9z"/>
					<path id="XMLID_164_" class="st6" d="M337.2,202.3c10,10.3,21.7,16.2,35,17.7c5.8,1.1,11.7,2.2,17.5,3.3
						c15.6,3,31.2,5.8,46.8,8.4c31.9,5.3,63.9,9.9,96.1,13c29.6,2.8,59.2,4.7,88.9,5c16.8,0.2,33.5,0,50.3-0.8
						c20.5-1,40.8-3,61.2-5.3c1.7,0.2,2.3-0.4,1.7-2.1c-1.8-3-4.1-5.5-7-7.6c-4.9-4.3-10-8.5-15.2-12.5c-2.6-2.4-5.5-4.2-8.8-5.4
						c-16.5,1.5-32.9,2.8-49.4,3.5c-16.3,0.7-32.7,0.9-49.1,0.6c-32.3-0.6-64.7-2.8-96.8-6.5c-28.6-3.2-57.1-7.3-85.5-12.1
						c-15.6-2.6-31.2-5.3-46.7-8.4c-5.8-1.2-11.6-2.4-17.5-3.7c-17.6-2.8-32.4-11.4-44.5-25.8c-1.7-0.9-2.4-0.4-2.2,1.5
						c1.1,3.7,2.9,7.2,5.3,10.3c4,6.2,8.1,12.3,12.4,18.2C331.7,197,334.2,199.9,337.2,202.3z"/>
					<path id="XMLID_163_" class="st6" d="M342.1,239.3c8.7-0.1,17.2,0.9,25.6,3.1c6.1,1.3,12.1,2.5,18.2,3.7
						c15.5,3.1,31.1,6,46.7,8.6c31.8,5.4,63.7,10,95.8,13.1c29.4,2.9,58.9,4.8,88.4,5.2c16.6,0.2,33.3,0.1,49.9-0.7
						c20.3-0.9,40.4-2.9,60.6-5.1c-1.4-4-4-7.2-7.6-9.8c-11.1-10.5-22.5-20.8-34-30.8c-11.4-10.2-23-20.2-34.8-29.9
						c-3-3.3-6.5-5.4-10.6-6.3c-15.8,0.3-31.5,0.4-47.3,0c-15.7-0.4-31.5-1.1-47.2-2.2c-31.4-2.2-62.8-5.7-94-10.2
						c-28-4-56-8.6-83.8-14c-15.1-2.9-30.2-5.9-45.1-9.8c-5.6-1.6-11.2-3.2-16.8-4.8c-9.6-4-19.5-6.4-29.8-7.2
						c0.4,4.3,2.1,8.1,5,11.5c8.3,13.1,16.8,26,25.5,38.8c8.6,12.9,17.5,25.5,26.5,38.1C335.4,234.4,338.3,237.3,342.1,239.3z"/>
					<path id="XMLID_162_" class="st6" d="M340.8,193.8c9.5,6.9,19.2,13.6,29.2,19.9c6,4,12.9,6,20.7,6.2c5.7,0.9,11.3,1.7,17,2.6
						c6.5,1.1,12.9,2.2,19.4,3.3c35,5.9,70,11.3,105.3,14.9c32.8,3.4,65.7,5.4,98.6,5.6c16.8,0.1,33.5-0.2,50.3-1.1
						c20.5-1.1,40.8-3.3,61.1-5.7c5.1-0.6-2-7.1-2.7-7.8c-3.3-3.2-6.8-6.2-10.3-9.1c-1.8-1.9-3.9-3.1-6.3-3.7
						c-16.4,1.8-32.9,3.4-49.4,4.4c-13.1,0.7-26.2,1.2-39.3,1.3c-32.5,0.3-64.9-1.3-97.2-4.3c-28.8-2.7-57.5-6.3-86-10.8
						c-12.6-2-25.1-4.2-37.6-6.3c-9.1-1.7-18.3-3.1-27.6-4.3c-9.7-0.7-18.9-3.4-27.7-7.9c0.7,0.4,1.3,0.9,2,1.3
						c-11.2-8.5-22.3-16.9-33.5-25.4c-0.8-0.6-1.5-1.2-2.3-1.7c-0.5,0-1.1,0-1.6,0c-0.2,0.5-0.4,1-0.6,1.5c0.3,1.9,1,3.7,2.2,5.3
						c2.5,4.3,5.3,8.5,8.1,12.5C335,187.8,337.3,191.4,340.8,193.8z"/>
					<path id="XMLID_161_" class="st6" d="M343.9,204.2c9.9,9.6,21.3,15,34.2,16.3c8.9,1.5,17.8,3.2,26.6,5.1
						c15.7,3,31.4,5.7,47.1,8.2c35.2,5.7,70.5,10.5,106,13.3c33.1,2.6,66.1,3.8,99.3,3.2c27.2-0.5,54.2-2.9,81.2-6
						c1.9,0.4,2.5-0.3,1.7-2.1c-2.2-3.4-5-6.3-8.3-8.7c-5.8-5-11.6-9.9-17.7-14.6c-3-2.8-6.3-5-10.1-6.5c-16.3,1.4-32.6,2.7-49,3.3
						c-16.2,0.6-32.5,0.8-48.7,0.4c-32.2-0.6-64.4-3-96.3-6.6c-28.5-3.3-57-7.4-85.3-12.2c-15.6-2.6-31.1-5.3-46.5-8.6
						c-5.8-1.3-11.6-2.6-17.4-3.9c-16.9-2.8-31.3-10.8-43.2-24.2c-1.8-1-2.5-0.5-2.2,1.5c1.4,4.1,3.4,7.9,6.1,11.4
						c4.5,6.9,9.1,13.8,13.9,20.5C337.7,198.1,340.5,201.4,343.9,204.2z"/>
					<path id="XMLID_160_" class="st6" d="M334.7,215.4c7.2,3.9,14.7,7,22.4,9.3c5.8,1.8,11.8,2.9,18,3.2c6.2,1.3,12.3,2.6,18.5,3.8
						c6.2,1.2,12.4,2.3,18.7,3.5c34.8,6.3,69.9,11.5,105,15.4c32.7,3.6,65.5,5.8,98.3,6.3c16.7,0.2,33.4,0.1,50.1-0.6
						c20.4-0.9,40.7-2.8,60.9-5.1c-0.2-2.6-1.6-4.7-4-6.3c-6.5-6.1-13.2-11.9-20.1-17.6c-6.8-5.8-13.7-11.3-20.9-16.6
						c-2-2.1-4.3-3-6.9-2.8c-13,0.8-26,1.5-39,1.8c-12.9,0.3-25.9,0.3-38.8,0c-28.9-0.6-57.8-2.6-86.5-5.6
						c-53.6-5.5-106.9-14-159.6-25.2c0.7,0.2,1.4,0.4,2.2,0.5c-6.5-1.7-13.1-3.3-19.6-5c0.7,0.2,1.4,0.4,2.2,0.6
						c-5.8-1.6-11.6-3.2-17.4-4.8c0.7,0.2,1.4,0.4,2.1,0.6c-6.9-3.8-13.8-7.6-20.6-11.5c-2.1-1.5-2.9-1-2.2,1.5
						c2.1,5.2,4.9,10.1,8.3,14.7c5.9,9,11.9,18,18.1,26.8C327.1,207.1,330.7,211.5,334.7,215.4z"/>
				</g>
			</g>
		</g>
		<g id="XMLID_9_">
			<g id="XMLID_145_">
				<g id="XMLID_146_">
					<path id="XMLID_156_" class="st6" d="M134.2,200c3.3-0.7,6.5-1.4,9.8-2.1c-0.8,0.2-1.7,0.3-2.5,0.5c5.1-1.1,10.2-1.3,15.4-0.6
						c5.3,0.6,10.5,1.7,15.7,3.2c7.8,2.3,15.4,5.1,23,7.9c7.9,2.9,15.7,5.9,23.7,8.4c8.5,2.9,17.2,4.7,26.3,5.3
						c3.8,0.6,7.7,1.1,11.6,1.7c40.8,5.9,81.9,9.5,122.9,12.9c45.3,3.8,90.7,7.2,136.1,10.4c-0.4-3-1.9-5.5-4.6-7.4
						c-7.4-7.6-14.9-14.9-22.7-22.1c-7.7-7.3-15.5-14.3-23.5-21.2c-2.1-2.5-4.7-3.9-7.7-4.1c-48.8-3.4-97.6-6.8-146.4-10.5
						c-22.5-1.7-45.1-3.4-67.5-5.5c-12.6-1.1-25.1-2.5-37.7-4c-12.1-1.8-24.2-3.4-36.3-5c0.8,0.1,1.6,0.2,2.5,0.3
						c-20.3-3.1-40.5-6.3-61.1-5.8c-14.3,0.3-28.4,2.4-42.4,5.1c0.8-0.2,1.7-0.3,2.5-0.5c-3.7,0.3-7.3,0.7-11,1
						c-0.8,0.1-1.7,0.3-2.5,0.4c0.5,0.7,1,1.4,1.5,2.1c1.9,1.1,3.8,2.2,5.7,3.3c7,3.3,14,6.4,21.1,9.3c10.9,4.6,21.9,9.1,33,13.2
						c3.1,1.4,6.2,2.5,9.5,3.1C130.4,200.6,132.3,200.7,134.2,200z"/>
					<path id="XMLID_154_" class="st6" d="M130.1,225c3.2-4.5,7.6-6.2,13.3-5c-1.2,0-2.4,0-3.6,0c5.6,0,11.1,0.7,16.6,1.8
						c2.7,0.7,5.3,1.3,8,2c8.1,2.1,15.9,5.1,23.7,8c9.3,3.3,18.6,6.6,28,9.5c8.7,3,17.6,4.7,26.8,5.2c9.3,1.4,18.6,2.6,27.9,3.7
						c38.1,4.7,76.4,8,114.7,11.2c42.2,3.5,84.4,6.6,126.6,9.6c-1.8-4.6-4.8-8.5-8.8-11.7c-12.8-13-25.7-25.8-38.9-38.4
						c-13.1-12.7-26.3-25.3-39.8-37.6c-3.3-3.9-7.3-6.7-12-8.4c-45.8-3-91.5-5.9-137.3-8.7c-41.9-2.5-83.9-4.8-125.8-8.1
						c-9.5-0.8-19-1.4-28.5-1.7c-6.6,0-13.2,0.2-19.8,0.6c-9.9,0.6-19.9,1.7-29.7,3.3c-9.6,1.6-19.1,3.9-28.5,6.3
						c-5.9,1.6-11.8,3.1-17.7,4.4c-4.9,0.3-9,2.2-12.3,5.7c3,3.5,6.8,5.9,11.4,7.2c15.3,6.8,30.6,13.4,46.1,19.7
						c15.4,6.4,30.9,12.6,46.6,18.5C121.1,224.3,125.5,225.3,130.1,225z"/>
					<path id="XMLID_153_" class="st6" d="M122.4,190c5.8,0.3,11.7,0.7,17.5,1c3.5-1.2,7-1.5,10.6-1c2.7,0,5.4,0.3,8,0.9
						c4,0.5,7.9,1.4,11.7,2.7c-1.5-0.5-3-0.9-4.5-1.4c4.1,1.3,8.1,2.6,12.2,3.9c-1.5-0.5-2.9-1-4.4-1.6c9.2,3.4,18.2,7,27.4,10.5
						c5.2,2,10.5,4,15.8,5.8c5.5,2.2,11.2,3.5,17.1,4.1c9,1.5,18,2.9,27,4.2c15.6,2.1,31.2,3.9,46.8,5.5c67.5,7,135.3,11.8,203,16.7
						c2.1,0.7,2.7,0,1.8-2c-2.5-3.9-5.5-7.4-9.1-10.4c-6.3-6.2-12.8-12.2-19.3-18.1c-3.2-3.4-6.9-6.2-11-8.4
						c-45.5-3.2-91-6.5-136.5-10.1c-19.3-1.5-38.6-3.1-57.9-4.8c-21.9-2-43.8-4.1-65.6-7.5c-8.9-1.4-17.8-2.8-26.7-4.3
						c-5.9-1.3-11.9-2.6-17.8-4c-9-2-18-4.1-27.1-5.4c-9.2-1.4-18.4-2.1-27.8-1.9c-6,0.2-12,0.7-18,1.5c-9.2,2.3-18.5,1.8-27.8-1.3
						c-2.4,0-2.7,0.8-1,2.5c4.2,3,8.7,5.4,13.6,7.1c9,3.9,18.1,7.7,27.3,11.2C112.4,187.7,117.3,189.2,122.4,190z"/>
					<path id="XMLID_152_" class="st6" d="M118.1,204.1c5.9-1.1,11.8-2,17.8-2.8c5.4,0,10.8,0.5,16.1,1.6c7.9,1.5,15.6,4.1,23.2,6.8
						c9.2,3.2,18.2,6.7,27.5,9.8c4.1,1.4,8.2,2.6,12.3,3.7c6.9,1.1,13.7,2.2,20.6,3.2c43.8,6.6,87.9,10.5,132.1,14.2
						c45.4,3.8,90.7,7.1,136.1,10.4c-0.5-3.2-2.2-5.7-4.9-7.7c-7.8-8-15.8-15.8-24-23.3c-8.1-7.7-16.4-15.2-24.8-22.4
						c-2.2-2.6-4.9-4.1-8-4.4c-52-3.6-104-7.1-156-10.9c-25.5-1.9-51.1-3.7-76.6-6.3c-21.3-2.2-42.5-5.3-63.8-7.8
						c-14.5-1.7-29-3-43.5-2.6c-15.5,0.4-30.9,3-46.1,6.1c0.8-0.2,1.7-0.3,2.5-0.5c-3.8,0.3-7.7,0.6-11.5,0.8c-3-0.3-3.3,0.6-1,2.5
						c5.6,3.6,11.6,6.6,17.9,8.9c11.7,5,23.5,9.9,35.4,14.6C105.2,200.6,111.6,202.7,118.1,204.1z"/>
					<path id="XMLID_151_" class="st6" d="M120.1,182.2c8.3,2.5,16.6,3.2,24.9,2c3.8-0.6,7.6-0.6,11.4,0c-1.2-0.2-2.4-0.4-3.7-0.6
						c3.9,0.7,7.8,1.4,11.7,2.1c-1.2-0.2-2.4-0.5-3.6-0.7c4,0.8,7.9,1.9,11.7,3.3c3.9,1.2,7.8,2.7,11.6,4.3
						c8.8,3.5,17.5,7.4,26.4,10.9c2.6,1,5.3,2,7.9,3c5.4,2.3,11.1,3.7,17,4.3c18.2,3.2,36.5,5.7,54.8,7.9c34.9,4,70,7.1,105,10
						c38.9,3.2,77.8,6.1,116.7,8.9c6.6,0.5-5.2-10.5-4.7-10c-4.7-4.6-9.4-9.1-14.4-13.4c-2.4-2.6-5.2-4.6-8.4-5.9
						c-42.2-3-84.5-6.1-126.7-9.5c-22.5-1.8-45-3.7-67.5-5.8c-18.9-1.8-37.9-3.6-56.7-6.3c-8.9-1.3-17.8-2.8-26.6-4.5
						c-5.9-0.8-11.8-2.1-17.5-4c-8.7-2.5-17.4-5.2-26.2-7.6c-8.9-2.5-17.8-4.5-27-5.7c-6.1-0.7-12.3-1-18.4-0.7
						c-5.6,0.5-11.2,1-16.8,1.3c1.3,0.2,2.5,0.3,3.8,0.5c-8.6-1.5-17.3-2.9-25.9-4.4c-1.4-0.2-2.8-0.5-4.2-0.7
						c-0.6,0.2-1.2,0.5-1.8,0.7c0.3,0.6,0.5,1.2,0.8,1.8c2.2,1.8,4.7,3.3,7.3,4.3c6.8,3.2,13.8,6.1,20.8,8.9
						C107.9,178.7,113.9,181.5,120.1,182.2z"/>
					<path id="XMLID_150_" class="st6" d="M123.4,215.7c4.8-2.8,10-4.1,15.6-4c-1.1,0-2.1,0.1-3.2,0.1c5.5,0,10.9,0.5,16.3,1.6
						c2.6,0.6,5.3,1.2,7.9,1.8c8,2,15.7,4.9,23.5,7.6c8,2.8,16.1,5.6,24.2,8.1c9.7,3.3,19.6,5.3,29.8,6c9.2,1.4,18.5,2.6,27.7,3.7
						c38.1,4.7,76.4,8,114.6,11.1c42.2,3.5,84.4,6.6,126.6,9.6c-1.3-4.1-3.7-7.4-7.2-10.1c-10.7-11-21.7-21.8-32.8-32.5
						c-11-10.7-22.2-21.3-33.7-31.6c-2.8-3.4-6.3-5.7-10.4-6.8c-45.7-3-91.4-6-137.1-9c-41.7-2.7-83.4-5.1-125-9.1
						c-15.7-1.5-31.5-2.8-47.3-2.6c-9.7,0.1-19.3,0.5-29,1.6c-9.5,1-18.9,2.8-28.2,4.8c-5.9,1.3-11.8,2.6-17.7,3.9
						c-5.1,0.9-9.9,2.4-14.6,4.7c2.4,3.2,5.6,5.3,9.6,6.4c13,5.9,26,11.5,39.2,16.8c13.1,5.5,26.4,10.7,39.7,15.7
						C115.7,215.6,119.5,216.3,123.4,215.7z"/>
					<path id="XMLID_149_" class="st6" d="M122.4,174.2c9.1,2,18.3,3.3,27.6,3.9c5.1-0.5,10.2-0.5,15.3,0.1c-1-0.1-1.9-0.2-2.9-0.3
						c5.4,0.8,10.6,2,15.8,3.8c2.6,1,5.1,1.9,7.7,2.9c7.8,3,15.3,6.8,22.9,10.2c8.4,3.8,17.3,7.8,26.2,10.4c9,1.9,18,3.5,27.1,4.8
						c9.2,1.5,18.5,2.8,27.8,3.8c38.1,4.6,76.3,8.1,114.6,11.3c38.9,3.2,77.8,6.2,116.8,9c1.4,0.1,2-0.5,1.9-1.9
						c-0.7-2.4-2.1-4.4-4-6c-3.1-3.4-6.3-6.6-9.7-9.7c-1.6-1.9-3.6-3.3-6-4c-52-3.7-104-7.6-155.9-12.1c-25.6-2.3-51.3-4.6-76.9-7.6
						c-12.6-1.3-25.1-3.1-37.5-5.2c-9.2-1.1-18.1-3.2-26.8-6.4c0.8,0.3,1.6,0.6,2.5,0.9c-8.5-3.1-17-6.3-25.5-9.4
						c-8.5-3.1-17.4-6.4-26.3-8c-3.9-0.7-7.9-1.5-11.9-1.9c-3-0.2-5.9-0.4-8.9-0.5c-5.2,0.5-10.3,0.7-15.5,0.7
						c1,0.1,1.9,0.1,2.9,0.2c-10.3-2-20.7-3.9-31-5.9c-1.9-0.9-3.6-0.8-5.1,0.4c0.2,1.9,1.4,3.2,3.3,3.8c5.1,2.6,10.2,4.9,15.5,7
						C111.7,170.5,117,172.5,122.4,174.2z"/>
					<path id="XMLID_148_" class="st6" d="M127.6,184.9c8.6,2,17.2,2.2,25.7,0.5c5.4,0,10.7,0.6,16,1.8c-1.4-0.3-2.8-0.7-4.2-1
						c4,1,8,2.1,12,3.1c-1.4-0.4-2.7-0.8-4.1-1.2c3.9,1.3,7.8,2.5,11.8,3.8c-1.3-0.4-2.7-0.9-4-1.3c3.9,1.4,7.7,2.9,11.6,4.3
						c-1.3-0.5-2.6-1-3.9-1.5c7.7,3.1,15.4,6.3,23.1,9.4c6.6,2.6,13.2,5.3,20,7.2c6,1,11.9,2,17.9,3.1c9.1,1.5,18.2,2.9,27.3,4
						c15.6,2,31.3,3.8,47,5.4c64.4,6.4,129,11.2,193.5,15.8c1.9,0.5,2.5-0.1,1.8-2c-2-3.5-4.6-6.5-7.7-9.1
						c-5.4-5.3-11-10.5-16.7-15.6c-2.8-3-6-5.3-9.6-7.1c-45.5-3.2-91-6.5-136.5-10.3c-19.3-1.6-38.6-3.2-57.9-5
						c-22-2.1-44-4.2-65.8-7.8c-8.9-1.4-17.9-2.9-26.8-4.6c-6-1.5-11.9-3-17.8-4.6c-9-2.4-18-4.9-27.2-6.7c-9.3-1.9-18.6-3-28-3.2
						c-6.1,0-12.2,0.3-18.3,1.1c-10.3,1.7-20.5,0.9-30.6-2.5c-2.3,0-2.6,0.9-1,2.5c3.9,2.9,8.1,5.1,12.7,6.7
						c8.4,3.7,17,7.2,25.6,10.5C118.2,182.9,122.8,184.3,127.6,184.9z"/>
					<path id="XMLID_147_" class="st6" d="M117.8,195.8c7.3,0.9,14.4,0.5,21.4-1.3c5.4,0,10.8,0.5,16.2,1.7c7.9,1.6,15.6,4.3,23.1,7
						c9.1,3.3,18.1,7,27.2,10.1c4,1.4,8.1,2.7,12.2,3.9c12,2,24,3.9,36,5.6c38.5,5.3,77.3,8.6,116,11.8
						c45.3,3.8,90.7,7.2,136.1,10.4c-0.1-2.6-1.3-4.8-3.6-6.5c-6.2-6.4-12.5-12.7-19.1-18.7c-6.5-6.2-13.1-12.1-20-17.8
						c-1.9-2.2-4.1-3.2-6.7-3.2c-58.4-4.1-116.8-8.2-175.2-12.8c0.7,0.1,1.5,0.1,2.2,0.2c-28.3-2.4-56.6-4.6-84.7-8.8
						c-10.4-1.5-20.9-2.9-31.3-4.7c-7.5-1.4-14.9-2.8-22.4-4c-12.1-1.9-24.3-3.4-36.5-3.2c-7.6,0.1-15.2,0.9-22.8,1.9
						c-2.7,0.3-5.4,0.7-8.1,1.3c-6.5,1.6-13.1,1.5-19.8-0.4c-2.6-0.1-2.9,0.7-1,2.5c4.6,3.2,9.6,5.8,15,7.7
						c9.9,4.3,19.8,8.4,29.9,12.3C106.9,193.1,112.2,194.8,117.8,195.8z"/>
				</g>
			</g>
		</g>
		<g id="XMLID_13_">
			<g id="XMLID_133_">
				<g id="XMLID_134_">
					<path id="XMLID_143_" class="st6" d="M32.5,299.1c12.5,0.3,24.9-0.5,37.2-2.4c12.8-1.4,25.6-3.2,38.3-5.3
						c19.4-3.2,38.7-7,58-10.9c47.3-9.4,94.4-19.5,142.3-25.7c43.5-5.6,87.4-8.4,131.3-9c46.4-0.7,92.7,1.3,138.9,4.8
						c-0.6-3-2.3-5.4-5.1-7.1c-7.9-7.1-15.9-14-24.2-20.6c-8.1-6.8-16.5-13.4-24.9-19.7c-2.3-2.4-4.9-3.6-8-3.6
						c-44.6-1.7-89.2-2-133.8,0c-44.8,2-89.6,6-134.1,12.1c-44.2,6.1-88,14.7-132,22.4c-18.7,3.3-37.5,6.5-56.3,9.1
						c-12.2,1.7-24.5,3.1-36.8,3.9c-11.1,0.7-22.2,0.8-33.3,0.3c0.8,0.1,1.7,0.2,2.5,0.3c-7.1-0.9-14.2-1.9-21.3-2.8
						c0.5,3.1,2.2,5.5,4.9,7.4c7.7,7.5,15.6,14.8,23.8,21.9c8,7.2,16.2,14.2,24.6,21C26.7,297.6,29.4,298.9,32.5,299.1z"/>
					<path id="XMLID_142_" class="st6" d="M31.1,326.3c10.6-4.8,21.8-7.1,33.5-6.7c12.8-1.5,25.6-3.3,38.3-5.5
						c19.3-3.3,38.5-7.1,57.7-11c47.1-9.5,94.2-19.5,141.9-25.5c43.7-5.5,87.6-8.2,131.7-8.7c46.6-0.6,93.1,1.4,139.6,5
						c-2.1-4.5-5.3-8.1-9.5-11c-13.5-11.9-27.2-23.6-41.1-35.1c-13.8-11.6-27.8-23-41.9-34.2c-3.6-3.7-7.7-6.1-12.5-7.4
						c-25.8-0.1-51.6,0.1-77.4,1.1c-19.3,0.7-38.7,1.8-58,3.2c-48.3,3.4-96.5,9.2-144.4,16.3c-43.7,6.5-87.2,14.3-130.9,20.3
						c-21.3,3-42.7,5.7-64.2,7c-11.6,0.8-23.2,1-34.8,0.5c-9.8-1.9-19.3-1.2-28.7,1.9c1.9,4.5,5,8.2,9.1,11.1
						c13,12.2,26.2,24.2,39.5,36c13.3,11.9,26.7,23.6,40.3,35.1C22.4,322.3,26.5,324.9,31.1,326.3z"/>
					<path id="XMLID_141_" class="st6" d="M20.7,286.8c31.5,7,19.1,6.8,45.5,3.4c9.6-1,19.2-2.3,28.7-3.9c9.7-1.5,19.4-3.1,29-5
						c38.5-7.2,76.8-15.5,115.3-22.9c-0.7,0.1-1.3,0.3-2,0.4c28.1-5.1,56.3-9.7,84.7-12.9c28-3.1,56.2-5.1,84.4-6.1
						c24.8-0.8,49.6-1,74.3-0.5c30.9,0.6,61.6,2.4,92.4,4.8c2.1,0.6,2.7-0.1,1.7-2.1c-2.7-3.8-6-7.1-9.8-9.9
						c-6.7-5.8-13.6-11.5-20.6-17c-3.5-3.2-7.3-5.8-11.6-7.7c-41.1-2.2-82.1-3.2-123.2-2.2c-41.4,1-82.7,3.7-123.8,8.5
						c-38.1,4.4-75.8,11.1-113.5,18.2c-13.3,2.5-26.6,5.1-39.8,7.6c-25.2,4.7-50.3,9.1-75.7,12.8c0.7-0.1,1.3-0.2,2-0.3
						c-6.9,0.8-13.7,1.6-20.6,2.4c0.7-0.1,1.3-0.2,2-0.2c-8.6,0.9-17.1,1.4-25.8,1.3c-12.5,1-24.3-2.1-35.5-9.4
						c-2.2-0.8-2.8-0.1-1.8,2c2.8,4.1,6.2,7.8,10.2,10.9c7,6.5,14.1,12.8,21.4,19C12.3,281.6,16.3,284.5,20.7,286.8z"/>
					<path id="XMLID_140_" class="st6" d="M20.1,302.6c12.4,0.2,24.7-0.6,36.9-2.5c12.8-1.4,25.5-3.1,38.2-5.2
						c19.4-3.2,38.7-7,57.9-10.8c47.3-9.4,94.4-19.4,142.2-25.6c43.6-5.6,87.5-8.4,131.4-9.1c46.4-0.7,92.8,1.2,139.1,4.7
						c-0.7-3.1-2.5-5.6-5.4-7.4c-8.2-7.4-16.7-14.6-25.3-21.6c-8.5-7.1-17.2-14-26.1-20.6c-2.3-2.4-5.1-3.7-8.3-3.8
						c-25.4-0.8-50.8-1.2-76.2-0.9c-19.1,0.2-38.1,0.8-57.2,1.7c-48,2.3-95.8,7.1-143.3,14.1c-44.2,6.5-88,15-132,22.4
						c-21.8,3.6-43.6,7.1-65.6,9.3C14.7,248.4,2.8,249-9.2,249c-11.4,0.2-22.8-0.6-34-2.6c0.6,3.1,2.3,5.7,5.1,7.6
						c8,7.8,16.2,15.3,24.6,22.7c8.3,7.5,16.8,14.7,25.4,21.8C14.2,301,16.9,302.4,20.1,302.6z"/>
					<path id="XMLID_139_" class="st6" d="M20,280.5c14.9,8.4,30.2,10.2,45.9,5.6c12.8-1.5,25.6-3.4,38.3-5.6
						c19.5-3.3,38.8-7.3,58.2-11.2c47.3-9.6,94.5-19.9,142.4-26.1c43.5-5.6,87.3-8.2,131.1-8.7c46.3-0.5,92.5,1.6,138.7,5.4
						c6.8,0.5-6.4-10.7-5.4-9.8c-5-4.4-10.1-8.6-15.4-12.7c-2.6-2.5-5.6-4.3-8.9-5.5c-25.1-1.6-50.2-2.9-75.4-3.4
						c-18.9-0.4-37.8-0.3-56.7,0c-47.7,0.8-95.3,4.3-142.6,10.9c-44.4,6.1-88.3,15.3-132.2,23.9c-22.1,4.3-44.3,8.7-66.6,12
						c-12.2,1.9-24.4,3.3-36.6,4.4c-17.1,3.2-33.1-0.8-47.9-12c-1.9-0.5-2.5,0.2-1.8,2c2.1,3.4,4.7,6.4,7.9,8.9
						c5.5,5.2,11.2,10.2,17,15.1C13.1,276.5,16.4,278.8,20,280.5z"/>
					<path id="XMLID_138_" class="st6" d="M24,315.2c11.6-2.5,23.4-4.1,35.2-4.8c12.8-1.4,25.5-3.2,38.2-5.4
						c19.3-3.2,38.5-7,57.8-10.8c47.2-9.4,94.3-19.4,142-25.5c43.6-5.6,87.6-8.3,131.6-9c46.6-0.7,93,1.2,139.4,4.7
						c-1.5-3.9-4.1-7.1-7.8-9.5c-11.4-10.1-22.9-20.1-34.7-29.8c-11.6-9.8-23.4-19.4-35.4-28.8c-3-3.2-6.6-5.2-10.8-6
						c-25.7-0.3-51.3-0.4-77,0.3c-19.3,0.5-38.5,1.5-57.7,2.7c-48.2,3-96.2,8.4-144,15.5c-43.9,6.5-87.5,14.5-131.3,21.1
						c-21.5,3.2-43.1,6.2-64.8,7.9c-11.7,1-23.4,1.4-35.2,1.1c-10.2-1-20.4-0.8-30.6,0.6c1.4,3.9,3.8,7.1,7.4,9.6
						c10.9,10.3,22,20.5,33.2,30.4c11.2,10,22.5,19.9,34,29.5C16.5,312.3,20,314.3,24,315.2z"/>
					<path id="XMLID_137_" class="st6" d="M24,272.3c16.2,10.5,33.4,13.8,51.4,9.9c12.6-1.9,25.3-4,37.9-6.2
						c19.4-3.5,38.8-7.4,58.1-11.4c47.2-9.8,94.4-20.1,142.2-26.2c43.5-5.6,87.4-8.1,131.3-8.4c21.7-0.2,43.3,0.2,65,1
						c24.7,1,49.3,2.8,73.9,4.8c1.4,0,2-0.7,1.8-2.1c-1-2.4-2.6-4.3-4.7-5.9c-3.5-3.2-7.1-6.3-10.8-9.2c-1.8-1.9-4-3.1-6.5-3.7
						c-44-3.3-88.1-5.2-132.3-4.7c-44.5,0.5-89,3.1-133.2,8.6c-44.4,5.6-88.2,14.6-131.9,23.5c-19,3.9-37.9,7.7-56.9,11.2
						c-12.9,2.4-25.7,4.6-38.7,6.6c-10.6,2.4-21.3,3.3-32.2,2.9c0.8,0.3,1.6,0.6,2.4,0.8c-13.8-5.8-27.7-11.6-41.5-17.3
						c-1.6-0.2-2.2,0.5-1.8,2c1.4,2.8,3.3,5.2,5.9,7.1c4.2,4,8.6,7.9,13.1,11.6C18.4,269.6,21,271.3,24,272.3z"/>
					<path id="XMLID_136_" class="st6" d="M26.8,282.8c9.4,5.3,18.9,7.4,28.7,6.1c11.6-1.4,23.1-2.8,34.6-4.3
						c26-3.7,51.8-9,77.5-14.2c44.2-9,88.2-18.5,132.9-24.8c43.5-6.1,87.5-9.1,131.4-9.9c49.4-0.9,98.8,1.2,148.1,5.1
						c1.9,0.4,2.5-0.3,1.7-2.1c-2.3-3.4-5.1-6.3-8.4-8.8c-5.8-5.1-11.8-10-17.9-14.8c-3-2.8-6.4-5-10.2-6.6
						c-25.2-1.5-50.5-2.7-75.7-3.1c-19-0.3-38-0.2-57,0.2c-47.8,1-95.6,4.7-143,11.3c-44.3,6.2-88.1,15.3-132.1,23.8
						c-22,4.3-44.1,8.5-66.3,11.7c-12.2,1.9-24.4,3.2-36.7,4c-16.1,2.2-31.2-1.4-45.4-10.6c-2.1-0.6-2.6,0.1-1.8,2
						c2.5,3.8,5.5,7.1,9.1,10c6.3,5.9,12.8,11.6,19.3,17.2C19.1,278.1,22.8,280.7,26.8,282.8z"/>
					<path id="XMLID_135_" class="st6" d="M16.8,293.2c7.7,1,15.3,2.1,23,3.1c0.7,0,1.5,0.1,2.2,0.1c5.8-0.8,11.5-1.6,17.3-2.4
						c6.4-0.8,12.7-1.5,19.1-2.3c29.2-4,58.1-10,86.9-15.8c25.4-5.1,50.8-10.4,76.3-15c12.5-2.3,25-4.4,37.5-6.2
						c15.7-2.3,31.4-4.2,47.2-5.9c-0.7,0.1-1.5,0.1-2.2,0.2c7-0.7,14-1.3,21-2c-0.7,0.1-1.5,0.1-2.2,0.2c37.3-2.8,74.6-4.5,112-4.3
						c37.1,0.3,74,2,111,4.8c2.4,0.8,3,0.1,1.7-2.1c-3.4-4.3-7.3-8.2-11.7-11.5c-8-6.8-16-13.5-24.3-20c-4.1-3.7-8.6-6.8-13.5-9.3
						c-44.3-1.9-88.6-2.7-132.8-0.8c-29.4,1.2-58.7,3.1-87.9,6.1c-25.5,2.6-50.9,5.8-76.3,9.9c-25.2,4-50.3,8.6-75.3,13.2
						c-25.2,4.6-50.4,9.3-75.7,13.2c-12.4,1.9-24.9,3.6-37.4,4.9c-6,0.8-12.1,1.2-18.2,1.3c-8.2,0.5-16.4,0.7-24.6,0.5
						c0.7,0,1.5,0.1,2.2,0.1c-7.6-2-15.2-4-22.8-5.9c-2.4-0.9-3-0.3-1.8,2c3.3,4.6,7.2,8.6,11.6,12.2c7.9,7.3,15.9,14.4,24.1,21.4
						C7.4,287,11.9,290.4,16.8,293.2z"/>
				</g>
			</g>
		</g>
		<g id="XMLID_15_">
			<g id="XMLID_121_">
				<g id="XMLID_122_">
					<path id="XMLID_131_" class="st6" d="M137.9,263.9c12.5,0.1,25-0.1,37.5-0.7c12.5,0,25,0.1,37.5,0.4
						c24.8,0.6,49.6,2.4,74.3,4.6c-0.6-3-2.3-5.4-5-7.2c-7.8-7.1-15.8-14.1-24-20.8c-8.1-6.8-16.4-13.5-24.8-19.9
						c-2.2-2.4-4.9-3.6-7.9-3.6c-22.4-1-44.7-1.7-67.1-1.9c-9.5-0.1-18.9-0.2-28.4-0.3c-11.5-0.2-23.1-0.7-34.6-1.5
						c0.8,0.1,1.7,0.2,2.5,0.3c-7.3-0.9-14.6-1.9-21.8-2.8c0.6,3,2.2,5.5,5,7.3c7.9,7.4,15.9,14.6,24.1,21.5
						c8.1,7.1,16.4,14,24.9,20.6C132.1,262.5,134.8,263.8,137.9,263.9z"/>
					<path id="XMLID_130_" class="st6" d="M136.5,291c10.7-4.8,22-6.4,33.7-4.8c12.5,0,25.1,0.1,37.6,0.4
						c24.9,0.7,49.7,2.5,74.6,4.8c-2.1-4.5-5.3-8.2-9.5-11c-13.5-12-27.1-23.9-40.9-35.5c-13.7-11.7-27.6-23.3-41.7-34.6
						c-3.5-3.7-7.7-6.2-12.4-7.5c-25.7-0.4-51.3-0.2-77-0.4c-12.2,0-24.4-0.3-36.6-1.1c-10.2-2.2-20.2-1.6-30,1.6
						c2,4.4,5.1,8.1,9.2,11c13.1,12,26.5,23.7,40,35.3c13.4,11.7,27,23.1,40.8,34.4C127.7,287.2,131.8,289.7,136.5,291z"/>
					<path id="XMLID_129_" class="st6" d="M126.1,251.8c8.8,2,17.7,3.9,26.5,5.9c0.7,0,1.4-0.1,2-0.1c5.1-0.2,10.1-0.5,15.2-0.7
						c9.4,0,18.8,0.1,28.1,0.2c12.5,0.2,24.9,0.6,37.4,1.2c15.5,0.8,30.9,2.1,46.3,3.4c2.1,0.6,2.7-0.1,1.7-2.1
						c-2.7-3.8-5.9-7.1-9.7-10c-6.7-5.9-13.5-11.6-20.5-17.1c-3.4-3.2-7.3-5.8-11.5-7.8c-25.4-1.5-50.8-2.5-76.3-2.7
						c-12.4,0-24.9-0.1-37.3-0.4c-15.6,0.9-30.4-2.4-44.5-10c-2.2-0.7-2.8,0-1.8,2c2.9,4.1,6.4,7.7,10.4,10.8
						c7.1,6.4,14.3,12.6,21.7,18.7C117.5,246.6,121.6,249.5,126.1,251.8z"/>
					<path id="XMLID_128_" class="st6" d="M125.4,267.4c12.4,0,24.8-0.2,37.2-0.8c12.5,0,25,0.1,37.4,0.4
						c24.9,0.6,49.6,2.3,74.4,4.5c-0.7-3.1-2.5-5.6-5.3-7.4c-8.2-7.5-16.6-14.7-25.2-21.7c-8.5-7.2-17.1-14.1-25.9-20.8
						c-2.3-2.5-5.1-3.8-8.2-3.9c-12.8-0.6-25.5-1-38.3-1.2c-12.7-0.2-25.4-0.3-38.1-0.3c-12.3,0-24.6-0.2-36.9-0.8
						c-11.8-0.3-23.5-1.4-35.2-3.2c0.7,3.1,2.4,5.6,5.2,7.5c8.1,7.6,16.4,15.1,24.9,22.3c8.4,7.3,17,14.5,25.7,21.3
						C119.5,265.9,122.2,267.3,125.4,267.4z"/>
					<path id="XMLID_127_" class="st6" d="M125.4,245.4c14.9,7.5,30.3,9.9,46.2,7.2c12.5-0.1,24.9,0,37.4,0.3
						c24.8,0.6,49.5,2.4,74.3,4.7c1.7,0.3,2.3-0.4,1.7-2.1c-1.8-3-4.1-5.6-7-7.7c-5-4.4-10-8.7-15.3-12.8c-2.6-2.5-5.5-4.3-8.8-5.6
						c-25.3-1.8-50.6-3.1-76-3.4c-12.4-0.1-24.8-0.1-37.1-0.1c-17.4,1.8-33.7-2.5-48.9-12.8c-1.9-0.4-2.5,0.2-1.8,2
						c2.1,3.4,4.8,6.3,8.1,8.8c5.6,5.1,11.4,10.1,17.3,14.9C118.4,241.6,121.7,243.8,125.4,245.4z"/>
					<path id="XMLID_126_" class="st6" d="M129.3,280c11.7-2.5,23.6-3.5,35.5-2.9c12.5,0,25,0.1,37.5,0.4
						c24.9,0.7,49.7,2.4,74.5,4.6c-1.5-3.9-4.1-7.1-7.8-9.6c-11.3-10.2-22.8-20.2-34.5-30c-11.6-9.9-23.3-19.6-35.3-29.1
						c-3-3.2-6.6-5.2-10.7-6.1c-25.6-0.6-51.2-0.6-76.8-0.8c-12.2,0.1-24.5-0.3-36.7-0.9c-10.6-1.4-21.3-1.4-31.9,0.2
						c1.4,3.9,3.9,7.1,7.5,9.5c11,10.1,22.2,20.1,33.6,29.8c11.3,9.8,22.8,19.4,34.4,28.8C121.8,277.2,125.3,279.2,129.3,280z"/>
					<path id="XMLID_125_" class="st6" d="M129.4,237.2c16.3,9.6,33.5,13.4,51.6,11.4c12.3-0.4,24.7-0.4,37-0.1
						c24.8,0.6,49.6,2.6,74.3,5c1.4,0,2-0.7,1.8-2c-1-2.4-2.5-4.3-4.6-5.9c-3.4-3.2-7-6.3-10.7-9.3c-1.8-1.9-4-3.1-6.5-3.8
						c-22.1-1.9-44.2-3.5-66.4-4c-9.8-0.3-19.6-0.4-29.3-0.1c-10.9,0.7-21.8,0.6-32.7-0.2c0.8,0.3,1.6,0.5,2.4,0.8
						c-14.1-5.7-28.2-11.5-42.2-17.2c-1.6-0.2-2.2,0.5-1.8,2c1.4,2.8,3.4,5.1,6,7c4.3,4,8.8,7.8,13.3,11.5
						C123.8,234.6,126.4,236.2,129.4,237.2z"/>
					<path id="XMLID_124_" class="st6" d="M132.2,247.7c14.5,6,29.3,7.9,44.5,5.8c12.5-0.1,25,0,37.5,0.3
						c24.9,0.6,49.6,2.4,74.3,4.7c1.9,0.4,2.5-0.3,1.7-2.1c-2.2-3.4-5-6.4-8.3-8.8c-5.8-5.1-11.7-10.1-17.8-14.9
						c-3-2.8-6.4-5.1-10.1-6.7c-25.4-1.8-50.8-2.9-76.3-3.2c-12.5,0-25-0.1-37.5-0.3c-16.4,1-31.9-2.8-46.4-11.3
						c-2.1-0.6-2.7,0.1-1.8,2c2.6,3.8,5.7,7.1,9.3,9.8c6.4,5.8,13,11.4,19.7,16.9C124.4,243.2,128.1,245.7,132.2,247.7z"/>
					<path id="XMLID_123_" class="st6" d="M122.2,258.1c8.1,2.1,16.3,3.2,24.5,3.4c6.1,0.2,12.3-0.1,18.4-0.9c-0.7,0-1.5,0-2.2,0
						c18.7,0.2,37.5,0.2,56.2,1c18.6,0.8,37.1,2.2,55.7,3.8c2.4,0.8,3,0.1,1.7-2.1c-3.3-4.4-7.2-8.2-11.6-11.5
						c-7.9-6.9-16-13.6-24.1-20.1c-4.1-3.7-8.5-6.9-13.4-9.4c-25.4-1.3-50.8-2-76.3-2.2c-12.4,0-24.8-0.1-37.2-0.6
						c-13.6,0.7-26.8-1.4-39.6-6.4c-2.4-0.9-3-0.2-1.8,2c3.4,4.5,7.3,8.5,11.8,12c8,7.2,16.2,14.2,24.4,21
						C112.7,252.1,117.2,255.4,122.2,258.1z"/>
				</g>
			</g>
		</g>
		<g id="XMLID_17_" class="st7">
			<g id="XMLID_109_">
				<g id="XMLID_110_">
					<path id="XMLID_119_" class="st8" d="M704.9,216.7c7.9,8.3,17.1,14.7,27.7,19.1c10.2,5.6,20.7,10.7,31.6,15.1
						c19.9,8.3,40.6,14.7,61.5,19.8c21.6,5.3,43.5,9.2,65.7,11.6c12.8,1.4,25.7,2.3,38.6,2.7c13,0.4,25.9,0.4,38.9-0.2
						c0-3-1.1-5.6-3.4-7.8c-6.1-8.3-12.5-16.4-19.1-24.4c-6.5-8.1-13.1-15.9-20-23.6c-1.7-2.7-4-4.4-7-4.9
						c-11.5-0.5-22.9-1.5-34.3-2.9c-11.4-1.4-22.7-3.2-33.9-5.3c-16.7-3.4-33.3-7.4-49.5-12.6c-15.9-5-31.7-11-46.8-18
						c-9.8-4.5-19.3-9.5-28.5-15.1c-8.1-5.1-15.8-10.6-23.3-16.5c0.6,0.6,1.2,1.1,1.7,1.7c-3.9-4.5-7.9-9-11.8-13.5
						c-0.6-0.6-1.1-1.2-1.7-1.8c-0.3,0.7-0.6,1.5-1,2.2c0,2.1,0.1,4.1,0.1,6.2c0.9,7.2,2,14.4,3.3,21.5c1.9,11,3.8,22,6.2,32.9
						c0.4,3.1,1.2,6.2,2.3,9.1C702.5,213.9,703.4,215.5,704.9,216.7z"/>
					<path id="XMLID_118_" class="st8" d="M702.4,247.6c10.1,2.2,19.2,6.4,27.5,12.6c10.4,5.6,21,10.6,31.9,14.9
						c20,8.1,40.6,14.4,61.6,19.4c21.6,5.2,43.4,8.9,65.5,11.1c12.8,1.3,25.5,2.1,38.3,2.4c12.9,0.3,25.8,0.2,38.6-0.4
						c-1.1-4.9-3.4-9.3-6.9-13.1c-10.6-15.1-21.4-30-32.5-44.7c-10.9-14.8-22.1-29.5-33.5-44c-2.7-4.5-6.2-7.9-10.6-10.4
						c-10.4-1.6-20.8-3.6-31-5.9c-10.2-2.3-20.4-5-30.5-8c-17.5-5.3-34.6-11.6-51.4-19c-16.4-7.2-32.5-15.3-47.7-25
						c-8.3-5.2-16.2-10.9-23.8-17.2c-5.4-6.5-12.2-10.7-20.3-12.7c-1.2,5-1.1,10,0.3,15c2.8,18.5,5.8,36.9,9.2,55.3
						c3.2,18.4,6.6,36.8,10.4,55.1C697.9,238.7,699.5,243.4,702.4,247.6z"/>
					<path id="XMLID_117_" class="st8" d="M696.3,201.7c3.6,9.5,9.3,16.8,17,21.9c9.6,5.3,19.2,10.4,29,15.3
						c22.1,10.5,45.4,18.4,69,24.6c24.7,6.5,49.9,11,75.3,13.6c12.9,1.3,25.8,2.2,38.8,2.5c13,0.4,26.1,0.2,39.1-0.4
						c0.5-2.2-0.2-4.2-1.9-5.9c-4.3-5.9-8.8-11.6-13.5-17.2c-4.6-5.7-9.4-11.1-14.4-16.4c-1.4-2-3.2-3-5.5-3c-9-0.1-18-0.5-26.9-1.2
						c-9-0.5-17.9-1.4-26.8-2.5c-17.6-2.2-35.4-5.4-52.6-9.7c-17-4.3-34-9.2-50.4-15.5c-5.3-2.1-10.7-4.3-16-6.4
						c-10.3-4.4-20.4-9.3-30.1-14.8c0.6,0.3,1.1,0.7,1.7,1c-5-3.1-10-6.2-15.1-9.2c0.6,0.3,1.1,0.7,1.7,1
						c-12.8-7.4-21.3-18.5-25.6-33.4c-1.2-1.9-2.1-1.7-2.7,0.5c-0.4,4.8,0,9.6,1.1,14.3c1.4,9,3,18.1,4.8,27
						C693,192.7,694.3,197.3,696.3,201.7z"/>
					<path id="XMLID_116_" class="st8" d="M693.8,221.1c8.5,6.8,17.7,12.7,27.5,17.6c10.2,5.6,20.7,10.7,31.5,15.1
						c19.9,8.3,40.4,14.7,61.3,19.8c21.6,5.3,43.4,9.2,65.5,11.6c12.8,1.4,25.6,2.3,38.4,2.8c12.9,0.4,25.8,0.4,38.7-0.1
						c-0.1-3.2-1.4-6-3.8-8.4c-6.6-9-13.5-17.9-20.6-26.5c-7-8.8-14.2-17.4-21.6-25.8c-1.8-2.9-4.3-4.7-7.4-5.5
						c-11.5-0.9-22.9-2.2-34.2-3.9c-11.3-1.7-22.5-3.8-33.7-6.4c-19.3-4.4-38.3-10.1-56.9-17c-18.1-6.7-35.8-14.4-52.5-23.9
						c-9-5-17.6-10.6-25.8-16.8c-7.8-5.8-15.1-12.3-21.7-19.4c-1.5,3-1.7,6.1-0.7,9.5c1.5,11.5,3.4,23,5.5,34.4
						c1.9,11.5,4.2,22.9,6.7,34.2C690.1,215.9,691.4,218.8,693.8,221.1z"/>
					<path id="XMLID_115_" class="st8" d="M694.4,195.9c3.8,13.6,11.5,23.1,23.1,28.5c7.1,4.3,14.5,8.2,22.1,11.6
						c13.9,6.4,28,11.9,42.5,16.6c8.9,3.1,17.9,5.7,27.1,8c6.2,1.5,12.4,3,18.6,4.4c6.8,1.4,13.7,2.9,20.6,4
						c18.7,3.1,37.4,5.3,56.3,6.6c7.1,0.5,14.2,0.7,21.3,0.9c12.6,0.3,25.1-0.1,37.7-0.6c1.6,0.5,2.3-0.1,2.1-1.7
						c-1.1-3.2-2.8-5.9-5.2-8.4c-3.9-4.9-7.9-9.7-12.1-14.4c-2-2.7-4.4-4.9-7.4-6.6c-12.3,0.2-24.7-0.1-37-0.8
						c-12.3-0.7-24.5-1.9-36.7-3.6c-18.1-2.6-36.1-5.9-53.8-10.5c-17.3-4.4-34.5-9.9-51.1-16.5c-10.7-4.2-21.2-9-31.4-14.3
						c-9.1-4.2-17.5-9.6-25.1-16c0.5,0.9,1,1.9,1.5,2.8c-6-11.2-12-22.5-18-33.7c-1.2-1.4-2.1-1.3-2.7,0.5
						c-0.5,3.7-0.4,7.5,0.6,11.2c1,7.1,2.3,14.1,3.7,21.1C691.5,189,692.6,192.6,694.4,195.9z"/>
					<path id="XMLID_114_" class="st8" d="M698.1,236c9.7,3.5,18.8,8.2,27.4,13.9c10.3,5.6,20.8,10.6,31.7,15
						c19.9,8.2,40.4,14.5,61.3,19.5c21.5,5.2,43.2,9,65.2,11.3c12.7,1.3,25.4,2.2,38.2,2.6c12.8,0.4,25.7,0.3,38.5-0.3
						c-0.7-4.2-2.5-8-5.6-11.2c-9-12.7-18.2-25.2-27.7-37.5c-9.3-12.4-18.9-24.7-28.6-36.8c-2.3-3.8-5.4-6.7-9.3-8.5
						c-10.8-1.3-21.5-3.1-32.2-5.2c-10.6-2.1-21.2-4.6-31.6-7.4c-18.2-5-36-11.1-53.4-18.3c-17-7-33.7-15-49.5-24.6
						c-8.6-5.1-16.8-10.8-24.5-17c-6.1-6.1-13.1-11-20.9-14.5c-1.3,4.2-1.3,8.5-0.1,12.9c2.3,15.8,4.9,31.5,7.7,47.2
						c2.7,15.7,5.7,31.3,8.9,46.9C693.9,228.5,695.4,232.5,698.1,236z"/>
					<path id="XMLID_113_" class="st8" d="M696.3,184.5c4.3,14.4,11,27.3,20.2,38.6c10,4.5,20.1,8.5,30.4,12.2
						c11.3,5.1,22.9,9.7,34.6,13.8c12,4.1,24.2,7.6,36.5,10.6c25.2,6.2,50.8,10.4,76.6,12.6c13,1.1,26.1,1.8,39.2,1.9
						c13.2,0.2,26.3-0.2,39.4-1c1.3,0.2,2-0.3,2.2-1.6c-0.2-2.3-1.1-4.3-2.6-6.1c-2.2-3.5-4.6-6.9-7.2-10.2c-1.2-2-2.8-3.5-4.9-4.5
						c-12.4,0.7-24.8,0.8-37.2,0.6c-12.4-0.3-24.8-1-37.1-2.2c-18.5-1.9-36.8-4.6-54.9-8.6c-9.1-1.9-18.2-4.2-27.1-6.9
						c-8.9-2.3-17.6-5.1-26.3-8.2c-11.5-4.3-22.7-9.1-33.8-14.2c-9.9-2.8-19.6-6.1-29.1-9.9c0.4,0.5,0.8,1.1,1.3,1.6
						c-6.7-14.7-13.4-29.4-20-44.1c-0.4-1.7-1.3-2.6-2.8-2.9c-1.4,0.8-1.9,2-1.7,3.7c0.3,4.2,0.8,8.3,1.6,12.5
						C694.2,176.4,695.1,180.5,696.3,184.5z"/>
					<path id="XMLID_112_" class="st8" d="M701.6,199.4c5.3,7.5,10.6,15.1,15.9,22.6c0.5,0.3,1,0.6,1.6,0.8c6.5,3.3,13,6.6,19.5,9.9
						c5.2,2.8,10.5,5.3,15.9,7.5c14.5,6.4,29.5,11.9,44.7,16.4c24.4,7.2,49.3,12.6,74.6,16c16.1,2.2,32.2,3.5,48.5,4.2
						c6.5,0.4,13,0.5,19.6,0.4c9.8,0.2,19.6-0.1,29.5-0.6c0.6-1.9,0.1-3.6-1.4-5.2c-3.6-5-7.3-9.8-11.3-14.5
						c-3.9-4.8-8-9.3-12.3-13.7c-1.3-1.8-2.9-2.5-4.9-2.3c-6.1,0-12.1-0.1-18.2-0.1c-9.1-0.2-18.1-0.7-27.2-1.5c-6-0.4-12-1-18-1.8
						c-9-1-17.9-2.3-26.8-3.9c0.6,0.1,1.2,0.2,1.8,0.3c-6.5-1.3-12.9-2.6-19.4-3.8c0.6,0.1,1.2,0.3,1.7,0.4
						c-6.4-1.5-12.8-3-19.2-4.6c0.6,0.2,1.2,0.3,1.7,0.5c-6.3-1.8-12.6-3.5-18.9-5.3c0.6,0.2,1.1,0.3,1.7,0.5c-6.2-2-12.3-4-18.5-6
						c0.6,0.2,1.1,0.4,1.7,0.6c-16.1-6-32.2-12-47.4-20.2c-4.6-2.6-9.1-5.2-13.7-7.7c-14.4-6.8-23.3-18.7-26.8-35.7
						c-1.2-1.5-2.1-1.4-2.7,0.5c-0.5,4-0.3,8,0.7,12c1.1,7.6,2.5,15.2,4,22.7C698.6,191.9,699.7,195.8,701.6,199.4z"/>
					<path id="XMLID_111_" class="st8" d="M692.3,209.8c4.9,5.8,10.2,11.2,15.9,16.2c9.7,5,19.4,10.1,29.1,15.2
						c21.9,10.6,45.2,18.5,68.6,24.8c24.6,6.6,49.7,11.1,74.9,13.8c12.8,1.4,25.7,2.3,38.6,2.7c13,0.4,26,0.4,38.9-0.2
						c0.3-2.6-0.6-4.9-2.7-6.9c-5.2-7.1-10.7-14.1-16.4-20.9c-5.6-6.9-11.3-13.6-17.3-20.1c-1.5-2.4-3.6-3.7-6.2-4
						c-11.8-0.5-23.5-1.5-35.3-2.9c-11.7-1.4-23.3-3.2-34.8-5.5c-17.1-3.5-34.1-7.6-50.8-12.9c-16.3-5.1-32.4-11.2-47.9-18.4
						c-10-4.5-19.7-9.6-29.1-15.3c-8.2-5.2-16.1-10.7-23.7-16.6c0.6,0.5,1.1,1,1.7,1.5c-4.2-5.6-8.3-11.1-12.5-16.7
						c-1.3-2.3-2.2-2.1-2.7,0.5c-0.2,5.7,0.3,11.4,1.6,16.9c1.7,10.8,3.6,21.5,5.7,32.2C688.7,199.1,690.1,204.5,692.3,209.8z"/>
				</g>
			</g>
		</g>
		<g id="XMLID_19_" class="st9">
			<g id="XMLID_108_">
				<g id="XMLID_120_">
					<path id="XMLID_229_" class="st8" d="M-87.4,264.2c6.5,0.5,12.9,1,19.4,1.4c6-0.1,12-0.1,18-0.2c16.1-0.2,32.1-0.6,48.2-1.6
						c29.5-1.8,59-4.6,88.4-8.6c26.3-3.5,52.6-7.7,78.7-12.6c32.8-6.2,65.2-13.6,97.6-21.7c-1.1-2.9-3.2-4.9-6.2-6.2
						c-9-5.8-18.1-11.3-27.3-16.6c-9.2-5.4-18.5-10.6-27.9-15.5c-2.6-2-5.4-2.7-8.5-2.3c-25.1,5.3-50.3,10.3-75.7,14.5
						c-28.5,4.7-57.1,8.5-85.8,11.5C6.1,209-19.3,211-44.8,212c-12.5,0.5-25,0.8-37.5,0.6c-6,0.1-12.1-0.2-18.1-0.7
						c-8.2-0.4-16.4-1.2-24.6-2.4c0.8,0.2,1.6,0.3,2.4,0.5c-7.1-1.6-14.1-3.2-21.2-4.7c0.3,3.1,1.7,5.7,4.2,7.8
						c7.1,8.1,14.3,16,21.8,23.7c7.4,7.8,14.9,15.4,22.7,22.8C-93,262.3-90.5,263.8-87.4,264.2z"/>
					<path id="XMLID_217_" class="st8" d="M-88.6,291.9c5.1-1.2,10.2-2.3,15.2-3.5c6.3,0.1,12.6,0.1,18.9,0.2
						c16.1,0,32.2-0.8,48.2-1.8c29.4-1.8,58.8-4.8,88-8.8c26.2-3.6,52.3-7.8,78.3-12.8c32.6-6.2,64.9-13.7,97-21.9
						c-2.7-4-6.2-7.1-10.7-9.3c-14.8-9.6-29.7-19-44.7-28.2c-15-9.3-30.1-18.4-45.4-27.2c-4-3-8.3-4.8-13.1-5.4
						c-55.9,9.8-112.2,17.3-168.8,20.9c-24.9,1.5-49.8,2.6-74.8,2.5c-15-0.1-29.9-0.6-44.8-2.2c-5.5-0.5-11-1.2-16.4-2.1
						c-7-1.7-14.1-1.5-21.1,0.6c1.6,4.7,4.3,8.6,8.2,11.9c12.1,13.4,24.4,26.5,36.8,39.5c12.4,13.1,24.9,26,37.7,38.7
						C-97,287.2-93.2,290.1-88.6,291.9z"/>
					<path id="XMLID_205_" class="st8" d="M-99,251.4c26.3,8.4,18.7,8.6,36.5,8.1c9.3-0.2,18.5-0.2,27.8-0.5
						c16.3-0.4,32.5-1.5,48.7-2.8c16.4-1.3,32.8-2.9,49.2-4.9c29.7-3.6,59.3-8.1,88.7-13.5c36.2-6.6,71.9-14.8,107.5-23.8
						c-0.4-2.3-1.8-4-4.1-5c-6.4-4.2-12.9-8.2-19.6-12c-6.6-3.9-13.4-7.5-20.2-10.9c-2.1-1.5-4.2-1.8-6.4-1
						c-34.8,7.9-69.8,15-105,20.6c-35.1,5.6-70.4,9.7-105.9,12.8c0.7-0.1,1.3-0.1,2-0.2c-7.1,0.5-14.2,1-21.2,1.6
						c0.7,0,1.3-0.1,2-0.1c-7.1,0.4-14.1,0.8-21.2,1.2c0.7,0,1.3-0.1,2-0.1c-15.6,0.6-31.2,1.1-46.9,0.6c-5.7,0-11.3-0.4-16.9-1
						c-12.7-0.3-24.4-4.5-35-12.8c-2.1-0.9-2.8-0.3-2,1.9c2.5,4.3,5.5,8.2,9.2,11.6c6.4,7,12.9,13.8,19.6,20.5
						C-106.9,245.5-103.2,248.8-99,251.4z"/>
					<path id="XMLID_193_" class="st8" d="M-99.5,267.8c6.4,0.4,12.7,0.8,19.1,1.2c6-0.1,11.9-0.1,17.9-0.2
						c16.1-0.2,32.1-0.5,48.1-1.5c29.5-1.7,59-4.6,88.3-8.5c26.3-3.5,52.5-7.7,78.6-12.5c32.7-6.1,65.2-13.6,97.5-21.6
						c-1.2-2.9-3.3-5-6.4-6.4c-9.2-5.9-18.6-11.6-28.1-17c-9.4-5.6-19-10.9-28.7-16c-2.7-2-5.6-2.8-8.7-2.4
						c-28.4,5.8-56.9,11.2-85.6,15.5c-28.6,4.3-57.3,7.9-86.1,10.4c-25.4,2.2-50.8,4-76.3,4.5c-15.3,0.3-30.6,0.3-45.9-0.9
						c-5.6-0.3-11.1-0.8-16.6-1.6c-8.8-0.8-17.5-2.4-26-4.7c0.4,3.2,1.9,5.9,4.5,8c7.4,8.5,15,16.7,22.8,24.8
						c7.7,8.2,15.6,16.2,23.7,23.9C-105.3,265.7-102.7,267.3-99.5,267.8z"/>
					<path id="XMLID_181_" class="st8" d="M-99.8,245.2c9.6,3.6,19.2,7.2,28.7,10.9c5.7-0.2,11.3-0.4,17-0.6
						c9.6,0,19.2-0.3,28.7-0.8c6.5-0.2,13-0.6,19.5-1.1c29.6-1.9,59.2-4.9,88.6-8.9c26.4-3.6,52.7-7.9,78.9-12.9
						c32.9-6.3,65.4-13.9,97.8-22.2c1.8,0,2.2-0.8,1.3-2.3c-2.4-2.7-5.2-4.9-8.5-6.5c-5.8-3.6-11.8-6.9-17.8-10.2
						c-3.1-2-6.4-3.4-9.9-4.1c-28.6,6.9-57.3,13.2-86.2,18.5c-28.8,5.3-57.8,9.9-86.9,13.4c-25.7,3.1-51.5,5.6-77.4,7.1
						c-15.7,0.9-31.4,1.5-47.2,1.4c-5.5,0.1-11.1,0-16.6-0.4c-14.8,0.3-28-5.2-39.8-16.4c-1.8-0.6-2.5,0-2,1.9
						c1.8,3.6,4.1,6.7,7.1,9.4c5,5.6,10.2,11,15.6,16.3C-106.3,240.8-103.3,243.2-99.8,245.2z"/>
					<path id="XMLID_169_" class="st8" d="M-95.3,280.7c5.6-0.5,11.3-1,16.9-1.5c6.2,0,12.4,0.1,18.5,0.1c16.1,0,32.1-0.6,48.1-1.6
						c29.4-1.8,58.8-4.6,88.1-8.6c26.2-3.5,52.4-7.7,78.4-12.6c32.6-6.1,65-13.6,97.2-21.6c-2-3.6-5-6.3-9-8.1
						c-12.5-8.2-25.1-16.1-37.9-23.8c-12.7-7.8-25.6-15.4-38.6-22.8c-3.4-2.7-7.2-4.1-11.3-4.2c-56.2,10.5-112.8,18.6-169.9,22.7
						c-25.1,1.8-50.2,3.1-75.4,3.3c-15.1,0.1-30.2-0.3-45.3-1.7c-5.5-0.4-11.1-1-16.6-1.8c-7.5-1.4-15.2-1.7-22.8-1
						c1.1,4.1,3.3,7.5,6.7,10.3c10.1,11.3,20.4,22.4,31,33.3c10.4,11,21,21.9,31.9,32.5C-102.7,277-99.4,279.4-95.3,280.7z"/>
					<path id="XMLID_157_" class="st8" d="M-96,236.9c10.2,4.5,20.4,9.1,30.5,13.6c3.6,1.9,7.4,2.4,11.6,1.4
						c6.1,0.6,12.2,0.6,18.3,0c6.3-0.3,12.7-0.7,19-1c32.9-1.8,65.8-4.9,98.5-9.2c29.7-3.9,59.2-8.8,88.6-14.5
						c32.8-6.4,65.3-14.1,97.6-22.5c5.4-1.4-4.5-7.3-4.8-7.4c-4.3-2.7-8.7-5.1-13.2-7.4c-2.3-1.6-4.8-2.4-7.5-2.6
						c-25.3,6.3-50.7,12.3-76.2,17.4c-28.7,5.8-57.6,10.7-86.6,14.7c-25.7,3.6-51.5,6.4-77.3,8.4c-13,1-26,1.8-39,2.5
						c-6.1,0.3-12.2,0.7-18.3,1c-8.6,1-17.1,0.5-25.6-1.5c0.8,0.3,1.5,0.7,2.3,1c-13.3-6.9-26.6-13.8-40-20.7
						c-1.5-0.3-2.2,0.3-2,1.9c1.1,2.8,2.8,5.3,5.1,7.4c3.8,4.2,7.7,8.3,11.8,12.3C-101.2,233.9-98.8,235.7-96,236.9z"/>
					<path id="XMLID_144_" class="st8" d="M-93,247.3c9,3.1,17.9,6.1,26.9,9.2c5.8-0.1,11.6-0.2,17.4-0.3c9.6,0,19.2-0.2,28.8-0.7
						c6.5-0.2,13-0.5,19.5-1c29.6-1.9,59.2-4.8,88.6-8.9c26.4-3.6,52.7-7.9,78.8-12.9c32.8-6.3,65.3-13.8,97.7-22.1
						c2,0.1,2.5-0.7,1.3-2.3c-2.9-3-6.3-5.5-10.1-7.4c-6.8-4.1-13.8-8.1-20.8-11.9c-3.6-2.3-7.4-4-11.5-5c-28.5,6.7-57,13-85.8,18.2
						c-28.7,5.2-57.6,9.7-86.5,13.1c-25.6,3-51.3,5.4-77,6.8c-15.7,0.9-31.3,1.4-47,1.1c-5.7,0.1-11.3-0.2-16.9-0.8
						c-13.7-0.2-26.1-5-37.3-14.5c-2-0.8-2.6-0.1-2,1.9c2.1,3.9,4.8,7.5,8.1,10.5c5.7,6.3,11.6,12.4,17.6,18.4
						C-100.3,242.2-96.9,245-93,247.3z"/>
					<path id="XMLID_132_" class="st8" d="M-102.7,258c7.6,1.7,15.1,3.4,22.7,5.2c3.6,0.6,7.3,0.6,10.9,0c12.5-0.4,25-0.3,37.6-0.8
						c32.8-1.3,65.5-4.3,98-8.3c29.7-3.7,59.2-8.3,88.6-13.9c32.8-6.2,65.3-13.7,97.6-21.8c-0.7-2.5-2.4-4.4-5-5.5
						c-7.5-4.9-15.1-9.5-22.8-13.9c-7.7-4.5-15.5-8.8-23.4-12.8c-2.3-1.7-4.7-2.2-7.3-1.5c-25.3,5.5-50.7,10.7-76.3,15
						c-25.5,4.3-51.1,8-76.8,10.9c-25.6,2.9-51.2,5.2-76.9,6.7c-12.7,0.7-25.4,1.2-38.1,1.4c-12.2,0.3-24.4-0.1-36.6-1.1
						c0.7,0.1,1.5,0.1,2.2,0.2c-6-0.5-11.9-1.1-17.9-1.6c0.7,0.1,1.5,0.2,2.2,0.3c-7.4-2.6-14.9-5.2-22.3-7.9c-2.3-1.1-3-0.5-2,1.9
						c2.9,4.8,6.5,9.2,10.6,13.1c7.3,7.9,14.7,15.7,22.3,23.3C-111.6,251.1-107.4,254.8-102.7,258z"/>
				</g>
			</g>
		</g>
	</g>
	<g id="XMLID_510_" class="st10">
		<circle id="XMLID_364_" class="st11" cx="258.6" cy="571.2" r="405"/>
		<circle id="XMLID_363_" class="st12" cx="258.6" cy="600.5" r="279.7"/>
		<circle id="XMLID_155_" class="st13" cx="258.6" cy="600.5" r="157.5"/>
		<circle id="XMLID_11_" class="st14" cx="258.6" cy="600.5" r="82.1"/>
		<circle id="XMLID_2_" class="st15" cx="364.3" cy="1257" r="82.1"/>
		<polygon id="XMLID_1_" class="st16" points="391.8,799.3 486.3,622.3 590.5,532.6 710.5,544.2 796.6,479.3 854.7,544.2 
			983.2,639.3 1068,755.6 1111.6,818.6 		"/>
		<path id="XMLID_365_" class="st17" d="M486.3,622.3l81.3,47.8c0,0,87.2,23.5,94.1,23.7c6.9,0.2,202,23.6,202,23.6l48.1,46.4
			c0,0-133.3,51.7-134.9,52.1c-1.6,0.4-282.3-10.5-283.5-10.9c-1.2-0.4-46.1-109.7-46.1-109.7L486.3,622.3z"/>
		<path id="XMLID_10_" class="st18" d="M8.9,909.4l126-228.9l135.7-80l46.1,67.9c0,0,145.4,33.9,157.5,29.1
			c12.1-4.8,84.8,29.1,84.8,29.1s41.2,65.4,55.7,65.4S782,755,782,755l48.5-69.6l89.7-109.1l96.9-43.6c0,0,63,77.6,65.4,84.8
			c2.4,7.3,145.4,128.5,152.7,128.5c7.3,0,36.4,82.4,36.4,82.4l140.6,81.1H8.9z"/>
		<polygon id="XMLID_362_" class="st13" points="44.6,909.4 92,800.8 131.3,753.9 188.4,649 134.9,680.5 8.9,909.4 		"/>
		<path id="XMLID_366_" class="st19" d="M316.7,668.4c0,0,38.7,19.3,46.2,22.5c7.5,3.2,59.2,18.3,62.5,19.4s46.3,25.3,55.5,30.2
			c9.2,4.8,50.1,30.2,54.1,34.5c4,4.3,59.5,46.9,63.3,48.5c3.8,1.6,53.3,12.4,57.6,12.4s58.2,18.3,60.9,18.8s-114.2-44.7-114.2-44.7
			s-27.5-31.8-29.1-30.7s-50.1-29.1-52.8-29.6c-2.7-0.5-91-45.8-91-45.8l-37.9-18.9L316.7,668.4z"/>
		<path id="XMLID_369_" class="st16" d="M425.4,710.3l66.7,36.7l34.4,21.7l71.8,54.7l60.3,12.9l58.2,18.3l70,54.8H256.8l23.2-71.5
			c0,0,32.9-41.5,33.9-44.2s57.4-99.9,57.4-99.9L425.4,710.3z"/>
		<polygon id="XMLID_370_" class="st20" points="44.6,909.4 92,800.8 131.3,753.9 214.2,761.5 251.9,783 351.6,807.2 432.4,909.4 		
			"/>
		<polygon id="XMLID_372_" class="st18" points="486.3,622.3 567.7,670.2 655.4,692.7 751.7,704.1 648.4,663.2 609.7,635.8 
			553.9,611.2 525.1,588.9 		"/>
		<polygon id="XMLID_483_" class="st16" points="749.4,880.2 833.1,801.6 956.7,742.5 1059.7,734.1 1130,770.4 1271.6,828.3 
			1168.7,909.4 786.7,909.4 		"/>
		<g id="XMLID_487_">
			<polygon id="XMLID_486_" class="st21" points="738.1,276.5 734.4,270 738.1,263.5 745.6,263.5 749.4,270 745.6,276.5 			"/>
			<polygon id="XMLID_488_" class="st21" points="943.7,494.3 939.4,486.8 943.7,479.3 952.4,479.3 956.7,486.8 952.4,494.3 			"/>
			<polygon id="XMLID_490_" class="st21" points="295.5,335.7 291.2,328.2 295.5,320.7 304.2,320.7 308.5,328.2 304.2,335.7 			"/>
			<polygon id="XMLID_491_" class="st21" points="141.2,442.9 138.5,438.2 141.2,433.6 146.6,433.6 149.3,438.2 146.6,442.9 			"/>
			<polygon id="XMLID_493_" class="st21" points="483.8,233.3 481.5,229.2 483.8,225.2 488.5,225.2 490.9,229.2 488.5,233.3 			"/>
			<polygon id="XMLID_492_" class="st21" points="478.8,548.5 476.2,543.9 478.8,539.3 484.1,539.3 486.8,543.9 484.1,548.5 			"/>
			<polygon id="XMLID_489_" class="st21" points="679.4,427.9 675.5,421.1 679.4,414.3 687.3,414.3 691.2,421.1 687.3,427.9 			"/>
		</g>
		<g id="XMLID_495_" class="st22">
			<polygon id="XMLID_502_" class="st21" points="728.8,1403.6 725.1,1397.1 728.8,1390.6 736.3,1390.6 740.1,1397.1 736.3,1403.6 
							"/>
			<polygon id="XMLID_501_" class="st21" points="934.4,1621.4 930.1,1613.9 934.4,1606.4 943.1,1606.4 947.4,1613.9 943.1,1621.4 
							"/>
			<polygon id="XMLID_500_" class="st21" points="286.2,1462.8 281.9,1455.3 286.2,1447.8 294.9,1447.8 299.2,1455.3 294.9,1462.8 
							"/>
			<polygon id="XMLID_499_" class="st21" points="131.9,1570 129.2,1565.3 131.9,1560.6 137.3,1560.6 140,1565.3 137.3,1570 			"/>
			<polygon id="XMLID_498_" class="st21" points="474.5,1360.4 472.2,1356.3 474.5,1352.2 479.2,1352.2 481.6,1356.3 479.2,1360.4 
							"/>
			<polygon id="XMLID_497_" class="st21" points="469.5,1675.6 466.9,1671 469.5,1666.4 474.8,1666.4 477.5,1671 474.8,1675.6 			
				"/>
			<polygon id="XMLID_496_" class="st21" points="670.1,1555 666.2,1548.2 670.1,1541.4 678,1541.4 681.9,1548.2 678,1555 			"/>
		</g>
		<g id="XMLID_503_" class="st23">
			<g id="XMLID_494_">
				<line id="XMLID_88_" class="st24" x1="101" y1="1666.4" x2="308.5" y2="1666.4"/>
				<g id="XMLID_83_">
					<path id="XMLID_87_" class="st25" d="M101,1671.4c23.5,0,46.9,0,70.4,0c37.2,0,74.3,0,111.5,0c8.5,0,17.1,0,25.6,0
						c6.4,0,6.4-10,0-10c-23.5,0-46.9,0-70.4,0c-37.2,0-74.3,0-111.5,0c-8.5,0-17.1,0-25.6,0C94.6,1661.4,94.6,1671.4,101,1671.4
						L101,1671.4z"/>
				</g>
			</g>
			<g id="XMLID_504_">
				<line id="XMLID_81_" class="st24" x1="312.4" y1="1598.4" x2="416.1" y2="1598.4"/>
				<g id="XMLID_76_">
					<path id="XMLID_80_" class="st25" d="M312.4,1603.4c30.3,0,60.5,0,90.8,0c4.3,0,8.7,0,13,0c6.4,0,6.4-10,0-10
						c-30.3,0-60.5,0-90.8,0c-4.3,0-8.7,0-13,0C306,1593.4,305.9,1603.4,312.4,1603.4L312.4,1603.4z"/>
				</g>
			</g>
			<g id="XMLID_506_">
				<line id="XMLID_74_" class="st24" x1="447.3" y1="1598.4" x2="679.5" y2="1598.4"/>
				<g id="XMLID_69_">
					<path id="XMLID_73_" class="st25" d="M447.3,1603.4c26.1,0,52.2,0,78.3,0c41.7,0,83.3,0,125,0c9.6,0,19.3,0,28.9,0
						c6.4,0,6.4-10,0-10c-26.1,0-52.2,0-78.3,0c-41.7,0-83.3,0-125,0c-9.6,0-19.3,0-28.9,0C440.8,1593.4,440.8,1603.4,447.3,1603.4
						L447.3,1603.4z"/>
				</g>
			</g>
			<g id="XMLID_507_">
				<line id="XMLID_67_" class="st24" x1="894.4" y1="1548.2" x2="1126.6" y2="1548.2"/>
				<g id="XMLID_62_">
					<path id="XMLID_66_" class="st25" d="M894.4,1553.2c26.1,0,52.2,0,78.3,0c41.7,0,83.3,0,125,0c9.6,0,19.3,0,28.9,0
						c6.4,0,6.4-10,0-10c-26.1,0-52.2,0-78.3,0c-41.7,0-83.3,0-125,0c-9.6,0-19.3,0-28.9,0C887.9,1543.2,887.9,1553.2,894.4,1553.2
						L894.4,1553.2z"/>
				</g>
			</g>
			<g id="XMLID_508_">
				<line id="XMLID_91_" class="st24" x1="847.6" y1="1548.2" x2="874.6" y2="1548.2"/>
				<g id="XMLID_68_">
					<path id="XMLID_90_" class="st25" d="M847.6,1553.2c9,0,18,0,27,0c6.4,0,6.4-10,0-10c-9,0-18,0-27,0
						C841.1,1543.2,841.1,1553.2,847.6,1553.2L847.6,1553.2z"/>
				</g>
			</g>
			<g id="XMLID_505_">
				<line id="XMLID_100_" class="st24" x1="621.4" y1="1698.5" x2="1403.4" y2="1698.5"/>
				<g id="XMLID_92_">
					<path id="XMLID_99_" class="st25" d="M621.4,1703.5c7,0,13.9,0,20.9,0c19,0,37.9,0,56.9,0c28,0,56.1,0,84.1,0
						c34.2,0,68.4,0,102.7,0c37.5,0,75,0,112.4,0c37.8,0,75.7,0,113.5,0c35.3,0,70.6,0,105.9,0c29.8,0,59.6,0,89.5,0
						c21.4,0,42.9,0,64.3,0c10.2,0,20.4,0.3,30.5,0c0.4,0,0.9,0,1.3,0c6.4,0,6.4-10,0-10c-7,0-13.9,0-20.9,0c-19,0-37.9,0-56.9,0
						c-28,0-56.1,0-84.1,0c-34.2,0-68.4,0-102.7,0c-37.5,0-75,0-112.4,0c-37.8,0-75.7,0-113.5,0c-35.3,0-70.6,0-105.9,0
						c-29.8,0-59.6,0-89.5,0c-21.4,0-42.9,0-64.3,0c-10.2,0-20.4-0.3-30.5,0c-0.4,0-0.9,0-1.3,0
						C614.9,1693.5,614.9,1703.5,621.4,1703.5L621.4,1703.5z"/>
				</g>
			</g>
		</g>
		<g id="XMLID_485_" class="st26">
			<polygon id="XMLID_356_" class="st16" points="1029.9,1019.3 935.2,1196.6 830.8,1286.5 710.5,1274.9 624.3,1339.9 566,1274.9 
				437.3,1179.6 352.2,1063 308.5,999.8 			"/>
			<path id="XMLID_275_" class="st18" d="M1413.7,908.9l-126.3,229.4l-136,80.2l-46.2-68c0,0-145.7-34-157.9-29.1s-85-29.1-85-29.1
				s-41.3-65.6-55.9-65.6s-167.6,37.1-167.6,37.1l-48.6,69.8l-89.9,109.3l-97.2,43.7c0,0-63.2-77.7-65.6-85s-145.7-128.7-153-128.7
				c-7.3,0-36.4-82.6-36.4-82.6L7.3,908.9H1413.7z"/>
		</g>
	</g>
	<g id="XMLID_14_" class="st27">
		<ellipse id="XMLID_12_" class="st28" cx="120.3" cy="1440.3" rx="58.2" ry="27.9"/>
		<ellipse id="XMLID_16_" class="st29" cx="120.3" cy="1440.8" rx="42.1" ry="20.2"/>
		<ellipse id="XMLID_18_" class="st30" cx="120.3" cy="1440.8" rx="20.4" ry="9.8"/>
		<ellipse id="XMLID_20_" class="st30" cx="120.3" cy="1440.3" rx="4.9" ry="2.3"/>
	</g>
</g>
<g id="XMLID_41_">
	<path id="XMLID_97_" class="st31" d="M843.1,5.2L220.3,5.6C141.2,5.5,91,68.9,90.9,128.5l-1.1,1660.7c0,36.3-1.3,124.7,138.2,124.9
		l612.1,0.8c123.7,0.2,136.4-62.5,136.5-121.6l5.5-1665.4C982.3,67.7,952.4,5.4,843.1,5.2z M946.1,1687.1l-824.3-1.1l2-1464.1
		l824.3,1.1L946.1,1687.1z"/>
	<path id="XMLID_50_" class="st32" d="M416,120.9c0,7.3-5.9,13.1-13.2,13.1c-7.3,0-13.1-5.9-13.1-13.2c0-7.3,5.9-13.1,13.2-13.1
		C410.2,107.8,416,113.7,416,120.9"/>
	<path id="XMLID_49_" class="st32" d="M544.8,55.7c0,5.2-4.3,9.5-9.5,9.5c-5.2,0-9.5-4.3-9.5-9.5c0-5.3,4.3-9.5,9.5-9.5
		C540.5,46.1,544.8,50.4,544.8,55.7"/>
	<path id="XMLID_48_" class="st32" d="M604.5,121.6c0-4-2.2-7.1-5-7.1l-122.5-0.2c-2.7,0-5,3.1-5,7.1c0,4,2.2,7.1,5,7.1l122.5,0.2
		C602.3,128.6,604.5,125.5,604.5,121.6z"/>
	<path id="XMLID_47_" class="st33" d="M602.9,1802.3c0,37.3-30.3,67.5-67.6,67.4c-37.3,0-67.5-30.3-67.4-67.6
		c0-37.3,30.3-67.5,67.6-67.4C572.8,1734.7,603,1765,602.9,1802.3z"/>
	<path id="XMLID_46_" class="st32" d="M990.8,491.6c0,2-2.5,4.8-5.2,4.8h-0.9c-2.7,0-3.1-2.8-3.1-4.8l0.2-123.1c0-2,0.4-4.2,3.1-4.2
		h0.9c2.7,0,5.2,2.2,5.2,4.2L990.8,491.6z"/>
	<path id="XMLID_45_" class="st32" d="M88.9,315.6c0,1.5-0.8,2.3-2.2,2.3h-0.5c-1.4,0-1.6-0.8-1.6-2.3l0.1-89.8c0-1.5,0.2-4,1.6-4
		l0.5,0c1.4,0,2.2,2.5,2.2,4L88.9,315.6z"/>
	<path id="XMLID_44_" class="st32" d="M88.4,666.6c0,2-0.8,3.1-2.2,3.1h-0.5c-1.4,0-1.6-1.1-1.6-3.1l0.2-122.8c0-2,0.2-4.1,1.6-4.1
		h0.5c1.4,0,2.2,2.1,2.2,4.1L88.4,666.6z"/>
	<path id="XMLID_43_" class="st32" d="M88.6,490.9c0,2-0.8,4.3-2.2,4.3h-0.5c-1.4,0-1.6-2.3-1.6-4.3l0.2-122.8c0-2,0.2-5,1.6-5
		l0.5,0c1.4,0,2.2,3,2.2,5L88.6,490.9z"/>
</g>
</svg>
