<?xml version="1.0" encoding="utf-8"?>
<!-- Generator: Adobe Illustrator 21.1.0, SVG Export Plug-In . SVG Version: 6.00 Build 0)  -->
<svg version="1.1" id="Layer_1" xmlns="http://www.w3.org/2000/svg" xmlns:xlink="http://www.w3.org/1999/xlink" x="0px" y="0px"
	 viewBox="0 0 750 145" style="enable-background:new 0 0 750 145;" xml:space="preserve">
<style type="text/css">
	.st0{fill:#F0F969;}
</style>
<rect x="11" y="16" class="st0" width="429" height="115"/>
<g>
	<path d="M119.2,81.9l-1,15.3H75v-2.6c0.7,0,1.7-0.2,2.9-0.3c1.2-0.2,2-0.3,2.4-0.5c0.8-0.4,1.3-0.8,1.6-1.4
		c0.3-0.6,0.5-1.3,0.5-2.2V52.7c0-0.8-0.1-1.5-0.4-2.1c-0.3-0.6-0.8-1.1-1.7-1.5c-0.7-0.3-1.5-0.6-2.7-0.8c-1.1-0.2-2-0.4-2.7-0.4
		v-2.6h40.3v12.6h-2.8c-0.5-1.9-1.5-3.8-3.2-5.9c-1.6-2.1-3.2-3.2-4.6-3.4c-0.8-0.1-1.7-0.2-2.7-0.2c-1.1,0-2.3-0.1-3.6-0.1h-8.2
		v20.7h5.9c1.9,0,3.3-0.2,4.1-0.5c0.9-0.4,1.6-0.9,2.3-1.8c0.5-0.7,1-1.7,1.4-2.8c0.4-1.2,0.6-2.3,0.8-3.4h2.8v20.4h-2.8
		c-0.1-1.2-0.4-2.4-0.8-3.7c-0.4-1.3-0.9-2.3-1.3-2.8c-0.8-1-1.6-1.6-2.6-1.9c-1-0.3-2.2-0.4-3.8-0.4h-5.9v15.6
		c0,1.6,0.1,2.8,0.3,3.7s0.6,1.6,1.3,2.1c0.6,0.5,1.5,0.8,2.6,0.9s2.7,0.2,4.7,0.2c0.8,0,1.9,0,3.2,0c1.3,0,2.4,0,3.3-0.1
		c0.9-0.1,1.9-0.3,2.9-0.5c1-0.3,1.7-0.6,2.1-1c1.1-1.2,2.3-3,3.5-5.3c1.2-2.4,2-4.1,2.4-5.3H119.2z"/>
	<path d="M163.6,97.2h-17.7v-2.4c0.6,0,1.2-0.1,1.9-0.1c0.7,0,1.2-0.1,1.7-0.3c0.7-0.2,1.2-0.6,1.5-1.2c0.3-0.6,0.5-1.3,0.5-2.1
		V72.4c0-2.6-0.6-4.6-1.8-5.9c-1.2-1.4-2.7-2.1-4.4-2.1c-1.3,0-2.5,0.2-3.6,0.6c-1.1,0.4-2,0.9-2.9,1.5c-0.8,0.6-1.5,1.2-1.9,1.8
		c-0.5,0.6-0.8,1.2-1,1.6v20.8c0,0.8,0.2,1.5,0.5,2.1c0.3,0.5,0.9,1,1.5,1.2c0.5,0.2,1.1,0.4,1.7,0.5c0.6,0.1,1.2,0.2,1.9,0.3v2.4
		h-17.7v-2.4c0.6,0,1.1-0.1,1.7-0.1c0.6,0,1.1-0.1,1.6-0.3c0.7-0.2,1.2-0.6,1.5-1.2c0.3-0.5,0.5-1.3,0.5-2.1V68.7
		c0-0.8-0.2-1.6-0.5-2.3c-0.4-0.7-0.9-1.3-1.5-1.7c-0.5-0.3-1-0.5-1.7-0.6c-0.6-0.1-1.3-0.2-2.1-0.3v-2.4l12-0.8l0.5,0.5v5.1h0.2
		c0.6-0.6,1.3-1.3,2.2-2.1c0.9-0.8,1.7-1.5,2.5-2c0.9-0.6,2-1.1,3.2-1.5c1.2-0.4,2.7-0.6,4.2-0.6c3.5,0,6.1,1.1,7.7,3.2
		c1.7,2.2,2.5,5,2.5,8.6v18.8c0,0.9,0.1,1.5,0.4,2.1c0.3,0.5,0.8,0.9,1.5,1.2c0.6,0.2,1.1,0.4,1.5,0.5c0.4,0.1,1,0.2,1.8,0.2V97.2z"
		/>
	<path d="M224.5,97.2h-10.9c-1.9-2.8-4-5.7-6.1-8.9c-2.2-3.2-4.4-6.2-6.8-9.2l-3,2.8v8.6c0,0.9,0.2,1.6,0.5,2.2
		c0.3,0.6,0.8,1,1.5,1.3c0.6,0.2,1.1,0.4,1.7,0.5c0.5,0.1,1.2,0.2,1.9,0.3v2.4h-17.7v-2.4c0.6,0,1.1-0.1,1.7-0.2
		c0.6-0.1,1.1-0.2,1.5-0.3c0.7-0.2,1.2-0.6,1.5-1.2c0.3-0.5,0.5-1.3,0.5-2.1V48.9c0-0.9-0.2-1.8-0.6-2.6c-0.4-0.8-0.9-1.4-1.5-1.8
		c-0.5-0.4-1.3-0.6-2.4-0.8c-1.1-0.1-2-0.2-2.6-0.3v-2.3l13.4-0.8l0.5,0.5v38.3c1.9-1.9,4-4,6.2-6.1s4.1-4.1,5.6-5.9
		c0.2-0.2,0.4-0.5,0.6-0.9c0.2-0.4,0.3-0.6,0.3-0.9c0-0.7-0.5-1.2-1.6-1.5c-1.1-0.3-2.1-0.5-3.1-0.7V61h15.9v2.3
		c-2.1,0.6-3.9,1.4-5.5,2.3c-1.6,0.9-2.8,1.7-3.6,2.5c-0.6,0.5-1.4,1.3-2.5,2.4c-1.1,1.1-2.6,2.5-4.5,4.3c2,2.5,4.3,5.4,6.8,8.9
		c2.5,3.5,4.3,5.9,5.5,7.5c1.1,1.4,2,2.4,2.9,2.8c0.9,0.4,2.1,0.7,3.7,0.8V97.2z"/>
	<path d="M265.2,96.5l-11.8,0.8l-0.6-0.5v-4.6h-0.2c-0.6,0.6-1.2,1.3-2,2c-0.7,0.7-1.6,1.3-2.5,1.9c-1.1,0.7-2.2,1.2-3.2,1.5
		c-1,0.3-2.5,0.5-4.4,0.5c-3.2,0-5.6-1-7.3-3.1c-1.7-2.1-2.5-5.1-2.5-9.1V68.6c0-0.9-0.2-1.6-0.5-2.2c-0.3-0.6-0.8-1.1-1.5-1.6
		c-0.4-0.3-1-0.5-1.7-0.6c-0.7-0.1-1.4-0.2-2.1-0.3v-2.4l12.1-0.9l0.6,0.5v25.1c0,2.6,0.6,4.6,1.8,5.9s2.6,2,4.2,2
		c1.3,0,2.5-0.2,3.6-0.6c1.1-0.4,1.9-0.9,2.6-1.5c0.7-0.5,1.2-1.1,1.7-1.6c0.5-0.6,0.9-1.1,1.2-1.6V68.3c0-0.8-0.2-1.5-0.5-2.1
		c-0.3-0.6-0.8-1.2-1.4-1.6c-0.4-0.3-1.1-0.5-2-0.5c-0.9-0.1-1.8-0.1-2.9-0.2v-2.4l13.2-0.9l0.6,0.5v28.7c0,0.8,0.2,1.5,0.5,2.1
		c0.3,0.6,0.8,1.1,1.4,1.5c0.4,0.3,1,0.4,1.6,0.5c0.6,0.1,1.3,0.1,2,0.2V96.5z"/>
	<path d="M309.6,97.2h-17.7v-2.4c0.6,0,1.2-0.1,1.9-0.1c0.7,0,1.2-0.1,1.7-0.3c0.7-0.2,1.2-0.6,1.5-1.2c0.3-0.6,0.5-1.3,0.5-2.1
		V72.4c0-2.6-0.6-4.6-1.8-5.9c-1.2-1.4-2.7-2.1-4.4-2.1c-1.3,0-2.5,0.2-3.6,0.6c-1.1,0.4-2,0.9-2.9,1.5c-0.8,0.6-1.5,1.2-1.9,1.8
		c-0.5,0.6-0.8,1.2-1.1,1.6v20.8c0,0.8,0.2,1.5,0.5,2.1s0.9,1,1.5,1.2c0.5,0.2,1.1,0.4,1.7,0.5c0.6,0.1,1.2,0.2,1.9,0.3v2.4h-17.7
		v-2.4c0.6,0,1.1-0.1,1.7-0.1c0.6,0,1.1-0.1,1.6-0.3c0.7-0.2,1.2-0.6,1.5-1.2c0.3-0.5,0.5-1.3,0.5-2.1V68.7c0-0.8-0.2-1.6-0.5-2.3
		c-0.4-0.7-0.9-1.3-1.5-1.7c-0.5-0.3-1-0.5-1.7-0.6c-0.6-0.1-1.3-0.2-2.1-0.3v-2.4l12-0.8l0.5,0.5v5.1h0.2c0.6-0.6,1.3-1.3,2.2-2.1
		c0.9-0.8,1.7-1.5,2.5-2c0.9-0.6,2-1.1,3.2-1.5c1.2-0.4,2.7-0.6,4.2-0.6c3.5,0,6.1,1.1,7.7,3.2c1.7,2.2,2.5,5,2.5,8.6v18.8
		c0,0.9,0.1,1.5,0.4,2.1c0.3,0.5,0.8,0.9,1.5,1.2c0.6,0.2,1.1,0.4,1.5,0.5c0.4,0.1,1,0.2,1.8,0.2V97.2z"/>
	<path d="M337.9,79.5c1,0.9,1.8,1.9,2.3,3c0.5,1.2,0.8,2.6,0.8,4.2c0,3.4-1.3,6.1-3.8,8.2c-2.5,2.1-5.8,3.2-9.7,3.2
		c-2.1,0-4-0.4-5.8-1.1c-1.8-0.8-3-1.5-3.8-2.1l-0.7,2.4h-2.8l-0.4-12.6h2.5c0.2,1,0.6,2.1,1.2,3.4c0.6,1.3,1.4,2.4,2.3,3.5
		c1,1.1,2.1,2,3.4,2.7c1.3,0.7,2.8,1.1,4.5,1.1c2.3,0,4.2-0.5,5.4-1.6c1.3-1.1,1.9-2.6,1.9-4.6c0-1-0.2-1.9-0.6-2.7
		c-0.4-0.7-1-1.4-1.8-2c-0.8-0.6-1.8-1.1-3-1.5c-1.2-0.5-2.5-0.9-3.9-1.3c-1.2-0.3-2.4-0.8-3.8-1.4c-1.4-0.6-2.6-1.3-3.6-2.1
		c-1.1-0.9-2-1.9-2.6-3.2c-0.7-1.2-1-2.7-1-4.4c0-3,1.1-5.5,3.3-7.5s5.2-3.1,8.8-3.1c1.4,0,2.9,0.2,4.3,0.6c1.5,0.4,2.7,0.8,3.6,1.3
		l0.8-1.9h2.6l0.6,11.6h-2.5c-0.5-2.6-1.6-4.7-3.3-6.4c-1.7-1.6-3.8-2.5-6.2-2.5c-2,0-3.6,0.5-4.7,1.5c-1.1,1-1.7,2.2-1.7,3.7
		c0,1.1,0.2,2,0.6,2.8s0.9,1.4,1.7,1.9c0.7,0.5,1.7,0.9,2.8,1.4c1.1,0.4,2.5,0.9,4.1,1.4c1.6,0.5,3.1,1.1,4.6,1.8
		C335.8,77.9,337,78.6,337.9,79.5z"/>
	<path d="M368.9,95.6c-1.6,0.7-3.1,1.2-4.5,1.7c-1.4,0.5-3.2,0.7-5.2,0.7c-3,0-5.2-0.8-6.4-2.3c-1.2-1.5-1.9-3.7-1.9-6.5V64.7h-6.5
		v-3.5h6.7V49.9h6.7v11.3h10.4v3.5h-10.3v20.2c0,1.5,0.1,2.8,0.2,3.8c0.1,1,0.4,1.9,0.8,2.7c0.4,0.7,1,1.2,1.8,1.6
		c0.8,0.4,1.8,0.5,3.2,0.5c0.6,0,1.5-0.1,2.7-0.2c1.2-0.1,2-0.3,2.5-0.4V95.6z"/>
	<path d="M390,97.2h-17.5v-2.4c0.6,0,1.1-0.1,1.7-0.1s1.1-0.1,1.6-0.3c0.7-0.2,1.2-0.6,1.5-1.2c0.3-0.5,0.5-1.3,0.5-2.1V68.7
		c0-0.8-0.2-1.5-0.5-2.1c-0.4-0.6-0.9-1.2-1.5-1.6c-0.5-0.3-1.1-0.5-2-0.8c-0.9-0.2-1.7-0.3-2.4-0.4v-2.4l12.8-0.8l0.5,0.5v29.5
		c0,0.9,0.2,1.6,0.5,2.1c0.3,0.6,0.8,1,1.5,1.2c0.5,0.2,1.1,0.4,1.6,0.5s1.1,0.2,1.7,0.3V97.2z M385.4,46.3c0,1.4-0.5,2.6-1.4,3.7
		c-0.9,1-2,1.6-3.4,1.6c-1.2,0-2.3-0.5-3.2-1.5c-0.9-1-1.4-2.1-1.4-3.4c0-1.3,0.5-2.5,1.4-3.5c0.9-1,2-1.5,3.2-1.5
		c1.4,0,2.5,0.5,3.4,1.4C385,44,385.4,45,385.4,46.3z"/>
	<path d="M425.5,93.5c1,0.9,1.7,2,2.3,3.2c0.6,1.2,0.8,2.6,0.8,4.4c0,1.7-0.4,3.4-1.1,4.9c-0.8,1.5-1.9,2.9-3.5,4
		c-1.6,1.1-3.6,2-5.9,2.7c-2.3,0.6-5.1,1-8.4,1c-5.5,0-9.6-0.8-12.3-2.4c-2.7-1.6-4.1-3.9-4.1-7c0-2.5,1-4.5,2.9-5.9
		c2-1.4,4.5-2.2,7.5-2.3v-0.5c-0.7-0.2-1.5-0.5-2.3-0.8c-0.8-0.3-1.5-0.7-2-1.2c-0.6-0.5-1.2-1.1-1.5-1.8c-0.4-0.7-0.6-1.6-0.6-2.6
		c0-1.3,0.5-2.5,1.4-3.6c0.9-1.1,2.3-2,4.2-2.8V82c-2.3-1.1-4.2-2.5-5.5-4.2c-1.3-1.7-1.9-3.7-1.9-6c0-3.4,1.3-6.2,3.8-8.4
		c2.6-2.2,5.8-3.3,9.8-3.3c1.1,0,2.2,0.1,3.3,0.3c1.1,0.2,2.2,0.5,3.3,0.8h12.6v3.5h-8.5v0.2c0.9,1.1,1.6,2.2,2,3.5
		c0.4,1.3,0.7,2.5,0.7,3.7c0,3.2-1.3,5.9-3.9,8.1c-2.6,2.2-5.6,3.3-9,3.3h-4.4c-0.6,0.2-1.2,0.6-1.8,1.1c-0.6,0.5-0.9,1.2-0.9,2.1
		c0,0.9,0.3,1.6,0.8,2.1c0.5,0.5,1.1,0.8,1.9,1c0.7,0.2,1.5,0.3,2.5,0.4s1.9,0.1,2.9,0.1c1.1,0,2.6,0.1,4.4,0.2
		c1.9,0.1,3.2,0.2,4,0.2c1.1,0,2.3,0.3,3.4,0.8C423.6,91.9,424.6,92.6,425.5,93.5z M422.7,102.3c0-1.4-0.3-2.5-1-3.4
		c-0.6-0.9-1.6-1.5-2.9-1.8c-0.7-0.1-2.1-0.2-4.2-0.3c-2.1-0.1-4.6-0.2-7.4-0.2c-2.6,0.5-4.5,1.4-5.6,2.6c-1.1,1.2-1.7,2.8-1.7,4.7
		c0,0.9,0.2,1.7,0.6,2.5c0.4,0.8,1,1.5,1.9,2.2c0.9,0.6,2,1.2,3.4,1.6c1.4,0.4,3.2,0.6,5.3,0.6c3.6,0,6.4-0.7,8.5-2.1
		C421.6,107.3,422.7,105.2,422.7,102.3z M415.6,72c0-2.9-0.6-5.1-1.7-6.8c-1.2-1.7-2.8-2.6-4.9-2.6c-1.2,0-2.1,0.2-3,0.7
		c-0.8,0.5-1.5,1.2-2,2c-0.5,0.8-0.8,1.8-1,2.9c-0.2,1.1-0.3,2.3-0.3,3.5c0,2.7,0.6,4.9,1.8,6.6c1.2,1.7,2.7,2.6,4.6,2.6
		c2.1,0,3.7-0.9,4.9-2.6C415,76.7,415.6,74.6,415.6,72z"/>
	<path d="M486.7,63.3c-1.1,0.2-2.1,0.6-3.1,1.2c-1,0.6-1.8,1.7-2.6,3.2c-1.4,3.3-2.9,6.7-4.5,10.3c-1.5,3.6-3.1,7.3-4.8,11.2
		c-0.5,1.1-1,2.5-1.6,4c-0.5,1.5-1.1,3-1.5,4.4h-2.9c-2.3-5.8-4.5-11-6.4-15.7c-2-4.7-4-9.6-6.1-14.6c-0.5-1.1-1.3-2-2.4-2.6
		c-1.1-0.6-2.2-1-3.3-1.2V61h16.7v2.6c-0.7,0-1.7,0.2-2.8,0.5c-1.1,0.3-1.7,0.7-1.7,1.2c0,0.1,0.1,0.3,0.2,0.6
		c0.1,0.3,0.2,0.7,0.4,1c1,2.5,2.4,6,4.2,10.4c1.8,4.5,3.3,8.1,4.5,10.8c0.9-2.1,2-4.7,3.3-7.8c1.3-3.1,2.8-6.6,4.3-10.5
		c0.2-0.7,0.5-1.3,0.7-1.9c0.2-0.6,0.3-1.2,0.3-1.7c0-0.4-0.2-0.8-0.6-1.1c-0.4-0.3-0.9-0.6-1.5-0.9s-1.1-0.4-1.7-0.5
		c-0.5-0.1-1-0.2-1.3-0.3V61h13.8V63.3z"/>
	<path d="M520.4,88.7c-1.5,2.9-3.5,5.2-6.1,6.9c-2.5,1.7-5.5,2.6-8.8,2.6c-2.9,0-5.5-0.5-7.7-1.5c-2.2-1-4-2.4-5.4-4.2
		c-1.4-1.8-2.5-3.8-3.2-6.2c-0.7-2.3-1-4.8-1-7.5c0-2.3,0.4-4.7,1.1-6.9c0.7-2.3,1.8-4.3,3.3-6.1c1.4-1.7,3.1-3.1,5.2-4.2
		c2.1-1.1,4.4-1.6,7-1.6c2.6,0,4.9,0.4,6.8,1.2c1.9,0.8,3.4,2,4.6,3.4c1.1,1.4,2,3,2.5,4.8c0.6,1.9,0.8,3.9,0.8,6.1V78h-24
		c0,2.4,0.2,4.5,0.7,6.5c0.5,1.9,1.2,3.6,2.1,5.1c1,1.4,2.2,2.5,3.7,3.4s3.4,1.2,5.5,1.2c2.2,0,4.1-0.5,5.6-1.5
		c1.6-1,3.1-2.9,4.6-5.5L520.4,88.7z M512.3,74.9c0-1.4-0.1-2.8-0.3-4.4c-0.2-1.6-0.6-2.9-1.1-3.9c-0.6-1.1-1.3-2-2.3-2.7
		c-1-0.7-2.2-1.1-3.8-1.1c-2.6,0-4.7,1.1-6.4,3.2c-1.7,2.1-2.6,5.1-2.8,8.9H512.3z"/>
	<path d="M552.3,65.7c0,1.2-0.3,2.4-0.9,3.3c-0.6,1-1.6,1.4-2.8,1.4c-1.4,0-2.4-0.4-3.1-1.1c-0.7-0.7-1.1-1.5-1.1-2.3
		c0-0.5,0-1,0.1-1.5c0.1-0.4,0.2-0.9,0.2-1.3c-1.2,0-2.5,0.5-4,1.4s-2.9,2.3-3.9,4v21.1c0,0.9,0.2,1.6,0.5,2.1
		c0.3,0.5,0.9,0.9,1.6,1.2c0.6,0.2,1.4,0.4,2.4,0.5c1,0.1,1.8,0.2,2.5,0.3v2.4h-19.1v-2.4c0.6,0,1.1-0.1,1.7-0.1
		c0.6,0,1.1-0.1,1.6-0.3c0.7-0.2,1.2-0.6,1.5-1.2c0.3-0.5,0.5-1.3,0.5-2.1V68.7c0-0.8-0.2-1.5-0.5-2.2c-0.4-0.7-0.9-1.3-1.5-1.8
		c-0.5-0.3-1-0.5-1.7-0.6c-0.6-0.1-1.3-0.2-2.1-0.3v-2.4l12-0.8l0.5,0.5v5.1h0.2c1.5-2,3.2-3.5,5.1-4.5c1.9-1,3.6-1.5,5.1-1.5
		c1.5,0,2.8,0.5,3.8,1.5C551.8,62.6,552.3,64,552.3,65.7z"/>
	<path d="M595,96.5l-12.7,0.8l-0.6-0.5v-3.4l-0.3-0.1c-1.3,1.4-2.8,2.6-4.7,3.5c-1.9,0.9-3.8,1.4-5.8,1.4c-2.1,0-4-0.5-6-1.4
		c-1.9-0.9-3.6-2.2-5-3.9c-1.4-1.7-2.6-3.7-3.4-6.1c-0.8-2.4-1.3-5-1.3-7.9c0-2.6,0.5-5.1,1.4-7.5c0.9-2.3,2.2-4.4,3.7-6.2
		c1.5-1.6,3.3-2.9,5.5-3.9c2.2-1,4.4-1.5,6.6-1.5c1.7,0,3.3,0.2,5,0.6c1.6,0.4,3,1,4.2,1.6V49.7c0-1-0.2-2-0.5-2.8
		c-0.3-0.8-0.8-1.5-1.4-1.9c-0.7-0.5-1.6-0.8-2.8-1c-1.2-0.2-2.4-0.4-3.8-0.5v-2.3l14.8-0.8l0.6,0.5v48.8c0,0.9,0.2,1.6,0.5,2.2
		c0.3,0.6,0.8,1.1,1.4,1.5c0.5,0.3,1.1,0.5,2,0.5c0.9,0.1,1.7,0.1,2.4,0.1V96.5z M581.7,90.2V69c-0.2-0.6-0.5-1.3-1-2.1
		c-0.4-0.7-1-1.4-1.6-2c-0.7-0.6-1.5-1.1-2.5-1.5c-1-0.4-2.1-0.6-3.3-0.6c-1.5,0-2.8,0.4-4,1.1c-1.2,0.8-2.3,1.8-3.3,3.3
		c-0.9,1.4-1.6,3.1-2.1,5.2c-0.5,2.1-0.8,4.5-0.8,7c0,2.1,0.2,3.9,0.6,5.6c0.4,1.7,1,3.2,2,4.7c0.9,1.4,1.9,2.5,3.3,3.3
		c1.3,0.8,2.9,1.2,4.7,1.2c2,0,3.6-0.4,4.9-1.3C579.8,92.2,580.9,91.2,581.7,90.2z"/>
	<path d="M630.7,88.7c-1.5,2.9-3.5,5.2-6.1,6.9c-2.5,1.7-5.5,2.6-8.8,2.6c-2.9,0-5.5-0.5-7.7-1.5c-2.2-1-4-2.4-5.4-4.2
		c-1.4-1.8-2.5-3.8-3.2-6.2c-0.7-2.3-1-4.8-1-7.5c0-2.3,0.4-4.7,1.1-6.9c0.7-2.3,1.8-4.3,3.3-6.1c1.4-1.7,3.1-3.1,5.2-4.2
		c2.1-1.1,4.4-1.6,7-1.6c2.6,0,4.9,0.4,6.8,1.2c1.9,0.8,3.4,2,4.6,3.4c1.1,1.4,2,3,2.5,4.8c0.6,1.9,0.8,3.9,0.8,6.1V78h-24
		c0,2.4,0.2,4.5,0.7,6.5c0.5,1.9,1.2,3.6,2.1,5.1c1,1.4,2.2,2.5,3.7,3.4s3.4,1.2,5.5,1.2c2.2,0,4.1-0.5,5.6-1.5
		c1.6-1,3.1-2.9,4.6-5.5L630.7,88.7z M622.6,74.9c0-1.4-0.1-2.8-0.3-4.4s-0.6-2.9-1.1-3.9c-0.6-1.1-1.3-2-2.3-2.7
		c-1-0.7-2.2-1.1-3.8-1.1c-2.6,0-4.7,1.1-6.4,3.2c-1.7,2.1-2.6,5.1-2.8,8.9H622.6z"/>
	<path d="M674.9,97.2h-17.7v-2.4c0.6,0,1.2-0.1,1.9-0.1s1.2-0.1,1.7-0.3c0.7-0.2,1.2-0.6,1.5-1.2c0.3-0.6,0.5-1.3,0.5-2.1V72.4
		c0-2.6-0.6-4.6-1.8-5.9c-1.2-1.4-2.7-2.1-4.4-2.1c-1.3,0-2.5,0.2-3.6,0.6c-1.1,0.4-2,0.9-2.9,1.5c-0.8,0.6-1.5,1.2-1.9,1.8
		c-0.5,0.6-0.8,1.2-1,1.6v20.8c0,0.8,0.2,1.5,0.5,2.1c0.3,0.5,0.9,1,1.5,1.2c0.5,0.2,1.1,0.4,1.7,0.5c0.6,0.1,1.2,0.2,1.9,0.3v2.4
		h-17.7v-2.4c0.6,0,1.1-0.1,1.7-0.1c0.6,0,1.1-0.1,1.6-0.3c0.7-0.2,1.2-0.6,1.5-1.2c0.3-0.5,0.5-1.3,0.5-2.1V68.7
		c0-0.8-0.2-1.6-0.5-2.3c-0.4-0.7-0.9-1.3-1.5-1.7c-0.5-0.3-1-0.5-1.7-0.6c-0.6-0.1-1.3-0.2-2.1-0.3v-2.4l12-0.8l0.5,0.5v5.1h0.2
		c0.6-0.6,1.3-1.3,2.2-2.1c0.9-0.8,1.7-1.5,2.5-2c0.9-0.6,2-1.1,3.2-1.5c1.2-0.4,2.7-0.6,4.2-0.6c3.5,0,6.1,1.1,7.7,3.2
		c1.7,2.2,2.5,5,2.5,8.6v18.8c0,0.9,0.1,1.5,0.4,2.1c0.3,0.5,0.8,0.9,1.5,1.2c0.6,0.2,1.1,0.4,1.5,0.5c0.4,0.1,1,0.2,1.8,0.2V97.2z"
		/>
</g>
</svg>
